G04 #@! TF.GenerationSoftware,KiCad,Pcbnew,5.0.0-fee4fd1~66~ubuntu16.04.1*
G04 #@! TF.CreationDate,2018-09-08T12:14:25+02:00*
G04 #@! TF.ProjectId,drone_psu,64726F6E655F7073752E6B696361645F,rev?*
G04 #@! TF.SameCoordinates,Original*
G04 #@! TF.FileFunction,Copper,L1,Top,Signal*
G04 #@! TF.FilePolarity,Positive*
%FSLAX46Y46*%
G04 Gerber Fmt 4.6, Leading zero omitted, Abs format (unit mm)*
G04 Created by KiCad (PCBNEW 5.0.0-fee4fd1~66~ubuntu16.04.1) date Sat Sep  8 12:14:25 2018*
%MOMM*%
%LPD*%
G01*
G04 APERTURE LIST*
G04 #@! TA.AperFunction,ComponentPad*
%ADD10R,1.700000X1.700000*%
G04 #@! TD*
G04 #@! TA.AperFunction,Conductor*
%ADD11C,0.100000*%
G04 #@! TD*
G04 #@! TA.AperFunction,SMDPad,CuDef*
%ADD12C,1.250000*%
G04 #@! TD*
G04 #@! TA.AperFunction,SMDPad,CuDef*
%ADD13C,0.550000*%
G04 #@! TD*
G04 #@! TA.AperFunction,SMDPad,CuDef*
%ADD14R,1.500000X3.000000*%
G04 #@! TD*
G04 #@! TA.AperFunction,SMDPad,CuDef*
%ADD15R,2.350000X2.350000*%
G04 #@! TD*
G04 #@! TA.AperFunction,SMDPad,CuDef*
%ADD16R,0.600000X1.550000*%
G04 #@! TD*
G04 #@! TA.AperFunction,SMDPad,CuDef*
%ADD17C,0.950000*%
G04 #@! TD*
G04 #@! TA.AperFunction,ViaPad*
%ADD18C,0.800000*%
G04 #@! TD*
G04 #@! TA.AperFunction,ViaPad*
%ADD19C,0.600000*%
G04 #@! TD*
G04 #@! TA.AperFunction,Conductor*
%ADD20C,1.000000*%
G04 #@! TD*
G04 #@! TA.AperFunction,Conductor*
%ADD21C,0.250000*%
G04 #@! TD*
G04 #@! TA.AperFunction,Conductor*
%ADD22C,1.500000*%
G04 #@! TD*
G04 #@! TA.AperFunction,Conductor*
%ADD23C,0.200000*%
G04 #@! TD*
G04 APERTURE END LIST*
D10*
G04 #@! TO.P,J3,1*
G04 #@! TO.N,GND*
X122000000Y-111400000D03*
G04 #@! TD*
D11*
G04 #@! TO.N,/OUT1*
G04 #@! TO.C,C5*
G36*
X119899504Y-130676204D02*
X119923773Y-130679804D01*
X119947571Y-130685765D01*
X119970671Y-130694030D01*
X119992849Y-130704520D01*
X120013893Y-130717133D01*
X120033598Y-130731747D01*
X120051777Y-130748223D01*
X120068253Y-130766402D01*
X120082867Y-130786107D01*
X120095480Y-130807151D01*
X120105970Y-130829329D01*
X120114235Y-130852429D01*
X120120196Y-130876227D01*
X120123796Y-130900496D01*
X120125000Y-130925000D01*
X120125000Y-133075000D01*
X120123796Y-133099504D01*
X120120196Y-133123773D01*
X120114235Y-133147571D01*
X120105970Y-133170671D01*
X120095480Y-133192849D01*
X120082867Y-133213893D01*
X120068253Y-133233598D01*
X120051777Y-133251777D01*
X120033598Y-133268253D01*
X120013893Y-133282867D01*
X119992849Y-133295480D01*
X119970671Y-133305970D01*
X119947571Y-133314235D01*
X119923773Y-133320196D01*
X119899504Y-133323796D01*
X119875000Y-133325000D01*
X119125000Y-133325000D01*
X119100496Y-133323796D01*
X119076227Y-133320196D01*
X119052429Y-133314235D01*
X119029329Y-133305970D01*
X119007151Y-133295480D01*
X118986107Y-133282867D01*
X118966402Y-133268253D01*
X118948223Y-133251777D01*
X118931747Y-133233598D01*
X118917133Y-133213893D01*
X118904520Y-133192849D01*
X118894030Y-133170671D01*
X118885765Y-133147571D01*
X118879804Y-133123773D01*
X118876204Y-133099504D01*
X118875000Y-133075000D01*
X118875000Y-130925000D01*
X118876204Y-130900496D01*
X118879804Y-130876227D01*
X118885765Y-130852429D01*
X118894030Y-130829329D01*
X118904520Y-130807151D01*
X118917133Y-130786107D01*
X118931747Y-130766402D01*
X118948223Y-130748223D01*
X118966402Y-130731747D01*
X118986107Y-130717133D01*
X119007151Y-130704520D01*
X119029329Y-130694030D01*
X119052429Y-130685765D01*
X119076227Y-130679804D01*
X119100496Y-130676204D01*
X119125000Y-130675000D01*
X119875000Y-130675000D01*
X119899504Y-130676204D01*
X119899504Y-130676204D01*
G37*
D12*
G04 #@! TD*
G04 #@! TO.P,C5,1*
G04 #@! TO.N,/OUT1*
X119500000Y-132000000D03*
D11*
G04 #@! TO.N,GND*
G04 #@! TO.C,C5*
G36*
X117099504Y-130676204D02*
X117123773Y-130679804D01*
X117147571Y-130685765D01*
X117170671Y-130694030D01*
X117192849Y-130704520D01*
X117213893Y-130717133D01*
X117233598Y-130731747D01*
X117251777Y-130748223D01*
X117268253Y-130766402D01*
X117282867Y-130786107D01*
X117295480Y-130807151D01*
X117305970Y-130829329D01*
X117314235Y-130852429D01*
X117320196Y-130876227D01*
X117323796Y-130900496D01*
X117325000Y-130925000D01*
X117325000Y-133075000D01*
X117323796Y-133099504D01*
X117320196Y-133123773D01*
X117314235Y-133147571D01*
X117305970Y-133170671D01*
X117295480Y-133192849D01*
X117282867Y-133213893D01*
X117268253Y-133233598D01*
X117251777Y-133251777D01*
X117233598Y-133268253D01*
X117213893Y-133282867D01*
X117192849Y-133295480D01*
X117170671Y-133305970D01*
X117147571Y-133314235D01*
X117123773Y-133320196D01*
X117099504Y-133323796D01*
X117075000Y-133325000D01*
X116325000Y-133325000D01*
X116300496Y-133323796D01*
X116276227Y-133320196D01*
X116252429Y-133314235D01*
X116229329Y-133305970D01*
X116207151Y-133295480D01*
X116186107Y-133282867D01*
X116166402Y-133268253D01*
X116148223Y-133251777D01*
X116131747Y-133233598D01*
X116117133Y-133213893D01*
X116104520Y-133192849D01*
X116094030Y-133170671D01*
X116085765Y-133147571D01*
X116079804Y-133123773D01*
X116076204Y-133099504D01*
X116075000Y-133075000D01*
X116075000Y-130925000D01*
X116076204Y-130900496D01*
X116079804Y-130876227D01*
X116085765Y-130852429D01*
X116094030Y-130829329D01*
X116104520Y-130807151D01*
X116117133Y-130786107D01*
X116131747Y-130766402D01*
X116148223Y-130748223D01*
X116166402Y-130731747D01*
X116186107Y-130717133D01*
X116207151Y-130704520D01*
X116229329Y-130694030D01*
X116252429Y-130685765D01*
X116276227Y-130679804D01*
X116300496Y-130676204D01*
X116325000Y-130675000D01*
X117075000Y-130675000D01*
X117099504Y-130676204D01*
X117099504Y-130676204D01*
G37*
D12*
G04 #@! TD*
G04 #@! TO.P,C5,2*
G04 #@! TO.N,GND*
X116700000Y-132000000D03*
D11*
G04 #@! TO.N,/VCC1*
G04 #@! TO.C,C4*
G36*
X115950977Y-113525662D02*
X115964325Y-113527642D01*
X115977414Y-113530921D01*
X115990119Y-113535467D01*
X116002317Y-113541236D01*
X116013891Y-113548173D01*
X116024729Y-113556211D01*
X116034727Y-113565273D01*
X116043789Y-113575271D01*
X116051827Y-113586109D01*
X116058764Y-113597683D01*
X116064533Y-113609881D01*
X116069079Y-113622586D01*
X116072358Y-113635675D01*
X116074338Y-113649023D01*
X116075000Y-113662500D01*
X116075000Y-113937500D01*
X116074338Y-113950977D01*
X116072358Y-113964325D01*
X116069079Y-113977414D01*
X116064533Y-113990119D01*
X116058764Y-114002317D01*
X116051827Y-114013891D01*
X116043789Y-114024729D01*
X116034727Y-114034727D01*
X116024729Y-114043789D01*
X116013891Y-114051827D01*
X116002317Y-114058764D01*
X115990119Y-114064533D01*
X115977414Y-114069079D01*
X115964325Y-114072358D01*
X115950977Y-114074338D01*
X115937500Y-114075000D01*
X115662500Y-114075000D01*
X115649023Y-114074338D01*
X115635675Y-114072358D01*
X115622586Y-114069079D01*
X115609881Y-114064533D01*
X115597683Y-114058764D01*
X115586109Y-114051827D01*
X115575271Y-114043789D01*
X115565273Y-114034727D01*
X115556211Y-114024729D01*
X115548173Y-114013891D01*
X115541236Y-114002317D01*
X115535467Y-113990119D01*
X115530921Y-113977414D01*
X115527642Y-113964325D01*
X115525662Y-113950977D01*
X115525000Y-113937500D01*
X115525000Y-113662500D01*
X115525662Y-113649023D01*
X115527642Y-113635675D01*
X115530921Y-113622586D01*
X115535467Y-113609881D01*
X115541236Y-113597683D01*
X115548173Y-113586109D01*
X115556211Y-113575271D01*
X115565273Y-113565273D01*
X115575271Y-113556211D01*
X115586109Y-113548173D01*
X115597683Y-113541236D01*
X115609881Y-113535467D01*
X115622586Y-113530921D01*
X115635675Y-113527642D01*
X115649023Y-113525662D01*
X115662500Y-113525000D01*
X115937500Y-113525000D01*
X115950977Y-113525662D01*
X115950977Y-113525662D01*
G37*
D13*
G04 #@! TD*
G04 #@! TO.P,C4,1*
G04 #@! TO.N,/VCC1*
X115800000Y-113800000D03*
D11*
G04 #@! TO.N,GND*
G04 #@! TO.C,C4*
G36*
X115150977Y-113525662D02*
X115164325Y-113527642D01*
X115177414Y-113530921D01*
X115190119Y-113535467D01*
X115202317Y-113541236D01*
X115213891Y-113548173D01*
X115224729Y-113556211D01*
X115234727Y-113565273D01*
X115243789Y-113575271D01*
X115251827Y-113586109D01*
X115258764Y-113597683D01*
X115264533Y-113609881D01*
X115269079Y-113622586D01*
X115272358Y-113635675D01*
X115274338Y-113649023D01*
X115275000Y-113662500D01*
X115275000Y-113937500D01*
X115274338Y-113950977D01*
X115272358Y-113964325D01*
X115269079Y-113977414D01*
X115264533Y-113990119D01*
X115258764Y-114002317D01*
X115251827Y-114013891D01*
X115243789Y-114024729D01*
X115234727Y-114034727D01*
X115224729Y-114043789D01*
X115213891Y-114051827D01*
X115202317Y-114058764D01*
X115190119Y-114064533D01*
X115177414Y-114069079D01*
X115164325Y-114072358D01*
X115150977Y-114074338D01*
X115137500Y-114075000D01*
X114862500Y-114075000D01*
X114849023Y-114074338D01*
X114835675Y-114072358D01*
X114822586Y-114069079D01*
X114809881Y-114064533D01*
X114797683Y-114058764D01*
X114786109Y-114051827D01*
X114775271Y-114043789D01*
X114765273Y-114034727D01*
X114756211Y-114024729D01*
X114748173Y-114013891D01*
X114741236Y-114002317D01*
X114735467Y-113990119D01*
X114730921Y-113977414D01*
X114727642Y-113964325D01*
X114725662Y-113950977D01*
X114725000Y-113937500D01*
X114725000Y-113662500D01*
X114725662Y-113649023D01*
X114727642Y-113635675D01*
X114730921Y-113622586D01*
X114735467Y-113609881D01*
X114741236Y-113597683D01*
X114748173Y-113586109D01*
X114756211Y-113575271D01*
X114765273Y-113565273D01*
X114775271Y-113556211D01*
X114786109Y-113548173D01*
X114797683Y-113541236D01*
X114809881Y-113535467D01*
X114822586Y-113530921D01*
X114835675Y-113527642D01*
X114849023Y-113525662D01*
X114862500Y-113525000D01*
X115137500Y-113525000D01*
X115150977Y-113525662D01*
X115150977Y-113525662D01*
G37*
D13*
G04 #@! TD*
G04 #@! TO.P,C4,2*
G04 #@! TO.N,GND*
X115000000Y-113800000D03*
D11*
G04 #@! TO.N,Net-(C1-Pad2)*
G04 #@! TO.C,C1*
G36*
X120350977Y-121125662D02*
X120364325Y-121127642D01*
X120377414Y-121130921D01*
X120390119Y-121135467D01*
X120402317Y-121141236D01*
X120413891Y-121148173D01*
X120424729Y-121156211D01*
X120434727Y-121165273D01*
X120443789Y-121175271D01*
X120451827Y-121186109D01*
X120458764Y-121197683D01*
X120464533Y-121209881D01*
X120469079Y-121222586D01*
X120472358Y-121235675D01*
X120474338Y-121249023D01*
X120475000Y-121262500D01*
X120475000Y-121537500D01*
X120474338Y-121550977D01*
X120472358Y-121564325D01*
X120469079Y-121577414D01*
X120464533Y-121590119D01*
X120458764Y-121602317D01*
X120451827Y-121613891D01*
X120443789Y-121624729D01*
X120434727Y-121634727D01*
X120424729Y-121643789D01*
X120413891Y-121651827D01*
X120402317Y-121658764D01*
X120390119Y-121664533D01*
X120377414Y-121669079D01*
X120364325Y-121672358D01*
X120350977Y-121674338D01*
X120337500Y-121675000D01*
X120062500Y-121675000D01*
X120049023Y-121674338D01*
X120035675Y-121672358D01*
X120022586Y-121669079D01*
X120009881Y-121664533D01*
X119997683Y-121658764D01*
X119986109Y-121651827D01*
X119975271Y-121643789D01*
X119965273Y-121634727D01*
X119956211Y-121624729D01*
X119948173Y-121613891D01*
X119941236Y-121602317D01*
X119935467Y-121590119D01*
X119930921Y-121577414D01*
X119927642Y-121564325D01*
X119925662Y-121550977D01*
X119925000Y-121537500D01*
X119925000Y-121262500D01*
X119925662Y-121249023D01*
X119927642Y-121235675D01*
X119930921Y-121222586D01*
X119935467Y-121209881D01*
X119941236Y-121197683D01*
X119948173Y-121186109D01*
X119956211Y-121175271D01*
X119965273Y-121165273D01*
X119975271Y-121156211D01*
X119986109Y-121148173D01*
X119997683Y-121141236D01*
X120009881Y-121135467D01*
X120022586Y-121130921D01*
X120035675Y-121127642D01*
X120049023Y-121125662D01*
X120062500Y-121125000D01*
X120337500Y-121125000D01*
X120350977Y-121125662D01*
X120350977Y-121125662D01*
G37*
D13*
G04 #@! TD*
G04 #@! TO.P,C1,2*
G04 #@! TO.N,Net-(C1-Pad2)*
X120200000Y-121400000D03*
D11*
G04 #@! TO.N,/SW1*
G04 #@! TO.C,C1*
G36*
X121150977Y-121125662D02*
X121164325Y-121127642D01*
X121177414Y-121130921D01*
X121190119Y-121135467D01*
X121202317Y-121141236D01*
X121213891Y-121148173D01*
X121224729Y-121156211D01*
X121234727Y-121165273D01*
X121243789Y-121175271D01*
X121251827Y-121186109D01*
X121258764Y-121197683D01*
X121264533Y-121209881D01*
X121269079Y-121222586D01*
X121272358Y-121235675D01*
X121274338Y-121249023D01*
X121275000Y-121262500D01*
X121275000Y-121537500D01*
X121274338Y-121550977D01*
X121272358Y-121564325D01*
X121269079Y-121577414D01*
X121264533Y-121590119D01*
X121258764Y-121602317D01*
X121251827Y-121613891D01*
X121243789Y-121624729D01*
X121234727Y-121634727D01*
X121224729Y-121643789D01*
X121213891Y-121651827D01*
X121202317Y-121658764D01*
X121190119Y-121664533D01*
X121177414Y-121669079D01*
X121164325Y-121672358D01*
X121150977Y-121674338D01*
X121137500Y-121675000D01*
X120862500Y-121675000D01*
X120849023Y-121674338D01*
X120835675Y-121672358D01*
X120822586Y-121669079D01*
X120809881Y-121664533D01*
X120797683Y-121658764D01*
X120786109Y-121651827D01*
X120775271Y-121643789D01*
X120765273Y-121634727D01*
X120756211Y-121624729D01*
X120748173Y-121613891D01*
X120741236Y-121602317D01*
X120735467Y-121590119D01*
X120730921Y-121577414D01*
X120727642Y-121564325D01*
X120725662Y-121550977D01*
X120725000Y-121537500D01*
X120725000Y-121262500D01*
X120725662Y-121249023D01*
X120727642Y-121235675D01*
X120730921Y-121222586D01*
X120735467Y-121209881D01*
X120741236Y-121197683D01*
X120748173Y-121186109D01*
X120756211Y-121175271D01*
X120765273Y-121165273D01*
X120775271Y-121156211D01*
X120786109Y-121148173D01*
X120797683Y-121141236D01*
X120809881Y-121135467D01*
X120822586Y-121130921D01*
X120835675Y-121127642D01*
X120849023Y-121125662D01*
X120862500Y-121125000D01*
X121137500Y-121125000D01*
X121150977Y-121125662D01*
X121150977Y-121125662D01*
G37*
D13*
G04 #@! TD*
G04 #@! TO.P,C1,1*
G04 #@! TO.N,/SW1*
X121000000Y-121400000D03*
D11*
G04 #@! TO.N,GND*
G04 #@! TO.C,C3*
G36*
X122499504Y-116576204D02*
X122523773Y-116579804D01*
X122547571Y-116585765D01*
X122570671Y-116594030D01*
X122592849Y-116604520D01*
X122613893Y-116617133D01*
X122633598Y-116631747D01*
X122651777Y-116648223D01*
X122668253Y-116666402D01*
X122682867Y-116686107D01*
X122695480Y-116707151D01*
X122705970Y-116729329D01*
X122714235Y-116752429D01*
X122720196Y-116776227D01*
X122723796Y-116800496D01*
X122725000Y-116825000D01*
X122725000Y-117575000D01*
X122723796Y-117599504D01*
X122720196Y-117623773D01*
X122714235Y-117647571D01*
X122705970Y-117670671D01*
X122695480Y-117692849D01*
X122682867Y-117713893D01*
X122668253Y-117733598D01*
X122651777Y-117751777D01*
X122633598Y-117768253D01*
X122613893Y-117782867D01*
X122592849Y-117795480D01*
X122570671Y-117805970D01*
X122547571Y-117814235D01*
X122523773Y-117820196D01*
X122499504Y-117823796D01*
X122475000Y-117825000D01*
X120325000Y-117825000D01*
X120300496Y-117823796D01*
X120276227Y-117820196D01*
X120252429Y-117814235D01*
X120229329Y-117805970D01*
X120207151Y-117795480D01*
X120186107Y-117782867D01*
X120166402Y-117768253D01*
X120148223Y-117751777D01*
X120131747Y-117733598D01*
X120117133Y-117713893D01*
X120104520Y-117692849D01*
X120094030Y-117670671D01*
X120085765Y-117647571D01*
X120079804Y-117623773D01*
X120076204Y-117599504D01*
X120075000Y-117575000D01*
X120075000Y-116825000D01*
X120076204Y-116800496D01*
X120079804Y-116776227D01*
X120085765Y-116752429D01*
X120094030Y-116729329D01*
X120104520Y-116707151D01*
X120117133Y-116686107D01*
X120131747Y-116666402D01*
X120148223Y-116648223D01*
X120166402Y-116631747D01*
X120186107Y-116617133D01*
X120207151Y-116604520D01*
X120229329Y-116594030D01*
X120252429Y-116585765D01*
X120276227Y-116579804D01*
X120300496Y-116576204D01*
X120325000Y-116575000D01*
X122475000Y-116575000D01*
X122499504Y-116576204D01*
X122499504Y-116576204D01*
G37*
D12*
G04 #@! TD*
G04 #@! TO.P,C3,2*
G04 #@! TO.N,GND*
X121400000Y-117200000D03*
D11*
G04 #@! TO.N,/OUT1*
G04 #@! TO.C,C3*
G36*
X122499504Y-119376204D02*
X122523773Y-119379804D01*
X122547571Y-119385765D01*
X122570671Y-119394030D01*
X122592849Y-119404520D01*
X122613893Y-119417133D01*
X122633598Y-119431747D01*
X122651777Y-119448223D01*
X122668253Y-119466402D01*
X122682867Y-119486107D01*
X122695480Y-119507151D01*
X122705970Y-119529329D01*
X122714235Y-119552429D01*
X122720196Y-119576227D01*
X122723796Y-119600496D01*
X122725000Y-119625000D01*
X122725000Y-120375000D01*
X122723796Y-120399504D01*
X122720196Y-120423773D01*
X122714235Y-120447571D01*
X122705970Y-120470671D01*
X122695480Y-120492849D01*
X122682867Y-120513893D01*
X122668253Y-120533598D01*
X122651777Y-120551777D01*
X122633598Y-120568253D01*
X122613893Y-120582867D01*
X122592849Y-120595480D01*
X122570671Y-120605970D01*
X122547571Y-120614235D01*
X122523773Y-120620196D01*
X122499504Y-120623796D01*
X122475000Y-120625000D01*
X120325000Y-120625000D01*
X120300496Y-120623796D01*
X120276227Y-120620196D01*
X120252429Y-120614235D01*
X120229329Y-120605970D01*
X120207151Y-120595480D01*
X120186107Y-120582867D01*
X120166402Y-120568253D01*
X120148223Y-120551777D01*
X120131747Y-120533598D01*
X120117133Y-120513893D01*
X120104520Y-120492849D01*
X120094030Y-120470671D01*
X120085765Y-120447571D01*
X120079804Y-120423773D01*
X120076204Y-120399504D01*
X120075000Y-120375000D01*
X120075000Y-119625000D01*
X120076204Y-119600496D01*
X120079804Y-119576227D01*
X120085765Y-119552429D01*
X120094030Y-119529329D01*
X120104520Y-119507151D01*
X120117133Y-119486107D01*
X120131747Y-119466402D01*
X120148223Y-119448223D01*
X120166402Y-119431747D01*
X120186107Y-119417133D01*
X120207151Y-119404520D01*
X120229329Y-119394030D01*
X120252429Y-119385765D01*
X120276227Y-119379804D01*
X120300496Y-119376204D01*
X120325000Y-119375000D01*
X122475000Y-119375000D01*
X122499504Y-119376204D01*
X122499504Y-119376204D01*
G37*
D12*
G04 #@! TD*
G04 #@! TO.P,C3,1*
G04 #@! TO.N,/OUT1*
X121400000Y-120000000D03*
D10*
G04 #@! TO.P,J1,1*
G04 #@! TO.N,/VIN*
X114400000Y-111400000D03*
G04 #@! TD*
G04 #@! TO.P,J2,1*
G04 #@! TO.N,/OUT1*
X121900000Y-132400000D03*
G04 #@! TD*
G04 #@! TO.P,J5,1*
G04 #@! TO.N,GND*
X114400000Y-132400000D03*
G04 #@! TD*
D14*
G04 #@! TO.P,L1,1*
G04 #@! TO.N,/SW1*
X115200000Y-126200000D03*
G04 #@! TO.P,L1,2*
G04 #@! TO.N,/OUT1*
X121600000Y-126200000D03*
G04 #@! TD*
D15*
G04 #@! TO.P,U1,9*
G04 #@! TO.N,GND*
X117000000Y-118000000D03*
D16*
G04 #@! TO.P,U1,8*
X115095000Y-115300000D03*
G04 #@! TO.P,U1,7*
G04 #@! TO.N,/VCC1*
X116365000Y-115300000D03*
G04 #@! TO.P,U1,6*
G04 #@! TO.N,/FB1*
X117635000Y-115300000D03*
G04 #@! TO.P,U1,5*
G04 #@! TO.N,/EN1*
X118905000Y-115300000D03*
G04 #@! TO.P,U1,4*
G04 #@! TO.N,Net-(C1-Pad2)*
X118905000Y-120700000D03*
G04 #@! TO.P,U1,3*
G04 #@! TO.N,/SW1*
X117635000Y-120700000D03*
G04 #@! TO.P,U1,2*
X116365000Y-120700000D03*
G04 #@! TO.P,U1,1*
G04 #@! TO.N,/VIN*
X115095000Y-120700000D03*
G04 #@! TD*
D11*
G04 #@! TO.N,/VIN*
G04 #@! TO.C,C2*
G36*
X116460779Y-111126144D02*
X116483834Y-111129563D01*
X116506443Y-111135227D01*
X116528387Y-111143079D01*
X116549457Y-111153044D01*
X116569448Y-111165026D01*
X116588168Y-111178910D01*
X116605438Y-111194562D01*
X116621090Y-111211832D01*
X116634974Y-111230552D01*
X116646956Y-111250543D01*
X116656921Y-111271613D01*
X116664773Y-111293557D01*
X116670437Y-111316166D01*
X116673856Y-111339221D01*
X116675000Y-111362500D01*
X116675000Y-112237500D01*
X116673856Y-112260779D01*
X116670437Y-112283834D01*
X116664773Y-112306443D01*
X116656921Y-112328387D01*
X116646956Y-112349457D01*
X116634974Y-112369448D01*
X116621090Y-112388168D01*
X116605438Y-112405438D01*
X116588168Y-112421090D01*
X116569448Y-112434974D01*
X116549457Y-112446956D01*
X116528387Y-112456921D01*
X116506443Y-112464773D01*
X116483834Y-112470437D01*
X116460779Y-112473856D01*
X116437500Y-112475000D01*
X115962500Y-112475000D01*
X115939221Y-112473856D01*
X115916166Y-112470437D01*
X115893557Y-112464773D01*
X115871613Y-112456921D01*
X115850543Y-112446956D01*
X115830552Y-112434974D01*
X115811832Y-112421090D01*
X115794562Y-112405438D01*
X115778910Y-112388168D01*
X115765026Y-112369448D01*
X115753044Y-112349457D01*
X115743079Y-112328387D01*
X115735227Y-112306443D01*
X115729563Y-112283834D01*
X115726144Y-112260779D01*
X115725000Y-112237500D01*
X115725000Y-111362500D01*
X115726144Y-111339221D01*
X115729563Y-111316166D01*
X115735227Y-111293557D01*
X115743079Y-111271613D01*
X115753044Y-111250543D01*
X115765026Y-111230552D01*
X115778910Y-111211832D01*
X115794562Y-111194562D01*
X115811832Y-111178910D01*
X115830552Y-111165026D01*
X115850543Y-111153044D01*
X115871613Y-111143079D01*
X115893557Y-111135227D01*
X115916166Y-111129563D01*
X115939221Y-111126144D01*
X115962500Y-111125000D01*
X116437500Y-111125000D01*
X116460779Y-111126144D01*
X116460779Y-111126144D01*
G37*
D17*
G04 #@! TD*
G04 #@! TO.P,C2,1*
G04 #@! TO.N,/VIN*
X116200000Y-111800000D03*
D11*
G04 #@! TO.N,GND*
G04 #@! TO.C,C2*
G36*
X118060779Y-111126144D02*
X118083834Y-111129563D01*
X118106443Y-111135227D01*
X118128387Y-111143079D01*
X118149457Y-111153044D01*
X118169448Y-111165026D01*
X118188168Y-111178910D01*
X118205438Y-111194562D01*
X118221090Y-111211832D01*
X118234974Y-111230552D01*
X118246956Y-111250543D01*
X118256921Y-111271613D01*
X118264773Y-111293557D01*
X118270437Y-111316166D01*
X118273856Y-111339221D01*
X118275000Y-111362500D01*
X118275000Y-112237500D01*
X118273856Y-112260779D01*
X118270437Y-112283834D01*
X118264773Y-112306443D01*
X118256921Y-112328387D01*
X118246956Y-112349457D01*
X118234974Y-112369448D01*
X118221090Y-112388168D01*
X118205438Y-112405438D01*
X118188168Y-112421090D01*
X118169448Y-112434974D01*
X118149457Y-112446956D01*
X118128387Y-112456921D01*
X118106443Y-112464773D01*
X118083834Y-112470437D01*
X118060779Y-112473856D01*
X118037500Y-112475000D01*
X117562500Y-112475000D01*
X117539221Y-112473856D01*
X117516166Y-112470437D01*
X117493557Y-112464773D01*
X117471613Y-112456921D01*
X117450543Y-112446956D01*
X117430552Y-112434974D01*
X117411832Y-112421090D01*
X117394562Y-112405438D01*
X117378910Y-112388168D01*
X117365026Y-112369448D01*
X117353044Y-112349457D01*
X117343079Y-112328387D01*
X117335227Y-112306443D01*
X117329563Y-112283834D01*
X117326144Y-112260779D01*
X117325000Y-112237500D01*
X117325000Y-111362500D01*
X117326144Y-111339221D01*
X117329563Y-111316166D01*
X117335227Y-111293557D01*
X117343079Y-111271613D01*
X117353044Y-111250543D01*
X117365026Y-111230552D01*
X117378910Y-111211832D01*
X117394562Y-111194562D01*
X117411832Y-111178910D01*
X117430552Y-111165026D01*
X117450543Y-111153044D01*
X117471613Y-111143079D01*
X117493557Y-111135227D01*
X117516166Y-111129563D01*
X117539221Y-111126144D01*
X117562500Y-111125000D01*
X118037500Y-111125000D01*
X118060779Y-111126144D01*
X118060779Y-111126144D01*
G37*
D17*
G04 #@! TD*
G04 #@! TO.P,C2,2*
G04 #@! TO.N,GND*
X117800000Y-111800000D03*
D11*
G04 #@! TO.N,/EN1*
G04 #@! TO.C,R1*
G36*
X120550977Y-113525662D02*
X120564325Y-113527642D01*
X120577414Y-113530921D01*
X120590119Y-113535467D01*
X120602317Y-113541236D01*
X120613891Y-113548173D01*
X120624729Y-113556211D01*
X120634727Y-113565273D01*
X120643789Y-113575271D01*
X120651827Y-113586109D01*
X120658764Y-113597683D01*
X120664533Y-113609881D01*
X120669079Y-113622586D01*
X120672358Y-113635675D01*
X120674338Y-113649023D01*
X120675000Y-113662500D01*
X120675000Y-113937500D01*
X120674338Y-113950977D01*
X120672358Y-113964325D01*
X120669079Y-113977414D01*
X120664533Y-113990119D01*
X120658764Y-114002317D01*
X120651827Y-114013891D01*
X120643789Y-114024729D01*
X120634727Y-114034727D01*
X120624729Y-114043789D01*
X120613891Y-114051827D01*
X120602317Y-114058764D01*
X120590119Y-114064533D01*
X120577414Y-114069079D01*
X120564325Y-114072358D01*
X120550977Y-114074338D01*
X120537500Y-114075000D01*
X120262500Y-114075000D01*
X120249023Y-114074338D01*
X120235675Y-114072358D01*
X120222586Y-114069079D01*
X120209881Y-114064533D01*
X120197683Y-114058764D01*
X120186109Y-114051827D01*
X120175271Y-114043789D01*
X120165273Y-114034727D01*
X120156211Y-114024729D01*
X120148173Y-114013891D01*
X120141236Y-114002317D01*
X120135467Y-113990119D01*
X120130921Y-113977414D01*
X120127642Y-113964325D01*
X120125662Y-113950977D01*
X120125000Y-113937500D01*
X120125000Y-113662500D01*
X120125662Y-113649023D01*
X120127642Y-113635675D01*
X120130921Y-113622586D01*
X120135467Y-113609881D01*
X120141236Y-113597683D01*
X120148173Y-113586109D01*
X120156211Y-113575271D01*
X120165273Y-113565273D01*
X120175271Y-113556211D01*
X120186109Y-113548173D01*
X120197683Y-113541236D01*
X120209881Y-113535467D01*
X120222586Y-113530921D01*
X120235675Y-113527642D01*
X120249023Y-113525662D01*
X120262500Y-113525000D01*
X120537500Y-113525000D01*
X120550977Y-113525662D01*
X120550977Y-113525662D01*
G37*
D13*
G04 #@! TD*
G04 #@! TO.P,R1,2*
G04 #@! TO.N,/EN1*
X120400000Y-113800000D03*
D11*
G04 #@! TO.N,/VIN*
G04 #@! TO.C,R1*
G36*
X121350977Y-113525662D02*
X121364325Y-113527642D01*
X121377414Y-113530921D01*
X121390119Y-113535467D01*
X121402317Y-113541236D01*
X121413891Y-113548173D01*
X121424729Y-113556211D01*
X121434727Y-113565273D01*
X121443789Y-113575271D01*
X121451827Y-113586109D01*
X121458764Y-113597683D01*
X121464533Y-113609881D01*
X121469079Y-113622586D01*
X121472358Y-113635675D01*
X121474338Y-113649023D01*
X121475000Y-113662500D01*
X121475000Y-113937500D01*
X121474338Y-113950977D01*
X121472358Y-113964325D01*
X121469079Y-113977414D01*
X121464533Y-113990119D01*
X121458764Y-114002317D01*
X121451827Y-114013891D01*
X121443789Y-114024729D01*
X121434727Y-114034727D01*
X121424729Y-114043789D01*
X121413891Y-114051827D01*
X121402317Y-114058764D01*
X121390119Y-114064533D01*
X121377414Y-114069079D01*
X121364325Y-114072358D01*
X121350977Y-114074338D01*
X121337500Y-114075000D01*
X121062500Y-114075000D01*
X121049023Y-114074338D01*
X121035675Y-114072358D01*
X121022586Y-114069079D01*
X121009881Y-114064533D01*
X120997683Y-114058764D01*
X120986109Y-114051827D01*
X120975271Y-114043789D01*
X120965273Y-114034727D01*
X120956211Y-114024729D01*
X120948173Y-114013891D01*
X120941236Y-114002317D01*
X120935467Y-113990119D01*
X120930921Y-113977414D01*
X120927642Y-113964325D01*
X120925662Y-113950977D01*
X120925000Y-113937500D01*
X120925000Y-113662500D01*
X120925662Y-113649023D01*
X120927642Y-113635675D01*
X120930921Y-113622586D01*
X120935467Y-113609881D01*
X120941236Y-113597683D01*
X120948173Y-113586109D01*
X120956211Y-113575271D01*
X120965273Y-113565273D01*
X120975271Y-113556211D01*
X120986109Y-113548173D01*
X120997683Y-113541236D01*
X121009881Y-113535467D01*
X121022586Y-113530921D01*
X121035675Y-113527642D01*
X121049023Y-113525662D01*
X121062500Y-113525000D01*
X121337500Y-113525000D01*
X121350977Y-113525662D01*
X121350977Y-113525662D01*
G37*
D13*
G04 #@! TD*
G04 #@! TO.P,R1,1*
G04 #@! TO.N,/VIN*
X121200000Y-113800000D03*
D11*
G04 #@! TO.N,/OUT1*
G04 #@! TO.C,R2*
G36*
X119550977Y-113525662D02*
X119564325Y-113527642D01*
X119577414Y-113530921D01*
X119590119Y-113535467D01*
X119602317Y-113541236D01*
X119613891Y-113548173D01*
X119624729Y-113556211D01*
X119634727Y-113565273D01*
X119643789Y-113575271D01*
X119651827Y-113586109D01*
X119658764Y-113597683D01*
X119664533Y-113609881D01*
X119669079Y-113622586D01*
X119672358Y-113635675D01*
X119674338Y-113649023D01*
X119675000Y-113662500D01*
X119675000Y-113937500D01*
X119674338Y-113950977D01*
X119672358Y-113964325D01*
X119669079Y-113977414D01*
X119664533Y-113990119D01*
X119658764Y-114002317D01*
X119651827Y-114013891D01*
X119643789Y-114024729D01*
X119634727Y-114034727D01*
X119624729Y-114043789D01*
X119613891Y-114051827D01*
X119602317Y-114058764D01*
X119590119Y-114064533D01*
X119577414Y-114069079D01*
X119564325Y-114072358D01*
X119550977Y-114074338D01*
X119537500Y-114075000D01*
X119262500Y-114075000D01*
X119249023Y-114074338D01*
X119235675Y-114072358D01*
X119222586Y-114069079D01*
X119209881Y-114064533D01*
X119197683Y-114058764D01*
X119186109Y-114051827D01*
X119175271Y-114043789D01*
X119165273Y-114034727D01*
X119156211Y-114024729D01*
X119148173Y-114013891D01*
X119141236Y-114002317D01*
X119135467Y-113990119D01*
X119130921Y-113977414D01*
X119127642Y-113964325D01*
X119125662Y-113950977D01*
X119125000Y-113937500D01*
X119125000Y-113662500D01*
X119125662Y-113649023D01*
X119127642Y-113635675D01*
X119130921Y-113622586D01*
X119135467Y-113609881D01*
X119141236Y-113597683D01*
X119148173Y-113586109D01*
X119156211Y-113575271D01*
X119165273Y-113565273D01*
X119175271Y-113556211D01*
X119186109Y-113548173D01*
X119197683Y-113541236D01*
X119209881Y-113535467D01*
X119222586Y-113530921D01*
X119235675Y-113527642D01*
X119249023Y-113525662D01*
X119262500Y-113525000D01*
X119537500Y-113525000D01*
X119550977Y-113525662D01*
X119550977Y-113525662D01*
G37*
D13*
G04 #@! TD*
G04 #@! TO.P,R2,1*
G04 #@! TO.N,/OUT1*
X119400000Y-113800000D03*
D11*
G04 #@! TO.N,/FB1*
G04 #@! TO.C,R2*
G36*
X118750977Y-113525662D02*
X118764325Y-113527642D01*
X118777414Y-113530921D01*
X118790119Y-113535467D01*
X118802317Y-113541236D01*
X118813891Y-113548173D01*
X118824729Y-113556211D01*
X118834727Y-113565273D01*
X118843789Y-113575271D01*
X118851827Y-113586109D01*
X118858764Y-113597683D01*
X118864533Y-113609881D01*
X118869079Y-113622586D01*
X118872358Y-113635675D01*
X118874338Y-113649023D01*
X118875000Y-113662500D01*
X118875000Y-113937500D01*
X118874338Y-113950977D01*
X118872358Y-113964325D01*
X118869079Y-113977414D01*
X118864533Y-113990119D01*
X118858764Y-114002317D01*
X118851827Y-114013891D01*
X118843789Y-114024729D01*
X118834727Y-114034727D01*
X118824729Y-114043789D01*
X118813891Y-114051827D01*
X118802317Y-114058764D01*
X118790119Y-114064533D01*
X118777414Y-114069079D01*
X118764325Y-114072358D01*
X118750977Y-114074338D01*
X118737500Y-114075000D01*
X118462500Y-114075000D01*
X118449023Y-114074338D01*
X118435675Y-114072358D01*
X118422586Y-114069079D01*
X118409881Y-114064533D01*
X118397683Y-114058764D01*
X118386109Y-114051827D01*
X118375271Y-114043789D01*
X118365273Y-114034727D01*
X118356211Y-114024729D01*
X118348173Y-114013891D01*
X118341236Y-114002317D01*
X118335467Y-113990119D01*
X118330921Y-113977414D01*
X118327642Y-113964325D01*
X118325662Y-113950977D01*
X118325000Y-113937500D01*
X118325000Y-113662500D01*
X118325662Y-113649023D01*
X118327642Y-113635675D01*
X118330921Y-113622586D01*
X118335467Y-113609881D01*
X118341236Y-113597683D01*
X118348173Y-113586109D01*
X118356211Y-113575271D01*
X118365273Y-113565273D01*
X118375271Y-113556211D01*
X118386109Y-113548173D01*
X118397683Y-113541236D01*
X118409881Y-113535467D01*
X118422586Y-113530921D01*
X118435675Y-113527642D01*
X118449023Y-113525662D01*
X118462500Y-113525000D01*
X118737500Y-113525000D01*
X118750977Y-113525662D01*
X118750977Y-113525662D01*
G37*
D13*
G04 #@! TD*
G04 #@! TO.P,R2,2*
G04 #@! TO.N,/FB1*
X118600000Y-113800000D03*
D11*
G04 #@! TO.N,GND*
G04 #@! TO.C,R3*
G36*
X116950977Y-113525662D02*
X116964325Y-113527642D01*
X116977414Y-113530921D01*
X116990119Y-113535467D01*
X117002317Y-113541236D01*
X117013891Y-113548173D01*
X117024729Y-113556211D01*
X117034727Y-113565273D01*
X117043789Y-113575271D01*
X117051827Y-113586109D01*
X117058764Y-113597683D01*
X117064533Y-113609881D01*
X117069079Y-113622586D01*
X117072358Y-113635675D01*
X117074338Y-113649023D01*
X117075000Y-113662500D01*
X117075000Y-113937500D01*
X117074338Y-113950977D01*
X117072358Y-113964325D01*
X117069079Y-113977414D01*
X117064533Y-113990119D01*
X117058764Y-114002317D01*
X117051827Y-114013891D01*
X117043789Y-114024729D01*
X117034727Y-114034727D01*
X117024729Y-114043789D01*
X117013891Y-114051827D01*
X117002317Y-114058764D01*
X116990119Y-114064533D01*
X116977414Y-114069079D01*
X116964325Y-114072358D01*
X116950977Y-114074338D01*
X116937500Y-114075000D01*
X116662500Y-114075000D01*
X116649023Y-114074338D01*
X116635675Y-114072358D01*
X116622586Y-114069079D01*
X116609881Y-114064533D01*
X116597683Y-114058764D01*
X116586109Y-114051827D01*
X116575271Y-114043789D01*
X116565273Y-114034727D01*
X116556211Y-114024729D01*
X116548173Y-114013891D01*
X116541236Y-114002317D01*
X116535467Y-113990119D01*
X116530921Y-113977414D01*
X116527642Y-113964325D01*
X116525662Y-113950977D01*
X116525000Y-113937500D01*
X116525000Y-113662500D01*
X116525662Y-113649023D01*
X116527642Y-113635675D01*
X116530921Y-113622586D01*
X116535467Y-113609881D01*
X116541236Y-113597683D01*
X116548173Y-113586109D01*
X116556211Y-113575271D01*
X116565273Y-113565273D01*
X116575271Y-113556211D01*
X116586109Y-113548173D01*
X116597683Y-113541236D01*
X116609881Y-113535467D01*
X116622586Y-113530921D01*
X116635675Y-113527642D01*
X116649023Y-113525662D01*
X116662500Y-113525000D01*
X116937500Y-113525000D01*
X116950977Y-113525662D01*
X116950977Y-113525662D01*
G37*
D13*
G04 #@! TD*
G04 #@! TO.P,R3,2*
G04 #@! TO.N,GND*
X116800000Y-113800000D03*
D11*
G04 #@! TO.N,/FB1*
G04 #@! TO.C,R3*
G36*
X117750977Y-113525662D02*
X117764325Y-113527642D01*
X117777414Y-113530921D01*
X117790119Y-113535467D01*
X117802317Y-113541236D01*
X117813891Y-113548173D01*
X117824729Y-113556211D01*
X117834727Y-113565273D01*
X117843789Y-113575271D01*
X117851827Y-113586109D01*
X117858764Y-113597683D01*
X117864533Y-113609881D01*
X117869079Y-113622586D01*
X117872358Y-113635675D01*
X117874338Y-113649023D01*
X117875000Y-113662500D01*
X117875000Y-113937500D01*
X117874338Y-113950977D01*
X117872358Y-113964325D01*
X117869079Y-113977414D01*
X117864533Y-113990119D01*
X117858764Y-114002317D01*
X117851827Y-114013891D01*
X117843789Y-114024729D01*
X117834727Y-114034727D01*
X117824729Y-114043789D01*
X117813891Y-114051827D01*
X117802317Y-114058764D01*
X117790119Y-114064533D01*
X117777414Y-114069079D01*
X117764325Y-114072358D01*
X117750977Y-114074338D01*
X117737500Y-114075000D01*
X117462500Y-114075000D01*
X117449023Y-114074338D01*
X117435675Y-114072358D01*
X117422586Y-114069079D01*
X117409881Y-114064533D01*
X117397683Y-114058764D01*
X117386109Y-114051827D01*
X117375271Y-114043789D01*
X117365273Y-114034727D01*
X117356211Y-114024729D01*
X117348173Y-114013891D01*
X117341236Y-114002317D01*
X117335467Y-113990119D01*
X117330921Y-113977414D01*
X117327642Y-113964325D01*
X117325662Y-113950977D01*
X117325000Y-113937500D01*
X117325000Y-113662500D01*
X117325662Y-113649023D01*
X117327642Y-113635675D01*
X117330921Y-113622586D01*
X117335467Y-113609881D01*
X117341236Y-113597683D01*
X117348173Y-113586109D01*
X117356211Y-113575271D01*
X117365273Y-113565273D01*
X117375271Y-113556211D01*
X117386109Y-113548173D01*
X117397683Y-113541236D01*
X117409881Y-113535467D01*
X117422586Y-113530921D01*
X117435675Y-113527642D01*
X117449023Y-113525662D01*
X117462500Y-113525000D01*
X117737500Y-113525000D01*
X117750977Y-113525662D01*
X117750977Y-113525662D01*
G37*
D13*
G04 #@! TD*
G04 #@! TO.P,R3,1*
G04 #@! TO.N,/FB1*
X117600000Y-113800000D03*
D18*
G04 #@! TO.N,GND*
X116200000Y-118800000D03*
X117800000Y-118800000D03*
X117800000Y-117200000D03*
X116200000Y-117200000D03*
X120400000Y-115800000D03*
X121400000Y-115800000D03*
X122400000Y-115800000D03*
X120400000Y-118600000D03*
X121400000Y-118600000D03*
X122400000Y-118600000D03*
D19*
G04 #@! TO.N,/OUT1*
X119600000Y-119400000D03*
X119704381Y-114499779D03*
G04 #@! TD*
D20*
G04 #@! TO.N,/VIN*
X115095000Y-119895000D02*
X115095000Y-120700000D01*
X114024990Y-118824990D02*
X115095000Y-119895000D01*
X114400000Y-111400000D02*
X114024990Y-111775010D01*
X114024990Y-111775010D02*
X114024990Y-112400000D01*
X114024990Y-112400000D02*
X114024990Y-118824990D01*
X114600000Y-111200000D02*
X114400000Y-111400000D01*
X114775010Y-111024990D02*
X114600000Y-111200000D01*
X114024990Y-112400000D02*
X116200000Y-112400000D01*
D21*
X121200000Y-113425000D02*
X120875000Y-113100000D01*
X121200000Y-113800000D02*
X121200000Y-113425000D01*
X116900000Y-113100000D02*
X116200000Y-112400000D01*
X120875000Y-113100000D02*
X116900000Y-113100000D01*
D22*
G04 #@! TO.N,GND*
X114800000Y-132000000D02*
X114400000Y-132400000D01*
X116700000Y-132000000D02*
X114800000Y-132000000D01*
D21*
G04 #@! TO.N,/FB1*
X117635000Y-113835000D02*
X117600000Y-113800000D01*
X117635000Y-115300000D02*
X117635000Y-113835000D01*
X117600000Y-113800000D02*
X118600000Y-113800000D01*
G04 #@! TO.N,/OUT1*
X120800000Y-119400000D02*
X121400000Y-120000000D01*
X119600000Y-119400000D02*
X120800000Y-119400000D01*
X119400000Y-113800000D02*
X119400000Y-114195398D01*
X119400000Y-114195398D02*
X119404382Y-114199780D01*
X119404382Y-114199780D02*
X119704381Y-114499779D01*
X121500000Y-132000000D02*
X121900000Y-132400000D01*
X119500000Y-132000000D02*
X121500000Y-132000000D01*
G04 #@! TO.N,/EN1*
X120400000Y-114700000D02*
X120400000Y-113800000D01*
X118905000Y-115300000D02*
X119800000Y-115300000D01*
X119800000Y-115300000D02*
X120400000Y-114700000D01*
G04 #@! TO.N,Net-(C1-Pad2)*
X118905000Y-121105000D02*
X118905000Y-120700000D01*
X120200000Y-121400000D02*
X119200000Y-121400000D01*
X119200000Y-121400000D02*
X118905000Y-121105000D01*
G04 #@! TO.N,/SW1*
X117635000Y-122000010D02*
X117635000Y-120700000D01*
X120774990Y-122000010D02*
X117635000Y-122000010D01*
X121000000Y-121400000D02*
X121000000Y-121775000D01*
X121000000Y-121775000D02*
X120774990Y-122000010D01*
G04 #@! TO.N,/VCC1*
X116365000Y-114365000D02*
X116365000Y-115300000D01*
X115800000Y-113800000D02*
X116365000Y-114365000D01*
G04 #@! TD*
D23*
G04 #@! TO.N,/OUT1*
G36*
X122900000Y-133300000D02*
X120100000Y-133300000D01*
X120100000Y-130500000D01*
X120092388Y-130461732D01*
X120070711Y-130429289D01*
X118700000Y-129058578D01*
X118700000Y-122425010D01*
X120733133Y-122425010D01*
X120774990Y-122433336D01*
X120816847Y-122425010D01*
X120816848Y-122425010D01*
X120940817Y-122400351D01*
X121081398Y-122306418D01*
X121105111Y-122270929D01*
X121270919Y-122105121D01*
X121306408Y-122081408D01*
X121400341Y-121940827D01*
X121413177Y-121876298D01*
X121451015Y-121851015D01*
X121547127Y-121707173D01*
X121580877Y-121537500D01*
X121580877Y-121262500D01*
X121547127Y-121092827D01*
X121451015Y-120948985D01*
X121307173Y-120852873D01*
X121137500Y-120819123D01*
X120862500Y-120819123D01*
X120692827Y-120852873D01*
X120600000Y-120914898D01*
X120507173Y-120852873D01*
X120337500Y-120819123D01*
X120062500Y-120819123D01*
X119892827Y-120852873D01*
X119748985Y-120948985D01*
X119731602Y-120975000D01*
X119510877Y-120975000D01*
X119510877Y-119925000D01*
X119487593Y-119807946D01*
X119421288Y-119708712D01*
X119322054Y-119642407D01*
X119205000Y-119619123D01*
X118700000Y-119619123D01*
X118700000Y-119300000D01*
X122900000Y-119300000D01*
X122900000Y-133300000D01*
X122900000Y-133300000D01*
G37*
X122900000Y-133300000D02*
X120100000Y-133300000D01*
X120100000Y-130500000D01*
X120092388Y-130461732D01*
X120070711Y-130429289D01*
X118700000Y-129058578D01*
X118700000Y-122425010D01*
X120733133Y-122425010D01*
X120774990Y-122433336D01*
X120816847Y-122425010D01*
X120816848Y-122425010D01*
X120940817Y-122400351D01*
X121081398Y-122306418D01*
X121105111Y-122270929D01*
X121270919Y-122105121D01*
X121306408Y-122081408D01*
X121400341Y-121940827D01*
X121413177Y-121876298D01*
X121451015Y-121851015D01*
X121547127Y-121707173D01*
X121580877Y-121537500D01*
X121580877Y-121262500D01*
X121547127Y-121092827D01*
X121451015Y-120948985D01*
X121307173Y-120852873D01*
X121137500Y-120819123D01*
X120862500Y-120819123D01*
X120692827Y-120852873D01*
X120600000Y-120914898D01*
X120507173Y-120852873D01*
X120337500Y-120819123D01*
X120062500Y-120819123D01*
X119892827Y-120852873D01*
X119748985Y-120948985D01*
X119731602Y-120975000D01*
X119510877Y-120975000D01*
X119510877Y-119925000D01*
X119487593Y-119807946D01*
X119421288Y-119708712D01*
X119322054Y-119642407D01*
X119205000Y-119619123D01*
X118700000Y-119619123D01*
X118700000Y-119300000D01*
X122900000Y-119300000D01*
X122900000Y-133300000D01*
G04 #@! TO.N,/SW1*
G36*
X118100000Y-127500000D02*
X114300000Y-127500000D01*
X114300000Y-123441422D01*
X115870711Y-121870711D01*
X115892388Y-121838268D01*
X115900000Y-121800000D01*
X115900000Y-119948648D01*
X115909676Y-119900000D01*
X118100000Y-119900000D01*
X118100000Y-127500000D01*
X118100000Y-127500000D01*
G37*
X118100000Y-127500000D02*
X114300000Y-127500000D01*
X114300000Y-123441422D01*
X115870711Y-121870711D01*
X115892388Y-121838268D01*
X115900000Y-121800000D01*
X115900000Y-119948648D01*
X115909676Y-119900000D01*
X118100000Y-119900000D01*
X118100000Y-127500000D01*
G04 #@! TO.N,GND*
G36*
X122900000Y-118900000D02*
X119948529Y-118900000D01*
X119939873Y-118891344D01*
X119719347Y-118800000D01*
X119480653Y-118800000D01*
X119260127Y-118891344D01*
X119251471Y-118900000D01*
X118600000Y-118900000D01*
X118485195Y-118922836D01*
X118387868Y-118987868D01*
X118322836Y-119085195D01*
X118300000Y-119200000D01*
X118300000Y-119300000D01*
X115644479Y-119300000D01*
X115604972Y-119273602D01*
X114824990Y-118493620D01*
X114824990Y-113662500D01*
X115219123Y-113662500D01*
X115219123Y-113937500D01*
X115252873Y-114107173D01*
X115348985Y-114251015D01*
X115492827Y-114347127D01*
X115662500Y-114380877D01*
X115779837Y-114380877D01*
X115792220Y-114393260D01*
X115782407Y-114407946D01*
X115759123Y-114525000D01*
X115759123Y-116075000D01*
X115782407Y-116192054D01*
X115848712Y-116291288D01*
X115947946Y-116357593D01*
X116065000Y-116380877D01*
X116665000Y-116380877D01*
X116782054Y-116357593D01*
X116881288Y-116291288D01*
X116947593Y-116192054D01*
X116970877Y-116075000D01*
X116970877Y-114525000D01*
X116947593Y-114407946D01*
X116881288Y-114308712D01*
X116782054Y-114242407D01*
X116773607Y-114240727D01*
X116765341Y-114199173D01*
X116726743Y-114141407D01*
X116671408Y-114058592D01*
X116635922Y-114034882D01*
X116380877Y-113779837D01*
X116380877Y-113662500D01*
X116347127Y-113492827D01*
X116251015Y-113348985D01*
X116107173Y-113252873D01*
X115937500Y-113219123D01*
X115662500Y-113219123D01*
X115492827Y-113252873D01*
X115348985Y-113348985D01*
X115252873Y-113492827D01*
X115219123Y-113662500D01*
X114824990Y-113662500D01*
X114824990Y-113200000D01*
X116278789Y-113200000D01*
X116379022Y-113180063D01*
X116569881Y-113370922D01*
X116593592Y-113406408D01*
X116734173Y-113500341D01*
X116858142Y-113525000D01*
X116858143Y-113525000D01*
X116899999Y-113533326D01*
X116941855Y-113525000D01*
X117046473Y-113525000D01*
X117019123Y-113662500D01*
X117019123Y-113937500D01*
X117052873Y-114107173D01*
X117148985Y-114251015D01*
X117177024Y-114269750D01*
X117118712Y-114308712D01*
X117052407Y-114407946D01*
X117029123Y-114525000D01*
X117029123Y-116075000D01*
X117052407Y-116192054D01*
X117118712Y-116291288D01*
X117217946Y-116357593D01*
X117335000Y-116380877D01*
X117935000Y-116380877D01*
X118052054Y-116357593D01*
X118151288Y-116291288D01*
X118217593Y-116192054D01*
X118240877Y-116075000D01*
X118240877Y-114525000D01*
X118217593Y-114407946D01*
X118151288Y-114308712D01*
X118060000Y-114247716D01*
X118060000Y-114237568D01*
X118068398Y-114225000D01*
X118131602Y-114225000D01*
X118148985Y-114251015D01*
X118292827Y-114347127D01*
X118354807Y-114359456D01*
X118322407Y-114407946D01*
X118299123Y-114525000D01*
X118299123Y-116075000D01*
X118322407Y-116192054D01*
X118388712Y-116291288D01*
X118487946Y-116357593D01*
X118605000Y-116380877D01*
X119205000Y-116380877D01*
X119322054Y-116357593D01*
X119421288Y-116291288D01*
X119487593Y-116192054D01*
X119510877Y-116075000D01*
X119510877Y-115725000D01*
X119758143Y-115725000D01*
X119800000Y-115733326D01*
X119841857Y-115725000D01*
X119841858Y-115725000D01*
X119965827Y-115700341D01*
X120106408Y-115606408D01*
X120130121Y-115570919D01*
X120670922Y-115030118D01*
X120706408Y-115006408D01*
X120800341Y-114865827D01*
X120825000Y-114741858D01*
X120825000Y-114741857D01*
X120833326Y-114700001D01*
X120825000Y-114658143D01*
X120825000Y-114301807D01*
X120892827Y-114347127D01*
X121062500Y-114380877D01*
X121337500Y-114380877D01*
X121507173Y-114347127D01*
X121651015Y-114251015D01*
X121747127Y-114107173D01*
X121780877Y-113937500D01*
X121780877Y-113662500D01*
X121747127Y-113492827D01*
X121651015Y-113348985D01*
X121613177Y-113323702D01*
X121600341Y-113259173D01*
X121506408Y-113118592D01*
X121470922Y-113094881D01*
X121205120Y-112829080D01*
X121181408Y-112793592D01*
X121040827Y-112699659D01*
X120916858Y-112675000D01*
X120916857Y-112675000D01*
X120875000Y-112666674D01*
X120833143Y-112675000D01*
X117076041Y-112675000D01*
X116980063Y-112579022D01*
X117015672Y-112400000D01*
X116980877Y-112225073D01*
X116980877Y-111362500D01*
X116939515Y-111154559D01*
X116821726Y-110978274D01*
X116645441Y-110860485D01*
X116437500Y-110819123D01*
X115962500Y-110819123D01*
X115754559Y-110860485D01*
X115581024Y-110976436D01*
X115555877Y-110850013D01*
X115555877Y-110550000D01*
X115532593Y-110432946D01*
X115510580Y-110400000D01*
X122900000Y-110400000D01*
X122900000Y-118900000D01*
X122900000Y-118900000D01*
G37*
X122900000Y-118900000D02*
X119948529Y-118900000D01*
X119939873Y-118891344D01*
X119719347Y-118800000D01*
X119480653Y-118800000D01*
X119260127Y-118891344D01*
X119251471Y-118900000D01*
X118600000Y-118900000D01*
X118485195Y-118922836D01*
X118387868Y-118987868D01*
X118322836Y-119085195D01*
X118300000Y-119200000D01*
X118300000Y-119300000D01*
X115644479Y-119300000D01*
X115604972Y-119273602D01*
X114824990Y-118493620D01*
X114824990Y-113662500D01*
X115219123Y-113662500D01*
X115219123Y-113937500D01*
X115252873Y-114107173D01*
X115348985Y-114251015D01*
X115492827Y-114347127D01*
X115662500Y-114380877D01*
X115779837Y-114380877D01*
X115792220Y-114393260D01*
X115782407Y-114407946D01*
X115759123Y-114525000D01*
X115759123Y-116075000D01*
X115782407Y-116192054D01*
X115848712Y-116291288D01*
X115947946Y-116357593D01*
X116065000Y-116380877D01*
X116665000Y-116380877D01*
X116782054Y-116357593D01*
X116881288Y-116291288D01*
X116947593Y-116192054D01*
X116970877Y-116075000D01*
X116970877Y-114525000D01*
X116947593Y-114407946D01*
X116881288Y-114308712D01*
X116782054Y-114242407D01*
X116773607Y-114240727D01*
X116765341Y-114199173D01*
X116726743Y-114141407D01*
X116671408Y-114058592D01*
X116635922Y-114034882D01*
X116380877Y-113779837D01*
X116380877Y-113662500D01*
X116347127Y-113492827D01*
X116251015Y-113348985D01*
X116107173Y-113252873D01*
X115937500Y-113219123D01*
X115662500Y-113219123D01*
X115492827Y-113252873D01*
X115348985Y-113348985D01*
X115252873Y-113492827D01*
X115219123Y-113662500D01*
X114824990Y-113662500D01*
X114824990Y-113200000D01*
X116278789Y-113200000D01*
X116379022Y-113180063D01*
X116569881Y-113370922D01*
X116593592Y-113406408D01*
X116734173Y-113500341D01*
X116858142Y-113525000D01*
X116858143Y-113525000D01*
X116899999Y-113533326D01*
X116941855Y-113525000D01*
X117046473Y-113525000D01*
X117019123Y-113662500D01*
X117019123Y-113937500D01*
X117052873Y-114107173D01*
X117148985Y-114251015D01*
X117177024Y-114269750D01*
X117118712Y-114308712D01*
X117052407Y-114407946D01*
X117029123Y-114525000D01*
X117029123Y-116075000D01*
X117052407Y-116192054D01*
X117118712Y-116291288D01*
X117217946Y-116357593D01*
X117335000Y-116380877D01*
X117935000Y-116380877D01*
X118052054Y-116357593D01*
X118151288Y-116291288D01*
X118217593Y-116192054D01*
X118240877Y-116075000D01*
X118240877Y-114525000D01*
X118217593Y-114407946D01*
X118151288Y-114308712D01*
X118060000Y-114247716D01*
X118060000Y-114237568D01*
X118068398Y-114225000D01*
X118131602Y-114225000D01*
X118148985Y-114251015D01*
X118292827Y-114347127D01*
X118354807Y-114359456D01*
X118322407Y-114407946D01*
X118299123Y-114525000D01*
X118299123Y-116075000D01*
X118322407Y-116192054D01*
X118388712Y-116291288D01*
X118487946Y-116357593D01*
X118605000Y-116380877D01*
X119205000Y-116380877D01*
X119322054Y-116357593D01*
X119421288Y-116291288D01*
X119487593Y-116192054D01*
X119510877Y-116075000D01*
X119510877Y-115725000D01*
X119758143Y-115725000D01*
X119800000Y-115733326D01*
X119841857Y-115725000D01*
X119841858Y-115725000D01*
X119965827Y-115700341D01*
X120106408Y-115606408D01*
X120130121Y-115570919D01*
X120670922Y-115030118D01*
X120706408Y-115006408D01*
X120800341Y-114865827D01*
X120825000Y-114741858D01*
X120825000Y-114741857D01*
X120833326Y-114700001D01*
X120825000Y-114658143D01*
X120825000Y-114301807D01*
X120892827Y-114347127D01*
X121062500Y-114380877D01*
X121337500Y-114380877D01*
X121507173Y-114347127D01*
X121651015Y-114251015D01*
X121747127Y-114107173D01*
X121780877Y-113937500D01*
X121780877Y-113662500D01*
X121747127Y-113492827D01*
X121651015Y-113348985D01*
X121613177Y-113323702D01*
X121600341Y-113259173D01*
X121506408Y-113118592D01*
X121470922Y-113094881D01*
X121205120Y-112829080D01*
X121181408Y-112793592D01*
X121040827Y-112699659D01*
X120916858Y-112675000D01*
X120916857Y-112675000D01*
X120875000Y-112666674D01*
X120833143Y-112675000D01*
X117076041Y-112675000D01*
X116980063Y-112579022D01*
X117015672Y-112400000D01*
X116980877Y-112225073D01*
X116980877Y-111362500D01*
X116939515Y-111154559D01*
X116821726Y-110978274D01*
X116645441Y-110860485D01*
X116437500Y-110819123D01*
X115962500Y-110819123D01*
X115754559Y-110860485D01*
X115581024Y-110976436D01*
X115555877Y-110850013D01*
X115555877Y-110550000D01*
X115532593Y-110432946D01*
X115510580Y-110400000D01*
X122900000Y-110400000D01*
X122900000Y-118900000D01*
G04 #@! TD*
M02*
