G04 #@! TF.GenerationSoftware,KiCad,Pcbnew,5.1.0-060a0da~80~ubuntu18.04.1*
G04 #@! TF.CreationDate,2019-03-24T22:45:50+01:00*
G04 #@! TF.ProjectId,mav_psu,6d61765f-7073-4752-9e6b-696361645f70,rev?*
G04 #@! TF.SameCoordinates,Original*
G04 #@! TF.FileFunction,Legend,Top*
G04 #@! TF.FilePolarity,Positive*
%FSLAX46Y46*%
G04 Gerber Fmt 4.6, Leading zero omitted, Abs format (unit mm)*
G04 Created by KiCad (PCBNEW 5.1.0-060a0da~80~ubuntu18.04.1) date 2019-03-24 22:45:50*
%MOMM*%
%LPD*%
G04 APERTURE LIST*
%ADD10C,0.200000*%
%ADD11C,0.120000*%
%ADD12C,0.150000*%
%ADD13C,0.100000*%
%ADD14C,1.700000*%
%ADD15C,1.050000*%
%ADD16C,0.800000*%
%ADD17C,1.600000*%
%ADD18C,1.350000*%
%ADD19R,2.450000X2.450000*%
%ADD20R,0.700000X1.650000*%
G04 APERTURE END LIST*
D10*
X114000000Y-130500000D02*
X114000000Y-127800000D01*
X122800000Y-130500000D02*
X114000000Y-130500000D01*
X122800000Y-127800000D02*
X122800000Y-130500000D01*
X122800000Y-121700000D02*
X122800000Y-124400000D01*
X114000000Y-121700000D02*
X122800000Y-121700000D01*
X114000000Y-124400000D02*
X114000000Y-121700000D01*
X114700000Y-116300000D02*
X113300000Y-116300000D01*
X113300000Y-119200000D02*
X114700000Y-119200000D01*
X116300000Y-113500000D02*
X116300000Y-112700000D01*
X118700000Y-113500000D02*
X118700000Y-112700000D01*
X118700000Y-112300000D02*
X118700000Y-111500000D01*
X116300000Y-112300000D02*
X116300000Y-111500000D01*
X121100000Y-121400000D02*
X121100000Y-120600000D01*
D11*
X118702064Y-130840000D02*
X117497936Y-130840000D01*
X118702064Y-133560000D02*
X117497936Y-133560000D01*
X123160000Y-118702064D02*
X123160000Y-117497936D01*
X120440000Y-118702064D02*
X120440000Y-117497936D01*
D12*
X114975000Y-119575000D02*
X114975000Y-120975000D01*
X120075000Y-119575000D02*
X120075000Y-115425000D01*
X114925000Y-119575000D02*
X114925000Y-115425000D01*
X120075000Y-119575000D02*
X119930000Y-119575000D01*
X120075000Y-115425000D02*
X119930000Y-115425000D01*
X114925000Y-115425000D02*
X115070000Y-115425000D01*
X114925000Y-119575000D02*
X114975000Y-119575000D01*
D13*
X118275000Y-127646428D02*
X117989285Y-127646428D01*
X117989285Y-127046428D01*
X118789285Y-127646428D02*
X118446428Y-127646428D01*
X118617857Y-127646428D02*
X118617857Y-127046428D01*
X118560714Y-127132142D01*
X118503571Y-127189285D01*
X118446428Y-127217857D01*
%LPC*%
G36*
X122266657Y-124552046D02*
G01*
X122307913Y-124558166D01*
X122348371Y-124568300D01*
X122387640Y-124582351D01*
X122425344Y-124600183D01*
X122461117Y-124621625D01*
X122494617Y-124646471D01*
X122525520Y-124674480D01*
X122553529Y-124705383D01*
X122578375Y-124738883D01*
X122599817Y-124774656D01*
X122617649Y-124812360D01*
X122631700Y-124851629D01*
X122641834Y-124892087D01*
X122647954Y-124933343D01*
X122650000Y-124975000D01*
X122650000Y-127225000D01*
X122647954Y-127266657D01*
X122641834Y-127307913D01*
X122631700Y-127348371D01*
X122617649Y-127387640D01*
X122599817Y-127425344D01*
X122578375Y-127461117D01*
X122553529Y-127494617D01*
X122525520Y-127525520D01*
X122494617Y-127553529D01*
X122461117Y-127578375D01*
X122425344Y-127599817D01*
X122387640Y-127617649D01*
X122348371Y-127631700D01*
X122307913Y-127641834D01*
X122266657Y-127647954D01*
X122225000Y-127650000D01*
X121375000Y-127650000D01*
X121333343Y-127647954D01*
X121292087Y-127641834D01*
X121251629Y-127631700D01*
X121212360Y-127617649D01*
X121174656Y-127599817D01*
X121138883Y-127578375D01*
X121105383Y-127553529D01*
X121074480Y-127525520D01*
X121046471Y-127494617D01*
X121021625Y-127461117D01*
X121000183Y-127425344D01*
X120982351Y-127387640D01*
X120968300Y-127348371D01*
X120958166Y-127307913D01*
X120952046Y-127266657D01*
X120950000Y-127225000D01*
X120950000Y-124975000D01*
X120952046Y-124933343D01*
X120958166Y-124892087D01*
X120968300Y-124851629D01*
X120982351Y-124812360D01*
X121000183Y-124774656D01*
X121021625Y-124738883D01*
X121046471Y-124705383D01*
X121074480Y-124674480D01*
X121105383Y-124646471D01*
X121138883Y-124621625D01*
X121174656Y-124600183D01*
X121212360Y-124582351D01*
X121251629Y-124568300D01*
X121292087Y-124558166D01*
X121333343Y-124552046D01*
X121375000Y-124550000D01*
X122225000Y-124550000D01*
X122266657Y-124552046D01*
X122266657Y-124552046D01*
G37*
D14*
X121800000Y-126100000D03*
D13*
G36*
X115466657Y-124552046D02*
G01*
X115507913Y-124558166D01*
X115548371Y-124568300D01*
X115587640Y-124582351D01*
X115625344Y-124600183D01*
X115661117Y-124621625D01*
X115694617Y-124646471D01*
X115725520Y-124674480D01*
X115753529Y-124705383D01*
X115778375Y-124738883D01*
X115799817Y-124774656D01*
X115817649Y-124812360D01*
X115831700Y-124851629D01*
X115841834Y-124892087D01*
X115847954Y-124933343D01*
X115850000Y-124975000D01*
X115850000Y-127225000D01*
X115847954Y-127266657D01*
X115841834Y-127307913D01*
X115831700Y-127348371D01*
X115817649Y-127387640D01*
X115799817Y-127425344D01*
X115778375Y-127461117D01*
X115753529Y-127494617D01*
X115725520Y-127525520D01*
X115694617Y-127553529D01*
X115661117Y-127578375D01*
X115625344Y-127599817D01*
X115587640Y-127617649D01*
X115548371Y-127631700D01*
X115507913Y-127641834D01*
X115466657Y-127647954D01*
X115425000Y-127650000D01*
X114575000Y-127650000D01*
X114533343Y-127647954D01*
X114492087Y-127641834D01*
X114451629Y-127631700D01*
X114412360Y-127617649D01*
X114374656Y-127599817D01*
X114338883Y-127578375D01*
X114305383Y-127553529D01*
X114274480Y-127525520D01*
X114246471Y-127494617D01*
X114221625Y-127461117D01*
X114200183Y-127425344D01*
X114182351Y-127387640D01*
X114168300Y-127348371D01*
X114158166Y-127307913D01*
X114152046Y-127266657D01*
X114150000Y-127225000D01*
X114150000Y-124975000D01*
X114152046Y-124933343D01*
X114158166Y-124892087D01*
X114168300Y-124851629D01*
X114182351Y-124812360D01*
X114200183Y-124774656D01*
X114221625Y-124738883D01*
X114246471Y-124705383D01*
X114274480Y-124674480D01*
X114305383Y-124646471D01*
X114338883Y-124621625D01*
X114374656Y-124600183D01*
X114412360Y-124582351D01*
X114451629Y-124568300D01*
X114492087Y-124558166D01*
X114533343Y-124552046D01*
X114575000Y-124550000D01*
X115425000Y-124550000D01*
X115466657Y-124552046D01*
X115466657Y-124552046D01*
G37*
D14*
X115000000Y-126100000D03*
D13*
G36*
X114488229Y-116576264D02*
G01*
X114513711Y-116580044D01*
X114538700Y-116586303D01*
X114562954Y-116594982D01*
X114586242Y-116605996D01*
X114608337Y-116619239D01*
X114629028Y-116634585D01*
X114648116Y-116651884D01*
X114665415Y-116670972D01*
X114680761Y-116691663D01*
X114694004Y-116713758D01*
X114705018Y-116737046D01*
X114713697Y-116761300D01*
X114719956Y-116786289D01*
X114723736Y-116811771D01*
X114725000Y-116837500D01*
X114725000Y-117362500D01*
X114723736Y-117388229D01*
X114719956Y-117413711D01*
X114713697Y-117438700D01*
X114705018Y-117462954D01*
X114694004Y-117486242D01*
X114680761Y-117508337D01*
X114665415Y-117529028D01*
X114648116Y-117548116D01*
X114629028Y-117565415D01*
X114608337Y-117580761D01*
X114586242Y-117594004D01*
X114562954Y-117605018D01*
X114538700Y-117613697D01*
X114513711Y-117619956D01*
X114488229Y-117623736D01*
X114462500Y-117625000D01*
X113537500Y-117625000D01*
X113511771Y-117623736D01*
X113486289Y-117619956D01*
X113461300Y-117613697D01*
X113437046Y-117605018D01*
X113413758Y-117594004D01*
X113391663Y-117580761D01*
X113370972Y-117565415D01*
X113351884Y-117548116D01*
X113334585Y-117529028D01*
X113319239Y-117508337D01*
X113305996Y-117486242D01*
X113294982Y-117462954D01*
X113286303Y-117438700D01*
X113280044Y-117413711D01*
X113276264Y-117388229D01*
X113275000Y-117362500D01*
X113275000Y-116837500D01*
X113276264Y-116811771D01*
X113280044Y-116786289D01*
X113286303Y-116761300D01*
X113294982Y-116737046D01*
X113305996Y-116713758D01*
X113319239Y-116691663D01*
X113334585Y-116670972D01*
X113351884Y-116651884D01*
X113370972Y-116634585D01*
X113391663Y-116619239D01*
X113413758Y-116605996D01*
X113437046Y-116594982D01*
X113461300Y-116586303D01*
X113486289Y-116580044D01*
X113511771Y-116576264D01*
X113537500Y-116575000D01*
X114462500Y-116575000D01*
X114488229Y-116576264D01*
X114488229Y-116576264D01*
G37*
D15*
X114000000Y-117100000D03*
D13*
G36*
X114488229Y-114976264D02*
G01*
X114513711Y-114980044D01*
X114538700Y-114986303D01*
X114562954Y-114994982D01*
X114586242Y-115005996D01*
X114608337Y-115019239D01*
X114629028Y-115034585D01*
X114648116Y-115051884D01*
X114665415Y-115070972D01*
X114680761Y-115091663D01*
X114694004Y-115113758D01*
X114705018Y-115137046D01*
X114713697Y-115161300D01*
X114719956Y-115186289D01*
X114723736Y-115211771D01*
X114725000Y-115237500D01*
X114725000Y-115762500D01*
X114723736Y-115788229D01*
X114719956Y-115813711D01*
X114713697Y-115838700D01*
X114705018Y-115862954D01*
X114694004Y-115886242D01*
X114680761Y-115908337D01*
X114665415Y-115929028D01*
X114648116Y-115948116D01*
X114629028Y-115965415D01*
X114608337Y-115980761D01*
X114586242Y-115994004D01*
X114562954Y-116005018D01*
X114538700Y-116013697D01*
X114513711Y-116019956D01*
X114488229Y-116023736D01*
X114462500Y-116025000D01*
X113537500Y-116025000D01*
X113511771Y-116023736D01*
X113486289Y-116019956D01*
X113461300Y-116013697D01*
X113437046Y-116005018D01*
X113413758Y-115994004D01*
X113391663Y-115980761D01*
X113370972Y-115965415D01*
X113351884Y-115948116D01*
X113334585Y-115929028D01*
X113319239Y-115908337D01*
X113305996Y-115886242D01*
X113294982Y-115862954D01*
X113286303Y-115838700D01*
X113280044Y-115813711D01*
X113276264Y-115788229D01*
X113275000Y-115762500D01*
X113275000Y-115237500D01*
X113276264Y-115211771D01*
X113280044Y-115186289D01*
X113286303Y-115161300D01*
X113294982Y-115137046D01*
X113305996Y-115113758D01*
X113319239Y-115091663D01*
X113334585Y-115070972D01*
X113351884Y-115051884D01*
X113370972Y-115034585D01*
X113391663Y-115019239D01*
X113413758Y-115005996D01*
X113437046Y-114994982D01*
X113461300Y-114986303D01*
X113486289Y-114980044D01*
X113511771Y-114976264D01*
X113537500Y-114975000D01*
X114462500Y-114975000D01*
X114488229Y-114976264D01*
X114488229Y-114976264D01*
G37*
D15*
X114000000Y-115500000D03*
D13*
G36*
X114488229Y-117876264D02*
G01*
X114513711Y-117880044D01*
X114538700Y-117886303D01*
X114562954Y-117894982D01*
X114586242Y-117905996D01*
X114608337Y-117919239D01*
X114629028Y-117934585D01*
X114648116Y-117951884D01*
X114665415Y-117970972D01*
X114680761Y-117991663D01*
X114694004Y-118013758D01*
X114705018Y-118037046D01*
X114713697Y-118061300D01*
X114719956Y-118086289D01*
X114723736Y-118111771D01*
X114725000Y-118137500D01*
X114725000Y-118662500D01*
X114723736Y-118688229D01*
X114719956Y-118713711D01*
X114713697Y-118738700D01*
X114705018Y-118762954D01*
X114694004Y-118786242D01*
X114680761Y-118808337D01*
X114665415Y-118829028D01*
X114648116Y-118848116D01*
X114629028Y-118865415D01*
X114608337Y-118880761D01*
X114586242Y-118894004D01*
X114562954Y-118905018D01*
X114538700Y-118913697D01*
X114513711Y-118919956D01*
X114488229Y-118923736D01*
X114462500Y-118925000D01*
X113537500Y-118925000D01*
X113511771Y-118923736D01*
X113486289Y-118919956D01*
X113461300Y-118913697D01*
X113437046Y-118905018D01*
X113413758Y-118894004D01*
X113391663Y-118880761D01*
X113370972Y-118865415D01*
X113351884Y-118848116D01*
X113334585Y-118829028D01*
X113319239Y-118808337D01*
X113305996Y-118786242D01*
X113294982Y-118762954D01*
X113286303Y-118738700D01*
X113280044Y-118713711D01*
X113276264Y-118688229D01*
X113275000Y-118662500D01*
X113275000Y-118137500D01*
X113276264Y-118111771D01*
X113280044Y-118086289D01*
X113286303Y-118061300D01*
X113294982Y-118037046D01*
X113305996Y-118013758D01*
X113319239Y-117991663D01*
X113334585Y-117970972D01*
X113351884Y-117951884D01*
X113370972Y-117934585D01*
X113391663Y-117919239D01*
X113413758Y-117905996D01*
X113437046Y-117894982D01*
X113461300Y-117886303D01*
X113486289Y-117880044D01*
X113511771Y-117876264D01*
X113537500Y-117875000D01*
X114462500Y-117875000D01*
X114488229Y-117876264D01*
X114488229Y-117876264D01*
G37*
D15*
X114000000Y-118400000D03*
D13*
G36*
X114488229Y-119476264D02*
G01*
X114513711Y-119480044D01*
X114538700Y-119486303D01*
X114562954Y-119494982D01*
X114586242Y-119505996D01*
X114608337Y-119519239D01*
X114629028Y-119534585D01*
X114648116Y-119551884D01*
X114665415Y-119570972D01*
X114680761Y-119591663D01*
X114694004Y-119613758D01*
X114705018Y-119637046D01*
X114713697Y-119661300D01*
X114719956Y-119686289D01*
X114723736Y-119711771D01*
X114725000Y-119737500D01*
X114725000Y-120262500D01*
X114723736Y-120288229D01*
X114719956Y-120313711D01*
X114713697Y-120338700D01*
X114705018Y-120362954D01*
X114694004Y-120386242D01*
X114680761Y-120408337D01*
X114665415Y-120429028D01*
X114648116Y-120448116D01*
X114629028Y-120465415D01*
X114608337Y-120480761D01*
X114586242Y-120494004D01*
X114562954Y-120505018D01*
X114538700Y-120513697D01*
X114513711Y-120519956D01*
X114488229Y-120523736D01*
X114462500Y-120525000D01*
X113537500Y-120525000D01*
X113511771Y-120523736D01*
X113486289Y-120519956D01*
X113461300Y-120513697D01*
X113437046Y-120505018D01*
X113413758Y-120494004D01*
X113391663Y-120480761D01*
X113370972Y-120465415D01*
X113351884Y-120448116D01*
X113334585Y-120429028D01*
X113319239Y-120408337D01*
X113305996Y-120386242D01*
X113294982Y-120362954D01*
X113286303Y-120338700D01*
X113280044Y-120313711D01*
X113276264Y-120288229D01*
X113275000Y-120262500D01*
X113275000Y-119737500D01*
X113276264Y-119711771D01*
X113280044Y-119686289D01*
X113286303Y-119661300D01*
X113294982Y-119637046D01*
X113305996Y-119613758D01*
X113319239Y-119591663D01*
X113334585Y-119570972D01*
X113351884Y-119551884D01*
X113370972Y-119534585D01*
X113391663Y-119519239D01*
X113413758Y-119505996D01*
X113437046Y-119494982D01*
X113461300Y-119486303D01*
X113486289Y-119480044D01*
X113511771Y-119476264D01*
X113537500Y-119475000D01*
X114462500Y-119475000D01*
X114488229Y-119476264D01*
X114488229Y-119476264D01*
G37*
D15*
X114000000Y-120000000D03*
D13*
G36*
X115869603Y-112625963D02*
G01*
X115889018Y-112628843D01*
X115908057Y-112633612D01*
X115926537Y-112640224D01*
X115944279Y-112648616D01*
X115961114Y-112658706D01*
X115976879Y-112670398D01*
X115991421Y-112683579D01*
X116004602Y-112698121D01*
X116016294Y-112713886D01*
X116026384Y-112730721D01*
X116034776Y-112748463D01*
X116041388Y-112766943D01*
X116046157Y-112785982D01*
X116049037Y-112805397D01*
X116050000Y-112825000D01*
X116050000Y-113375000D01*
X116049037Y-113394603D01*
X116046157Y-113414018D01*
X116041388Y-113433057D01*
X116034776Y-113451537D01*
X116026384Y-113469279D01*
X116016294Y-113486114D01*
X116004602Y-113501879D01*
X115991421Y-113516421D01*
X115976879Y-113529602D01*
X115961114Y-113541294D01*
X115944279Y-113551384D01*
X115926537Y-113559776D01*
X115908057Y-113566388D01*
X115889018Y-113571157D01*
X115869603Y-113574037D01*
X115850000Y-113575000D01*
X115450000Y-113575000D01*
X115430397Y-113574037D01*
X115410982Y-113571157D01*
X115391943Y-113566388D01*
X115373463Y-113559776D01*
X115355721Y-113551384D01*
X115338886Y-113541294D01*
X115323121Y-113529602D01*
X115308579Y-113516421D01*
X115295398Y-113501879D01*
X115283706Y-113486114D01*
X115273616Y-113469279D01*
X115265224Y-113451537D01*
X115258612Y-113433057D01*
X115253843Y-113414018D01*
X115250963Y-113394603D01*
X115250000Y-113375000D01*
X115250000Y-112825000D01*
X115250963Y-112805397D01*
X115253843Y-112785982D01*
X115258612Y-112766943D01*
X115265224Y-112748463D01*
X115273616Y-112730721D01*
X115283706Y-112713886D01*
X115295398Y-112698121D01*
X115308579Y-112683579D01*
X115323121Y-112670398D01*
X115338886Y-112658706D01*
X115355721Y-112648616D01*
X115373463Y-112640224D01*
X115391943Y-112633612D01*
X115410982Y-112628843D01*
X115430397Y-112625963D01*
X115450000Y-112625000D01*
X115850000Y-112625000D01*
X115869603Y-112625963D01*
X115869603Y-112625963D01*
G37*
D16*
X115650000Y-113100000D03*
D13*
G36*
X117169603Y-112625963D02*
G01*
X117189018Y-112628843D01*
X117208057Y-112633612D01*
X117226537Y-112640224D01*
X117244279Y-112648616D01*
X117261114Y-112658706D01*
X117276879Y-112670398D01*
X117291421Y-112683579D01*
X117304602Y-112698121D01*
X117316294Y-112713886D01*
X117326384Y-112730721D01*
X117334776Y-112748463D01*
X117341388Y-112766943D01*
X117346157Y-112785982D01*
X117349037Y-112805397D01*
X117350000Y-112825000D01*
X117350000Y-113375000D01*
X117349037Y-113394603D01*
X117346157Y-113414018D01*
X117341388Y-113433057D01*
X117334776Y-113451537D01*
X117326384Y-113469279D01*
X117316294Y-113486114D01*
X117304602Y-113501879D01*
X117291421Y-113516421D01*
X117276879Y-113529602D01*
X117261114Y-113541294D01*
X117244279Y-113551384D01*
X117226537Y-113559776D01*
X117208057Y-113566388D01*
X117189018Y-113571157D01*
X117169603Y-113574037D01*
X117150000Y-113575000D01*
X116750000Y-113575000D01*
X116730397Y-113574037D01*
X116710982Y-113571157D01*
X116691943Y-113566388D01*
X116673463Y-113559776D01*
X116655721Y-113551384D01*
X116638886Y-113541294D01*
X116623121Y-113529602D01*
X116608579Y-113516421D01*
X116595398Y-113501879D01*
X116583706Y-113486114D01*
X116573616Y-113469279D01*
X116565224Y-113451537D01*
X116558612Y-113433057D01*
X116553843Y-113414018D01*
X116550963Y-113394603D01*
X116550000Y-113375000D01*
X116550000Y-112825000D01*
X116550963Y-112805397D01*
X116553843Y-112785982D01*
X116558612Y-112766943D01*
X116565224Y-112748463D01*
X116573616Y-112730721D01*
X116583706Y-112713886D01*
X116595398Y-112698121D01*
X116608579Y-112683579D01*
X116623121Y-112670398D01*
X116638886Y-112658706D01*
X116655721Y-112648616D01*
X116673463Y-112640224D01*
X116691943Y-112633612D01*
X116710982Y-112628843D01*
X116730397Y-112625963D01*
X116750000Y-112625000D01*
X117150000Y-112625000D01*
X117169603Y-112625963D01*
X117169603Y-112625963D01*
G37*
D16*
X116950000Y-113100000D03*
D13*
G36*
X118269603Y-112625963D02*
G01*
X118289018Y-112628843D01*
X118308057Y-112633612D01*
X118326537Y-112640224D01*
X118344279Y-112648616D01*
X118361114Y-112658706D01*
X118376879Y-112670398D01*
X118391421Y-112683579D01*
X118404602Y-112698121D01*
X118416294Y-112713886D01*
X118426384Y-112730721D01*
X118434776Y-112748463D01*
X118441388Y-112766943D01*
X118446157Y-112785982D01*
X118449037Y-112805397D01*
X118450000Y-112825000D01*
X118450000Y-113375000D01*
X118449037Y-113394603D01*
X118446157Y-113414018D01*
X118441388Y-113433057D01*
X118434776Y-113451537D01*
X118426384Y-113469279D01*
X118416294Y-113486114D01*
X118404602Y-113501879D01*
X118391421Y-113516421D01*
X118376879Y-113529602D01*
X118361114Y-113541294D01*
X118344279Y-113551384D01*
X118326537Y-113559776D01*
X118308057Y-113566388D01*
X118289018Y-113571157D01*
X118269603Y-113574037D01*
X118250000Y-113575000D01*
X117850000Y-113575000D01*
X117830397Y-113574037D01*
X117810982Y-113571157D01*
X117791943Y-113566388D01*
X117773463Y-113559776D01*
X117755721Y-113551384D01*
X117738886Y-113541294D01*
X117723121Y-113529602D01*
X117708579Y-113516421D01*
X117695398Y-113501879D01*
X117683706Y-113486114D01*
X117673616Y-113469279D01*
X117665224Y-113451537D01*
X117658612Y-113433057D01*
X117653843Y-113414018D01*
X117650963Y-113394603D01*
X117650000Y-113375000D01*
X117650000Y-112825000D01*
X117650963Y-112805397D01*
X117653843Y-112785982D01*
X117658612Y-112766943D01*
X117665224Y-112748463D01*
X117673616Y-112730721D01*
X117683706Y-112713886D01*
X117695398Y-112698121D01*
X117708579Y-112683579D01*
X117723121Y-112670398D01*
X117738886Y-112658706D01*
X117755721Y-112648616D01*
X117773463Y-112640224D01*
X117791943Y-112633612D01*
X117810982Y-112628843D01*
X117830397Y-112625963D01*
X117850000Y-112625000D01*
X118250000Y-112625000D01*
X118269603Y-112625963D01*
X118269603Y-112625963D01*
G37*
D16*
X118050000Y-113100000D03*
D13*
G36*
X119569603Y-112625963D02*
G01*
X119589018Y-112628843D01*
X119608057Y-112633612D01*
X119626537Y-112640224D01*
X119644279Y-112648616D01*
X119661114Y-112658706D01*
X119676879Y-112670398D01*
X119691421Y-112683579D01*
X119704602Y-112698121D01*
X119716294Y-112713886D01*
X119726384Y-112730721D01*
X119734776Y-112748463D01*
X119741388Y-112766943D01*
X119746157Y-112785982D01*
X119749037Y-112805397D01*
X119750000Y-112825000D01*
X119750000Y-113375000D01*
X119749037Y-113394603D01*
X119746157Y-113414018D01*
X119741388Y-113433057D01*
X119734776Y-113451537D01*
X119726384Y-113469279D01*
X119716294Y-113486114D01*
X119704602Y-113501879D01*
X119691421Y-113516421D01*
X119676879Y-113529602D01*
X119661114Y-113541294D01*
X119644279Y-113551384D01*
X119626537Y-113559776D01*
X119608057Y-113566388D01*
X119589018Y-113571157D01*
X119569603Y-113574037D01*
X119550000Y-113575000D01*
X119150000Y-113575000D01*
X119130397Y-113574037D01*
X119110982Y-113571157D01*
X119091943Y-113566388D01*
X119073463Y-113559776D01*
X119055721Y-113551384D01*
X119038886Y-113541294D01*
X119023121Y-113529602D01*
X119008579Y-113516421D01*
X118995398Y-113501879D01*
X118983706Y-113486114D01*
X118973616Y-113469279D01*
X118965224Y-113451537D01*
X118958612Y-113433057D01*
X118953843Y-113414018D01*
X118950963Y-113394603D01*
X118950000Y-113375000D01*
X118950000Y-112825000D01*
X118950963Y-112805397D01*
X118953843Y-112785982D01*
X118958612Y-112766943D01*
X118965224Y-112748463D01*
X118973616Y-112730721D01*
X118983706Y-112713886D01*
X118995398Y-112698121D01*
X119008579Y-112683579D01*
X119023121Y-112670398D01*
X119038886Y-112658706D01*
X119055721Y-112648616D01*
X119073463Y-112640224D01*
X119091943Y-112633612D01*
X119110982Y-112628843D01*
X119130397Y-112625963D01*
X119150000Y-112625000D01*
X119550000Y-112625000D01*
X119569603Y-112625963D01*
X119569603Y-112625963D01*
G37*
D16*
X119350000Y-113100000D03*
D13*
G36*
X118269603Y-111425963D02*
G01*
X118289018Y-111428843D01*
X118308057Y-111433612D01*
X118326537Y-111440224D01*
X118344279Y-111448616D01*
X118361114Y-111458706D01*
X118376879Y-111470398D01*
X118391421Y-111483579D01*
X118404602Y-111498121D01*
X118416294Y-111513886D01*
X118426384Y-111530721D01*
X118434776Y-111548463D01*
X118441388Y-111566943D01*
X118446157Y-111585982D01*
X118449037Y-111605397D01*
X118450000Y-111625000D01*
X118450000Y-112175000D01*
X118449037Y-112194603D01*
X118446157Y-112214018D01*
X118441388Y-112233057D01*
X118434776Y-112251537D01*
X118426384Y-112269279D01*
X118416294Y-112286114D01*
X118404602Y-112301879D01*
X118391421Y-112316421D01*
X118376879Y-112329602D01*
X118361114Y-112341294D01*
X118344279Y-112351384D01*
X118326537Y-112359776D01*
X118308057Y-112366388D01*
X118289018Y-112371157D01*
X118269603Y-112374037D01*
X118250000Y-112375000D01*
X117850000Y-112375000D01*
X117830397Y-112374037D01*
X117810982Y-112371157D01*
X117791943Y-112366388D01*
X117773463Y-112359776D01*
X117755721Y-112351384D01*
X117738886Y-112341294D01*
X117723121Y-112329602D01*
X117708579Y-112316421D01*
X117695398Y-112301879D01*
X117683706Y-112286114D01*
X117673616Y-112269279D01*
X117665224Y-112251537D01*
X117658612Y-112233057D01*
X117653843Y-112214018D01*
X117650963Y-112194603D01*
X117650000Y-112175000D01*
X117650000Y-111625000D01*
X117650963Y-111605397D01*
X117653843Y-111585982D01*
X117658612Y-111566943D01*
X117665224Y-111548463D01*
X117673616Y-111530721D01*
X117683706Y-111513886D01*
X117695398Y-111498121D01*
X117708579Y-111483579D01*
X117723121Y-111470398D01*
X117738886Y-111458706D01*
X117755721Y-111448616D01*
X117773463Y-111440224D01*
X117791943Y-111433612D01*
X117810982Y-111428843D01*
X117830397Y-111425963D01*
X117850000Y-111425000D01*
X118250000Y-111425000D01*
X118269603Y-111425963D01*
X118269603Y-111425963D01*
G37*
D16*
X118050000Y-111900000D03*
D13*
G36*
X119569603Y-111425963D02*
G01*
X119589018Y-111428843D01*
X119608057Y-111433612D01*
X119626537Y-111440224D01*
X119644279Y-111448616D01*
X119661114Y-111458706D01*
X119676879Y-111470398D01*
X119691421Y-111483579D01*
X119704602Y-111498121D01*
X119716294Y-111513886D01*
X119726384Y-111530721D01*
X119734776Y-111548463D01*
X119741388Y-111566943D01*
X119746157Y-111585982D01*
X119749037Y-111605397D01*
X119750000Y-111625000D01*
X119750000Y-112175000D01*
X119749037Y-112194603D01*
X119746157Y-112214018D01*
X119741388Y-112233057D01*
X119734776Y-112251537D01*
X119726384Y-112269279D01*
X119716294Y-112286114D01*
X119704602Y-112301879D01*
X119691421Y-112316421D01*
X119676879Y-112329602D01*
X119661114Y-112341294D01*
X119644279Y-112351384D01*
X119626537Y-112359776D01*
X119608057Y-112366388D01*
X119589018Y-112371157D01*
X119569603Y-112374037D01*
X119550000Y-112375000D01*
X119150000Y-112375000D01*
X119130397Y-112374037D01*
X119110982Y-112371157D01*
X119091943Y-112366388D01*
X119073463Y-112359776D01*
X119055721Y-112351384D01*
X119038886Y-112341294D01*
X119023121Y-112329602D01*
X119008579Y-112316421D01*
X118995398Y-112301879D01*
X118983706Y-112286114D01*
X118973616Y-112269279D01*
X118965224Y-112251537D01*
X118958612Y-112233057D01*
X118953843Y-112214018D01*
X118950963Y-112194603D01*
X118950000Y-112175000D01*
X118950000Y-111625000D01*
X118950963Y-111605397D01*
X118953843Y-111585982D01*
X118958612Y-111566943D01*
X118965224Y-111548463D01*
X118973616Y-111530721D01*
X118983706Y-111513886D01*
X118995398Y-111498121D01*
X119008579Y-111483579D01*
X119023121Y-111470398D01*
X119038886Y-111458706D01*
X119055721Y-111448616D01*
X119073463Y-111440224D01*
X119091943Y-111433612D01*
X119110982Y-111428843D01*
X119130397Y-111425963D01*
X119150000Y-111425000D01*
X119550000Y-111425000D01*
X119569603Y-111425963D01*
X119569603Y-111425963D01*
G37*
D16*
X119350000Y-111900000D03*
D13*
G36*
X117169603Y-111425963D02*
G01*
X117189018Y-111428843D01*
X117208057Y-111433612D01*
X117226537Y-111440224D01*
X117244279Y-111448616D01*
X117261114Y-111458706D01*
X117276879Y-111470398D01*
X117291421Y-111483579D01*
X117304602Y-111498121D01*
X117316294Y-111513886D01*
X117326384Y-111530721D01*
X117334776Y-111548463D01*
X117341388Y-111566943D01*
X117346157Y-111585982D01*
X117349037Y-111605397D01*
X117350000Y-111625000D01*
X117350000Y-112175000D01*
X117349037Y-112194603D01*
X117346157Y-112214018D01*
X117341388Y-112233057D01*
X117334776Y-112251537D01*
X117326384Y-112269279D01*
X117316294Y-112286114D01*
X117304602Y-112301879D01*
X117291421Y-112316421D01*
X117276879Y-112329602D01*
X117261114Y-112341294D01*
X117244279Y-112351384D01*
X117226537Y-112359776D01*
X117208057Y-112366388D01*
X117189018Y-112371157D01*
X117169603Y-112374037D01*
X117150000Y-112375000D01*
X116750000Y-112375000D01*
X116730397Y-112374037D01*
X116710982Y-112371157D01*
X116691943Y-112366388D01*
X116673463Y-112359776D01*
X116655721Y-112351384D01*
X116638886Y-112341294D01*
X116623121Y-112329602D01*
X116608579Y-112316421D01*
X116595398Y-112301879D01*
X116583706Y-112286114D01*
X116573616Y-112269279D01*
X116565224Y-112251537D01*
X116558612Y-112233057D01*
X116553843Y-112214018D01*
X116550963Y-112194603D01*
X116550000Y-112175000D01*
X116550000Y-111625000D01*
X116550963Y-111605397D01*
X116553843Y-111585982D01*
X116558612Y-111566943D01*
X116565224Y-111548463D01*
X116573616Y-111530721D01*
X116583706Y-111513886D01*
X116595398Y-111498121D01*
X116608579Y-111483579D01*
X116623121Y-111470398D01*
X116638886Y-111458706D01*
X116655721Y-111448616D01*
X116673463Y-111440224D01*
X116691943Y-111433612D01*
X116710982Y-111428843D01*
X116730397Y-111425963D01*
X116750000Y-111425000D01*
X117150000Y-111425000D01*
X117169603Y-111425963D01*
X117169603Y-111425963D01*
G37*
D16*
X116950000Y-111900000D03*
D13*
G36*
X115869603Y-111425963D02*
G01*
X115889018Y-111428843D01*
X115908057Y-111433612D01*
X115926537Y-111440224D01*
X115944279Y-111448616D01*
X115961114Y-111458706D01*
X115976879Y-111470398D01*
X115991421Y-111483579D01*
X116004602Y-111498121D01*
X116016294Y-111513886D01*
X116026384Y-111530721D01*
X116034776Y-111548463D01*
X116041388Y-111566943D01*
X116046157Y-111585982D01*
X116049037Y-111605397D01*
X116050000Y-111625000D01*
X116050000Y-112175000D01*
X116049037Y-112194603D01*
X116046157Y-112214018D01*
X116041388Y-112233057D01*
X116034776Y-112251537D01*
X116026384Y-112269279D01*
X116016294Y-112286114D01*
X116004602Y-112301879D01*
X115991421Y-112316421D01*
X115976879Y-112329602D01*
X115961114Y-112341294D01*
X115944279Y-112351384D01*
X115926537Y-112359776D01*
X115908057Y-112366388D01*
X115889018Y-112371157D01*
X115869603Y-112374037D01*
X115850000Y-112375000D01*
X115450000Y-112375000D01*
X115430397Y-112374037D01*
X115410982Y-112371157D01*
X115391943Y-112366388D01*
X115373463Y-112359776D01*
X115355721Y-112351384D01*
X115338886Y-112341294D01*
X115323121Y-112329602D01*
X115308579Y-112316421D01*
X115295398Y-112301879D01*
X115283706Y-112286114D01*
X115273616Y-112269279D01*
X115265224Y-112251537D01*
X115258612Y-112233057D01*
X115253843Y-112214018D01*
X115250963Y-112194603D01*
X115250000Y-112175000D01*
X115250000Y-111625000D01*
X115250963Y-111605397D01*
X115253843Y-111585982D01*
X115258612Y-111566943D01*
X115265224Y-111548463D01*
X115273616Y-111530721D01*
X115283706Y-111513886D01*
X115295398Y-111498121D01*
X115308579Y-111483579D01*
X115323121Y-111470398D01*
X115338886Y-111458706D01*
X115355721Y-111448616D01*
X115373463Y-111440224D01*
X115391943Y-111433612D01*
X115410982Y-111428843D01*
X115430397Y-111425963D01*
X115450000Y-111425000D01*
X115850000Y-111425000D01*
X115869603Y-111425963D01*
X115869603Y-111425963D01*
G37*
D16*
X115650000Y-111900000D03*
D13*
G36*
X121969603Y-120525963D02*
G01*
X121989018Y-120528843D01*
X122008057Y-120533612D01*
X122026537Y-120540224D01*
X122044279Y-120548616D01*
X122061114Y-120558706D01*
X122076879Y-120570398D01*
X122091421Y-120583579D01*
X122104602Y-120598121D01*
X122116294Y-120613886D01*
X122126384Y-120630721D01*
X122134776Y-120648463D01*
X122141388Y-120666943D01*
X122146157Y-120685982D01*
X122149037Y-120705397D01*
X122150000Y-120725000D01*
X122150000Y-121275000D01*
X122149037Y-121294603D01*
X122146157Y-121314018D01*
X122141388Y-121333057D01*
X122134776Y-121351537D01*
X122126384Y-121369279D01*
X122116294Y-121386114D01*
X122104602Y-121401879D01*
X122091421Y-121416421D01*
X122076879Y-121429602D01*
X122061114Y-121441294D01*
X122044279Y-121451384D01*
X122026537Y-121459776D01*
X122008057Y-121466388D01*
X121989018Y-121471157D01*
X121969603Y-121474037D01*
X121950000Y-121475000D01*
X121550000Y-121475000D01*
X121530397Y-121474037D01*
X121510982Y-121471157D01*
X121491943Y-121466388D01*
X121473463Y-121459776D01*
X121455721Y-121451384D01*
X121438886Y-121441294D01*
X121423121Y-121429602D01*
X121408579Y-121416421D01*
X121395398Y-121401879D01*
X121383706Y-121386114D01*
X121373616Y-121369279D01*
X121365224Y-121351537D01*
X121358612Y-121333057D01*
X121353843Y-121314018D01*
X121350963Y-121294603D01*
X121350000Y-121275000D01*
X121350000Y-120725000D01*
X121350963Y-120705397D01*
X121353843Y-120685982D01*
X121358612Y-120666943D01*
X121365224Y-120648463D01*
X121373616Y-120630721D01*
X121383706Y-120613886D01*
X121395398Y-120598121D01*
X121408579Y-120583579D01*
X121423121Y-120570398D01*
X121438886Y-120558706D01*
X121455721Y-120548616D01*
X121473463Y-120540224D01*
X121491943Y-120533612D01*
X121510982Y-120528843D01*
X121530397Y-120525963D01*
X121550000Y-120525000D01*
X121950000Y-120525000D01*
X121969603Y-120525963D01*
X121969603Y-120525963D01*
G37*
D16*
X121750000Y-121000000D03*
D13*
G36*
X120669603Y-120525963D02*
G01*
X120689018Y-120528843D01*
X120708057Y-120533612D01*
X120726537Y-120540224D01*
X120744279Y-120548616D01*
X120761114Y-120558706D01*
X120776879Y-120570398D01*
X120791421Y-120583579D01*
X120804602Y-120598121D01*
X120816294Y-120613886D01*
X120826384Y-120630721D01*
X120834776Y-120648463D01*
X120841388Y-120666943D01*
X120846157Y-120685982D01*
X120849037Y-120705397D01*
X120850000Y-120725000D01*
X120850000Y-121275000D01*
X120849037Y-121294603D01*
X120846157Y-121314018D01*
X120841388Y-121333057D01*
X120834776Y-121351537D01*
X120826384Y-121369279D01*
X120816294Y-121386114D01*
X120804602Y-121401879D01*
X120791421Y-121416421D01*
X120776879Y-121429602D01*
X120761114Y-121441294D01*
X120744279Y-121451384D01*
X120726537Y-121459776D01*
X120708057Y-121466388D01*
X120689018Y-121471157D01*
X120669603Y-121474037D01*
X120650000Y-121475000D01*
X120250000Y-121475000D01*
X120230397Y-121474037D01*
X120210982Y-121471157D01*
X120191943Y-121466388D01*
X120173463Y-121459776D01*
X120155721Y-121451384D01*
X120138886Y-121441294D01*
X120123121Y-121429602D01*
X120108579Y-121416421D01*
X120095398Y-121401879D01*
X120083706Y-121386114D01*
X120073616Y-121369279D01*
X120065224Y-121351537D01*
X120058612Y-121333057D01*
X120053843Y-121314018D01*
X120050963Y-121294603D01*
X120050000Y-121275000D01*
X120050000Y-120725000D01*
X120050963Y-120705397D01*
X120053843Y-120685982D01*
X120058612Y-120666943D01*
X120065224Y-120648463D01*
X120073616Y-120630721D01*
X120083706Y-120613886D01*
X120095398Y-120598121D01*
X120108579Y-120583579D01*
X120123121Y-120570398D01*
X120138886Y-120558706D01*
X120155721Y-120548616D01*
X120173463Y-120540224D01*
X120191943Y-120533612D01*
X120210982Y-120528843D01*
X120230397Y-120525963D01*
X120250000Y-120525000D01*
X120650000Y-120525000D01*
X120669603Y-120525963D01*
X120669603Y-120525963D01*
G37*
D16*
X120450000Y-121000000D03*
D17*
X113800000Y-111200000D03*
D13*
G36*
X114239207Y-110851926D02*
G01*
X114278036Y-110857686D01*
X114316114Y-110867224D01*
X114353073Y-110880448D01*
X114388559Y-110897231D01*
X114422228Y-110917412D01*
X114453757Y-110940796D01*
X114482843Y-110967157D01*
X114509204Y-110996243D01*
X114532588Y-111027772D01*
X114552769Y-111061441D01*
X114569552Y-111096927D01*
X114582776Y-111133886D01*
X114592314Y-111171964D01*
X114598074Y-111210793D01*
X114600000Y-111250000D01*
X114600000Y-112550000D01*
X114598074Y-112589207D01*
X114592314Y-112628036D01*
X114582776Y-112666114D01*
X114569552Y-112703073D01*
X114552769Y-112738559D01*
X114532588Y-112772228D01*
X114509204Y-112803757D01*
X114482843Y-112832843D01*
X114453757Y-112859204D01*
X114422228Y-112882588D01*
X114388559Y-112902769D01*
X114353073Y-112919552D01*
X114316114Y-112932776D01*
X114278036Y-112942314D01*
X114239207Y-112948074D01*
X114200000Y-112950000D01*
X113400000Y-112950000D01*
X113360793Y-112948074D01*
X113321964Y-112942314D01*
X113283886Y-112932776D01*
X113246927Y-112919552D01*
X113211441Y-112902769D01*
X113177772Y-112882588D01*
X113146243Y-112859204D01*
X113117157Y-112832843D01*
X113090796Y-112803757D01*
X113067412Y-112772228D01*
X113047231Y-112738559D01*
X113030448Y-112703073D01*
X113017224Y-112666114D01*
X113007686Y-112628036D01*
X113001926Y-112589207D01*
X113000000Y-112550000D01*
X113000000Y-111250000D01*
X113001926Y-111210793D01*
X113007686Y-111171964D01*
X113017224Y-111133886D01*
X113030448Y-111096927D01*
X113047231Y-111061441D01*
X113067412Y-111027772D01*
X113090796Y-110996243D01*
X113117157Y-110967157D01*
X113146243Y-110940796D01*
X113177772Y-110917412D01*
X113211441Y-110897231D01*
X113246927Y-110880448D01*
X113283886Y-110867224D01*
X113321964Y-110857686D01*
X113360793Y-110851926D01*
X113400000Y-110850000D01*
X114200000Y-110850000D01*
X114239207Y-110851926D01*
X114239207Y-110851926D01*
G37*
D17*
X113800000Y-111900000D03*
X113800000Y-133700000D03*
D13*
G36*
X114239207Y-131951926D02*
G01*
X114278036Y-131957686D01*
X114316114Y-131967224D01*
X114353073Y-131980448D01*
X114388559Y-131997231D01*
X114422228Y-132017412D01*
X114453757Y-132040796D01*
X114482843Y-132067157D01*
X114509204Y-132096243D01*
X114532588Y-132127772D01*
X114552769Y-132161441D01*
X114569552Y-132196927D01*
X114582776Y-132233886D01*
X114592314Y-132271964D01*
X114598074Y-132310793D01*
X114600000Y-132350000D01*
X114600000Y-133650000D01*
X114598074Y-133689207D01*
X114592314Y-133728036D01*
X114582776Y-133766114D01*
X114569552Y-133803073D01*
X114552769Y-133838559D01*
X114532588Y-133872228D01*
X114509204Y-133903757D01*
X114482843Y-133932843D01*
X114453757Y-133959204D01*
X114422228Y-133982588D01*
X114388559Y-134002769D01*
X114353073Y-134019552D01*
X114316114Y-134032776D01*
X114278036Y-134042314D01*
X114239207Y-134048074D01*
X114200000Y-134050000D01*
X113400000Y-134050000D01*
X113360793Y-134048074D01*
X113321964Y-134042314D01*
X113283886Y-134032776D01*
X113246927Y-134019552D01*
X113211441Y-134002769D01*
X113177772Y-133982588D01*
X113146243Y-133959204D01*
X113117157Y-133932843D01*
X113090796Y-133903757D01*
X113067412Y-133872228D01*
X113047231Y-133838559D01*
X113030448Y-133803073D01*
X113017224Y-133766114D01*
X113007686Y-133728036D01*
X113001926Y-133689207D01*
X113000000Y-133650000D01*
X113000000Y-132350000D01*
X113001926Y-132310793D01*
X113007686Y-132271964D01*
X113017224Y-132233886D01*
X113030448Y-132196927D01*
X113047231Y-132161441D01*
X113067412Y-132127772D01*
X113090796Y-132096243D01*
X113117157Y-132067157D01*
X113146243Y-132040796D01*
X113177772Y-132017412D01*
X113211441Y-131997231D01*
X113246927Y-131980448D01*
X113283886Y-131967224D01*
X113321964Y-131957686D01*
X113360793Y-131951926D01*
X113400000Y-131950000D01*
X114200000Y-131950000D01*
X114239207Y-131951926D01*
X114239207Y-131951926D01*
G37*
D17*
X113800000Y-133000000D03*
X122600000Y-111200000D03*
D13*
G36*
X123039207Y-110851926D02*
G01*
X123078036Y-110857686D01*
X123116114Y-110867224D01*
X123153073Y-110880448D01*
X123188559Y-110897231D01*
X123222228Y-110917412D01*
X123253757Y-110940796D01*
X123282843Y-110967157D01*
X123309204Y-110996243D01*
X123332588Y-111027772D01*
X123352769Y-111061441D01*
X123369552Y-111096927D01*
X123382776Y-111133886D01*
X123392314Y-111171964D01*
X123398074Y-111210793D01*
X123400000Y-111250000D01*
X123400000Y-112550000D01*
X123398074Y-112589207D01*
X123392314Y-112628036D01*
X123382776Y-112666114D01*
X123369552Y-112703073D01*
X123352769Y-112738559D01*
X123332588Y-112772228D01*
X123309204Y-112803757D01*
X123282843Y-112832843D01*
X123253757Y-112859204D01*
X123222228Y-112882588D01*
X123188559Y-112902769D01*
X123153073Y-112919552D01*
X123116114Y-112932776D01*
X123078036Y-112942314D01*
X123039207Y-112948074D01*
X123000000Y-112950000D01*
X122200000Y-112950000D01*
X122160793Y-112948074D01*
X122121964Y-112942314D01*
X122083886Y-112932776D01*
X122046927Y-112919552D01*
X122011441Y-112902769D01*
X121977772Y-112882588D01*
X121946243Y-112859204D01*
X121917157Y-112832843D01*
X121890796Y-112803757D01*
X121867412Y-112772228D01*
X121847231Y-112738559D01*
X121830448Y-112703073D01*
X121817224Y-112666114D01*
X121807686Y-112628036D01*
X121801926Y-112589207D01*
X121800000Y-112550000D01*
X121800000Y-111250000D01*
X121801926Y-111210793D01*
X121807686Y-111171964D01*
X121817224Y-111133886D01*
X121830448Y-111096927D01*
X121847231Y-111061441D01*
X121867412Y-111027772D01*
X121890796Y-110996243D01*
X121917157Y-110967157D01*
X121946243Y-110940796D01*
X121977772Y-110917412D01*
X122011441Y-110897231D01*
X122046927Y-110880448D01*
X122083886Y-110867224D01*
X122121964Y-110857686D01*
X122160793Y-110851926D01*
X122200000Y-110850000D01*
X123000000Y-110850000D01*
X123039207Y-110851926D01*
X123039207Y-110851926D01*
G37*
D17*
X122600000Y-111900000D03*
X122600000Y-133700000D03*
D13*
G36*
X123039207Y-131951926D02*
G01*
X123078036Y-131957686D01*
X123116114Y-131967224D01*
X123153073Y-131980448D01*
X123188559Y-131997231D01*
X123222228Y-132017412D01*
X123253757Y-132040796D01*
X123282843Y-132067157D01*
X123309204Y-132096243D01*
X123332588Y-132127772D01*
X123352769Y-132161441D01*
X123369552Y-132196927D01*
X123382776Y-132233886D01*
X123392314Y-132271964D01*
X123398074Y-132310793D01*
X123400000Y-132350000D01*
X123400000Y-133650000D01*
X123398074Y-133689207D01*
X123392314Y-133728036D01*
X123382776Y-133766114D01*
X123369552Y-133803073D01*
X123352769Y-133838559D01*
X123332588Y-133872228D01*
X123309204Y-133903757D01*
X123282843Y-133932843D01*
X123253757Y-133959204D01*
X123222228Y-133982588D01*
X123188559Y-134002769D01*
X123153073Y-134019552D01*
X123116114Y-134032776D01*
X123078036Y-134042314D01*
X123039207Y-134048074D01*
X123000000Y-134050000D01*
X122200000Y-134050000D01*
X122160793Y-134048074D01*
X122121964Y-134042314D01*
X122083886Y-134032776D01*
X122046927Y-134019552D01*
X122011441Y-134002769D01*
X121977772Y-133982588D01*
X121946243Y-133959204D01*
X121917157Y-133932843D01*
X121890796Y-133903757D01*
X121867412Y-133872228D01*
X121847231Y-133838559D01*
X121830448Y-133803073D01*
X121817224Y-133766114D01*
X121807686Y-133728036D01*
X121801926Y-133689207D01*
X121800000Y-133650000D01*
X121800000Y-132350000D01*
X121801926Y-132310793D01*
X121807686Y-132271964D01*
X121817224Y-132233886D01*
X121830448Y-132196927D01*
X121847231Y-132161441D01*
X121867412Y-132127772D01*
X121890796Y-132096243D01*
X121917157Y-132067157D01*
X121946243Y-132040796D01*
X121977772Y-132017412D01*
X122011441Y-131997231D01*
X122046927Y-131980448D01*
X122083886Y-131967224D01*
X122121964Y-131957686D01*
X122160793Y-131951926D01*
X122200000Y-131950000D01*
X123000000Y-131950000D01*
X123039207Y-131951926D01*
X123039207Y-131951926D01*
G37*
D17*
X122600000Y-133000000D03*
D13*
G36*
X117131465Y-130826300D02*
G01*
X117157674Y-130830188D01*
X117183377Y-130836626D01*
X117208325Y-130845553D01*
X117232277Y-130856881D01*
X117255004Y-130870503D01*
X117276286Y-130886287D01*
X117295919Y-130904081D01*
X117313713Y-130923714D01*
X117329497Y-130944996D01*
X117343119Y-130967723D01*
X117354447Y-130991675D01*
X117363374Y-131016623D01*
X117369812Y-131042326D01*
X117373700Y-131068535D01*
X117375000Y-131095000D01*
X117375000Y-133305000D01*
X117373700Y-133331465D01*
X117369812Y-133357674D01*
X117363374Y-133383377D01*
X117354447Y-133408325D01*
X117343119Y-133432277D01*
X117329497Y-133455004D01*
X117313713Y-133476286D01*
X117295919Y-133495919D01*
X117276286Y-133513713D01*
X117255004Y-133529497D01*
X117232277Y-133543119D01*
X117208325Y-133554447D01*
X117183377Y-133563374D01*
X117157674Y-133569812D01*
X117131465Y-133573700D01*
X117105000Y-133575000D01*
X116295000Y-133575000D01*
X116268535Y-133573700D01*
X116242326Y-133569812D01*
X116216623Y-133563374D01*
X116191675Y-133554447D01*
X116167723Y-133543119D01*
X116144996Y-133529497D01*
X116123714Y-133513713D01*
X116104081Y-133495919D01*
X116086287Y-133476286D01*
X116070503Y-133455004D01*
X116056881Y-133432277D01*
X116045553Y-133408325D01*
X116036626Y-133383377D01*
X116030188Y-133357674D01*
X116026300Y-133331465D01*
X116025000Y-133305000D01*
X116025000Y-131095000D01*
X116026300Y-131068535D01*
X116030188Y-131042326D01*
X116036626Y-131016623D01*
X116045553Y-130991675D01*
X116056881Y-130967723D01*
X116070503Y-130944996D01*
X116086287Y-130923714D01*
X116104081Y-130904081D01*
X116123714Y-130886287D01*
X116144996Y-130870503D01*
X116167723Y-130856881D01*
X116191675Y-130845553D01*
X116216623Y-130836626D01*
X116242326Y-130830188D01*
X116268535Y-130826300D01*
X116295000Y-130825000D01*
X117105000Y-130825000D01*
X117131465Y-130826300D01*
X117131465Y-130826300D01*
G37*
D18*
X116700000Y-132200000D03*
D13*
G36*
X119931465Y-130826300D02*
G01*
X119957674Y-130830188D01*
X119983377Y-130836626D01*
X120008325Y-130845553D01*
X120032277Y-130856881D01*
X120055004Y-130870503D01*
X120076286Y-130886287D01*
X120095919Y-130904081D01*
X120113713Y-130923714D01*
X120129497Y-130944996D01*
X120143119Y-130967723D01*
X120154447Y-130991675D01*
X120163374Y-131016623D01*
X120169812Y-131042326D01*
X120173700Y-131068535D01*
X120175000Y-131095000D01*
X120175000Y-133305000D01*
X120173700Y-133331465D01*
X120169812Y-133357674D01*
X120163374Y-133383377D01*
X120154447Y-133408325D01*
X120143119Y-133432277D01*
X120129497Y-133455004D01*
X120113713Y-133476286D01*
X120095919Y-133495919D01*
X120076286Y-133513713D01*
X120055004Y-133529497D01*
X120032277Y-133543119D01*
X120008325Y-133554447D01*
X119983377Y-133563374D01*
X119957674Y-133569812D01*
X119931465Y-133573700D01*
X119905000Y-133575000D01*
X119095000Y-133575000D01*
X119068535Y-133573700D01*
X119042326Y-133569812D01*
X119016623Y-133563374D01*
X118991675Y-133554447D01*
X118967723Y-133543119D01*
X118944996Y-133529497D01*
X118923714Y-133513713D01*
X118904081Y-133495919D01*
X118886287Y-133476286D01*
X118870503Y-133455004D01*
X118856881Y-133432277D01*
X118845553Y-133408325D01*
X118836626Y-133383377D01*
X118830188Y-133357674D01*
X118826300Y-133331465D01*
X118825000Y-133305000D01*
X118825000Y-131095000D01*
X118826300Y-131068535D01*
X118830188Y-131042326D01*
X118836626Y-131016623D01*
X118845553Y-130991675D01*
X118856881Y-130967723D01*
X118870503Y-130944996D01*
X118886287Y-130923714D01*
X118904081Y-130904081D01*
X118923714Y-130886287D01*
X118944996Y-130870503D01*
X118967723Y-130856881D01*
X118991675Y-130845553D01*
X119016623Y-130836626D01*
X119042326Y-130830188D01*
X119068535Y-130826300D01*
X119095000Y-130825000D01*
X119905000Y-130825000D01*
X119931465Y-130826300D01*
X119931465Y-130826300D01*
G37*
D18*
X119500000Y-132200000D03*
D13*
G36*
X122931465Y-116026300D02*
G01*
X122957674Y-116030188D01*
X122983377Y-116036626D01*
X123008325Y-116045553D01*
X123032277Y-116056881D01*
X123055004Y-116070503D01*
X123076286Y-116086287D01*
X123095919Y-116104081D01*
X123113713Y-116123714D01*
X123129497Y-116144996D01*
X123143119Y-116167723D01*
X123154447Y-116191675D01*
X123163374Y-116216623D01*
X123169812Y-116242326D01*
X123173700Y-116268535D01*
X123175000Y-116295000D01*
X123175000Y-117105000D01*
X123173700Y-117131465D01*
X123169812Y-117157674D01*
X123163374Y-117183377D01*
X123154447Y-117208325D01*
X123143119Y-117232277D01*
X123129497Y-117255004D01*
X123113713Y-117276286D01*
X123095919Y-117295919D01*
X123076286Y-117313713D01*
X123055004Y-117329497D01*
X123032277Y-117343119D01*
X123008325Y-117354447D01*
X122983377Y-117363374D01*
X122957674Y-117369812D01*
X122931465Y-117373700D01*
X122905000Y-117375000D01*
X120695000Y-117375000D01*
X120668535Y-117373700D01*
X120642326Y-117369812D01*
X120616623Y-117363374D01*
X120591675Y-117354447D01*
X120567723Y-117343119D01*
X120544996Y-117329497D01*
X120523714Y-117313713D01*
X120504081Y-117295919D01*
X120486287Y-117276286D01*
X120470503Y-117255004D01*
X120456881Y-117232277D01*
X120445553Y-117208325D01*
X120436626Y-117183377D01*
X120430188Y-117157674D01*
X120426300Y-117131465D01*
X120425000Y-117105000D01*
X120425000Y-116295000D01*
X120426300Y-116268535D01*
X120430188Y-116242326D01*
X120436626Y-116216623D01*
X120445553Y-116191675D01*
X120456881Y-116167723D01*
X120470503Y-116144996D01*
X120486287Y-116123714D01*
X120504081Y-116104081D01*
X120523714Y-116086287D01*
X120544996Y-116070503D01*
X120567723Y-116056881D01*
X120591675Y-116045553D01*
X120616623Y-116036626D01*
X120642326Y-116030188D01*
X120668535Y-116026300D01*
X120695000Y-116025000D01*
X122905000Y-116025000D01*
X122931465Y-116026300D01*
X122931465Y-116026300D01*
G37*
D18*
X121800000Y-116700000D03*
D13*
G36*
X122931465Y-118826300D02*
G01*
X122957674Y-118830188D01*
X122983377Y-118836626D01*
X123008325Y-118845553D01*
X123032277Y-118856881D01*
X123055004Y-118870503D01*
X123076286Y-118886287D01*
X123095919Y-118904081D01*
X123113713Y-118923714D01*
X123129497Y-118944996D01*
X123143119Y-118967723D01*
X123154447Y-118991675D01*
X123163374Y-119016623D01*
X123169812Y-119042326D01*
X123173700Y-119068535D01*
X123175000Y-119095000D01*
X123175000Y-119905000D01*
X123173700Y-119931465D01*
X123169812Y-119957674D01*
X123163374Y-119983377D01*
X123154447Y-120008325D01*
X123143119Y-120032277D01*
X123129497Y-120055004D01*
X123113713Y-120076286D01*
X123095919Y-120095919D01*
X123076286Y-120113713D01*
X123055004Y-120129497D01*
X123032277Y-120143119D01*
X123008325Y-120154447D01*
X122983377Y-120163374D01*
X122957674Y-120169812D01*
X122931465Y-120173700D01*
X122905000Y-120175000D01*
X120695000Y-120175000D01*
X120668535Y-120173700D01*
X120642326Y-120169812D01*
X120616623Y-120163374D01*
X120591675Y-120154447D01*
X120567723Y-120143119D01*
X120544996Y-120129497D01*
X120523714Y-120113713D01*
X120504081Y-120095919D01*
X120486287Y-120076286D01*
X120470503Y-120055004D01*
X120456881Y-120032277D01*
X120445553Y-120008325D01*
X120436626Y-119983377D01*
X120430188Y-119957674D01*
X120426300Y-119931465D01*
X120425000Y-119905000D01*
X120425000Y-119095000D01*
X120426300Y-119068535D01*
X120430188Y-119042326D01*
X120436626Y-119016623D01*
X120445553Y-118991675D01*
X120456881Y-118967723D01*
X120470503Y-118944996D01*
X120486287Y-118923714D01*
X120504081Y-118904081D01*
X120523714Y-118886287D01*
X120544996Y-118870503D01*
X120567723Y-118856881D01*
X120591675Y-118845553D01*
X120616623Y-118836626D01*
X120642326Y-118830188D01*
X120668535Y-118826300D01*
X120695000Y-118825000D01*
X122905000Y-118825000D01*
X122931465Y-118826300D01*
X122931465Y-118826300D01*
G37*
D18*
X121800000Y-119500000D03*
D19*
X117500000Y-117500000D03*
D20*
X115595000Y-114800000D03*
X116865000Y-114800000D03*
X118135000Y-114800000D03*
X119405000Y-114800000D03*
X119405000Y-120200000D03*
X118135000Y-120200000D03*
X116865000Y-120200000D03*
X115595000Y-120200000D03*
M02*
