G04 #@! TF.GenerationSoftware,KiCad,Pcbnew,5.1.0-060a0da~80~ubuntu18.04.1*
G04 #@! TF.CreationDate,2019-03-24T22:45:50+01:00*
G04 #@! TF.ProjectId,mav_psu,6d61765f-7073-4752-9e6b-696361645f70,rev?*
G04 #@! TF.SameCoordinates,Original*
G04 #@! TF.FileFunction,Copper,L2,Bot*
G04 #@! TF.FilePolarity,Positive*
%FSLAX46Y46*%
G04 Gerber Fmt 4.6, Leading zero omitted, Abs format (unit mm)*
G04 Created by KiCad (PCBNEW 5.1.0-060a0da~80~ubuntu18.04.1) date 2019-03-24 22:45:50*
%MOMM*%
%LPD*%
G04 APERTURE LIST*
%ADD10C,1.500000*%
%ADD11C,0.800000*%
%ADD12C,0.200000*%
%ADD13C,0.250000*%
G04 APERTURE END LIST*
D10*
X113800000Y-111200000D03*
X113800000Y-133700000D03*
X122600000Y-111200000D03*
X122600000Y-133700000D03*
D11*
X113800000Y-112500000D03*
X113700000Y-121100000D03*
X114700000Y-121100000D03*
X114200000Y-122000000D03*
X113800000Y-113500000D03*
X113800000Y-114500000D03*
X120200000Y-111900000D03*
X116700000Y-118300000D03*
X118300000Y-118300000D03*
X118300000Y-116700000D03*
X116700000Y-116700000D03*
X122700000Y-115300000D03*
X121700000Y-118100000D03*
X122700000Y-118100000D03*
X121700000Y-115300000D03*
X113700000Y-131200000D03*
X114700000Y-131200000D03*
X115300000Y-133000000D03*
X115300000Y-132000000D03*
X117400000Y-129300000D03*
X116200000Y-129400000D03*
X116200000Y-128300000D03*
X117400000Y-128000000D03*
X117900000Y-133000000D03*
X117900000Y-131500000D03*
X113700000Y-123300000D03*
X118500000Y-124000000D03*
X121300000Y-111900000D03*
X121700000Y-114300000D03*
X121700000Y-113300000D03*
X122700000Y-113300000D03*
X117400000Y-126700000D03*
X115700000Y-118500000D03*
X115700000Y-117400000D03*
X115700000Y-116300000D03*
X119200000Y-117500000D03*
X119200000Y-116200000D03*
X120600000Y-112900000D03*
X119600000Y-122600000D03*
X119600000Y-124000000D03*
X119600000Y-125300000D03*
X119600000Y-126700000D03*
X119600000Y-128000000D03*
X119600000Y-129300000D03*
X118500000Y-125300000D03*
X118500000Y-126700000D03*
X118500000Y-128000000D03*
X118500000Y-129300000D03*
X117400000Y-125300000D03*
X122700000Y-114300000D03*
X120305016Y-115200000D03*
X119900012Y-118800000D03*
D12*
X119634315Y-111900000D02*
X120200000Y-111900000D01*
X114500000Y-111900000D02*
X119634315Y-111900000D01*
X114200010Y-111600010D02*
X114500000Y-111900000D01*
D13*
X120305016Y-118394996D02*
X120300011Y-118400001D01*
X120300011Y-118400001D02*
X119900012Y-118800000D01*
X120305016Y-115200000D02*
X120305016Y-118394996D01*
D12*
G36*
X123000001Y-132729173D02*
G01*
X122906274Y-132690350D01*
X122703416Y-132650000D01*
X122496584Y-132650000D01*
X122293726Y-132690350D01*
X122102638Y-132769502D01*
X121930664Y-132884411D01*
X121784411Y-133030664D01*
X121669502Y-133202638D01*
X121629173Y-133300000D01*
X113400000Y-133300000D01*
X113400000Y-122224264D01*
X113787868Y-122612132D01*
X113833329Y-122649441D01*
X113885195Y-122677164D01*
X113941473Y-122694236D01*
X114000000Y-122700000D01*
X114400000Y-122700000D01*
X114458527Y-122694236D01*
X114514805Y-122677164D01*
X114566671Y-122649441D01*
X114612132Y-122612132D01*
X115512132Y-121712132D01*
X115549441Y-121666671D01*
X115577164Y-121614805D01*
X115594236Y-121558527D01*
X115600000Y-121500000D01*
X115600000Y-118731056D01*
X119200012Y-118731056D01*
X119200012Y-118868944D01*
X119226913Y-119004182D01*
X119279680Y-119131574D01*
X119356286Y-119246224D01*
X119453788Y-119343726D01*
X119568438Y-119420332D01*
X119695830Y-119473099D01*
X119831068Y-119500000D01*
X119968956Y-119500000D01*
X120104194Y-119473099D01*
X120231586Y-119420332D01*
X120346236Y-119343726D01*
X120443738Y-119246224D01*
X120520344Y-119131574D01*
X120573111Y-119004182D01*
X120600012Y-118868944D01*
X120600012Y-118731056D01*
X120595163Y-118706677D01*
X120606990Y-118696970D01*
X120660100Y-118632256D01*
X120699564Y-118558423D01*
X120723866Y-118478310D01*
X120730016Y-118415870D01*
X120730016Y-118415863D01*
X120732071Y-118394997D01*
X120730016Y-118374130D01*
X120730016Y-115757907D01*
X120751240Y-115743726D01*
X120848742Y-115646224D01*
X120925348Y-115531574D01*
X120978115Y-115404182D01*
X121005016Y-115268944D01*
X121005016Y-115131056D01*
X120978115Y-114995818D01*
X120925348Y-114868426D01*
X120848742Y-114753776D01*
X120751240Y-114656274D01*
X120636590Y-114579668D01*
X120509198Y-114526901D01*
X120373960Y-114500000D01*
X120236072Y-114500000D01*
X120100834Y-114526901D01*
X119973442Y-114579668D01*
X119858792Y-114656274D01*
X119761290Y-114753776D01*
X119684684Y-114868426D01*
X119631917Y-114995818D01*
X119605016Y-115131056D01*
X119605016Y-115268944D01*
X119631917Y-115404182D01*
X119684684Y-115531574D01*
X119761290Y-115646224D01*
X119858792Y-115743726D01*
X119880016Y-115757907D01*
X119880017Y-118100000D01*
X119831068Y-118100000D01*
X119695830Y-118126901D01*
X119568438Y-118179668D01*
X119453788Y-118256274D01*
X119356286Y-118353776D01*
X119279680Y-118468426D01*
X119226913Y-118595818D01*
X119200012Y-118731056D01*
X115600000Y-118731056D01*
X115600000Y-112300000D01*
X119625388Y-112300000D01*
X119656274Y-112346224D01*
X119753776Y-112443726D01*
X119868426Y-112520332D01*
X119995818Y-112573099D01*
X120131056Y-112600000D01*
X120268944Y-112600000D01*
X120404182Y-112573099D01*
X120531574Y-112520332D01*
X120646224Y-112443726D01*
X120743726Y-112346224D01*
X120820332Y-112231574D01*
X120873099Y-112104182D01*
X120900000Y-111968944D01*
X120900000Y-111831056D01*
X120873099Y-111695818D01*
X120833410Y-111600000D01*
X123000000Y-111600000D01*
X123000001Y-132729173D01*
X123000001Y-132729173D01*
G37*
X123000001Y-132729173D02*
X122906274Y-132690350D01*
X122703416Y-132650000D01*
X122496584Y-132650000D01*
X122293726Y-132690350D01*
X122102638Y-132769502D01*
X121930664Y-132884411D01*
X121784411Y-133030664D01*
X121669502Y-133202638D01*
X121629173Y-133300000D01*
X113400000Y-133300000D01*
X113400000Y-122224264D01*
X113787868Y-122612132D01*
X113833329Y-122649441D01*
X113885195Y-122677164D01*
X113941473Y-122694236D01*
X114000000Y-122700000D01*
X114400000Y-122700000D01*
X114458527Y-122694236D01*
X114514805Y-122677164D01*
X114566671Y-122649441D01*
X114612132Y-122612132D01*
X115512132Y-121712132D01*
X115549441Y-121666671D01*
X115577164Y-121614805D01*
X115594236Y-121558527D01*
X115600000Y-121500000D01*
X115600000Y-118731056D01*
X119200012Y-118731056D01*
X119200012Y-118868944D01*
X119226913Y-119004182D01*
X119279680Y-119131574D01*
X119356286Y-119246224D01*
X119453788Y-119343726D01*
X119568438Y-119420332D01*
X119695830Y-119473099D01*
X119831068Y-119500000D01*
X119968956Y-119500000D01*
X120104194Y-119473099D01*
X120231586Y-119420332D01*
X120346236Y-119343726D01*
X120443738Y-119246224D01*
X120520344Y-119131574D01*
X120573111Y-119004182D01*
X120600012Y-118868944D01*
X120600012Y-118731056D01*
X120595163Y-118706677D01*
X120606990Y-118696970D01*
X120660100Y-118632256D01*
X120699564Y-118558423D01*
X120723866Y-118478310D01*
X120730016Y-118415870D01*
X120730016Y-118415863D01*
X120732071Y-118394997D01*
X120730016Y-118374130D01*
X120730016Y-115757907D01*
X120751240Y-115743726D01*
X120848742Y-115646224D01*
X120925348Y-115531574D01*
X120978115Y-115404182D01*
X121005016Y-115268944D01*
X121005016Y-115131056D01*
X120978115Y-114995818D01*
X120925348Y-114868426D01*
X120848742Y-114753776D01*
X120751240Y-114656274D01*
X120636590Y-114579668D01*
X120509198Y-114526901D01*
X120373960Y-114500000D01*
X120236072Y-114500000D01*
X120100834Y-114526901D01*
X119973442Y-114579668D01*
X119858792Y-114656274D01*
X119761290Y-114753776D01*
X119684684Y-114868426D01*
X119631917Y-114995818D01*
X119605016Y-115131056D01*
X119605016Y-115268944D01*
X119631917Y-115404182D01*
X119684684Y-115531574D01*
X119761290Y-115646224D01*
X119858792Y-115743726D01*
X119880016Y-115757907D01*
X119880017Y-118100000D01*
X119831068Y-118100000D01*
X119695830Y-118126901D01*
X119568438Y-118179668D01*
X119453788Y-118256274D01*
X119356286Y-118353776D01*
X119279680Y-118468426D01*
X119226913Y-118595818D01*
X119200012Y-118731056D01*
X115600000Y-118731056D01*
X115600000Y-112300000D01*
X119625388Y-112300000D01*
X119656274Y-112346224D01*
X119753776Y-112443726D01*
X119868426Y-112520332D01*
X119995818Y-112573099D01*
X120131056Y-112600000D01*
X120268944Y-112600000D01*
X120404182Y-112573099D01*
X120531574Y-112520332D01*
X120646224Y-112443726D01*
X120743726Y-112346224D01*
X120820332Y-112231574D01*
X120873099Y-112104182D01*
X120900000Y-111968944D01*
X120900000Y-111831056D01*
X120873099Y-111695818D01*
X120833410Y-111600000D01*
X123000000Y-111600000D01*
X123000001Y-132729173D01*
G36*
X115200000Y-115810050D02*
G01*
X115156274Y-115853776D01*
X115079668Y-115968426D01*
X115026901Y-116095818D01*
X115000000Y-116231056D01*
X115000000Y-116368944D01*
X115026901Y-116504182D01*
X115079668Y-116631574D01*
X115156274Y-116746224D01*
X115200000Y-116789950D01*
X115200000Y-116910050D01*
X115156274Y-116953776D01*
X115079668Y-117068426D01*
X115026901Y-117195818D01*
X115000000Y-117331056D01*
X115000000Y-117468944D01*
X115026901Y-117604182D01*
X115079668Y-117731574D01*
X115156274Y-117846224D01*
X115200000Y-117889950D01*
X115200000Y-118010050D01*
X115156274Y-118053776D01*
X115079668Y-118168426D01*
X115026901Y-118295818D01*
X115000000Y-118431056D01*
X115000000Y-118568944D01*
X115026901Y-118704182D01*
X115079668Y-118831574D01*
X115156274Y-118946224D01*
X115200000Y-118989950D01*
X115200000Y-121458578D01*
X114358578Y-122300000D01*
X114041422Y-122300000D01*
X113400000Y-121658578D01*
X113400000Y-111600000D01*
X115200000Y-111600000D01*
X115200000Y-115810050D01*
X115200000Y-115810050D01*
G37*
X115200000Y-115810050D02*
X115156274Y-115853776D01*
X115079668Y-115968426D01*
X115026901Y-116095818D01*
X115000000Y-116231056D01*
X115000000Y-116368944D01*
X115026901Y-116504182D01*
X115079668Y-116631574D01*
X115156274Y-116746224D01*
X115200000Y-116789950D01*
X115200000Y-116910050D01*
X115156274Y-116953776D01*
X115079668Y-117068426D01*
X115026901Y-117195818D01*
X115000000Y-117331056D01*
X115000000Y-117468944D01*
X115026901Y-117604182D01*
X115079668Y-117731574D01*
X115156274Y-117846224D01*
X115200000Y-117889950D01*
X115200000Y-118010050D01*
X115156274Y-118053776D01*
X115079668Y-118168426D01*
X115026901Y-118295818D01*
X115000000Y-118431056D01*
X115000000Y-118568944D01*
X115026901Y-118704182D01*
X115079668Y-118831574D01*
X115156274Y-118946224D01*
X115200000Y-118989950D01*
X115200000Y-121458578D01*
X114358578Y-122300000D01*
X114041422Y-122300000D01*
X113400000Y-121658578D01*
X113400000Y-111600000D01*
X115200000Y-111600000D01*
X115200000Y-115810050D01*
M02*
