G04 #@! TF.GenerationSoftware,KiCad,Pcbnew,5.1.0-060a0da~80~ubuntu18.04.1*
G04 #@! TF.CreationDate,2019-03-24T19:02:29+01:00*
G04 #@! TF.ProjectId,mav_psu,6d61765f-7073-4752-9e6b-696361645f70,rev?*
G04 #@! TF.SameCoordinates,Original*
G04 #@! TF.FileFunction,Soldermask,Bot*
G04 #@! TF.FilePolarity,Negative*
%FSLAX46Y46*%
G04 Gerber Fmt 4.6, Leading zero omitted, Abs format (unit mm)*
G04 Created by KiCad (PCBNEW 5.1.0-060a0da~80~ubuntu18.04.1) date 2019-03-24 19:02:29*
%MOMM*%
%LPD*%
G04 APERTURE LIST*
%ADD10C,0.350000*%
%ADD11C,0.100000*%
G04 APERTURE END LIST*
D10*
X116350000Y-118800000D02*
G75*
G03X116350000Y-118800000I-150000J0D01*
G01*
X117950000Y-118800000D02*
G75*
G03X117950000Y-118800000I-150000J0D01*
G01*
X117950000Y-117200000D02*
G75*
G03X117950000Y-117200000I-150000J0D01*
G01*
X116350000Y-117200000D02*
G75*
G03X116350000Y-117200000I-150000J0D01*
G01*
D11*
G36*
X122847934Y-132882664D02*
G01*
X123002625Y-132946739D01*
X123002626Y-132946740D01*
X123141844Y-133039762D01*
X123260238Y-133158156D01*
X123260239Y-133158158D01*
X123353261Y-133297375D01*
X123417336Y-133452066D01*
X123450000Y-133616281D01*
X123450000Y-133783719D01*
X123417336Y-133947934D01*
X123353261Y-134102625D01*
X123353260Y-134102626D01*
X123260238Y-134241844D01*
X123141844Y-134360238D01*
X123071762Y-134407065D01*
X123002625Y-134453261D01*
X122847934Y-134517336D01*
X122683719Y-134550000D01*
X122516281Y-134550000D01*
X122352066Y-134517336D01*
X122197375Y-134453261D01*
X122128238Y-134407065D01*
X122058156Y-134360238D01*
X121939762Y-134241844D01*
X121846740Y-134102626D01*
X121846739Y-134102625D01*
X121782664Y-133947934D01*
X121750000Y-133783719D01*
X121750000Y-133616281D01*
X121782664Y-133452066D01*
X121846739Y-133297375D01*
X121939761Y-133158158D01*
X121939762Y-133158156D01*
X122058156Y-133039762D01*
X122197374Y-132946740D01*
X122197375Y-132946739D01*
X122352066Y-132882664D01*
X122516281Y-132850000D01*
X122683719Y-132850000D01*
X122847934Y-132882664D01*
X122847934Y-132882664D01*
G37*
G36*
X114047934Y-132882664D02*
G01*
X114202625Y-132946739D01*
X114202626Y-132946740D01*
X114341844Y-133039762D01*
X114460238Y-133158156D01*
X114460239Y-133158158D01*
X114553261Y-133297375D01*
X114617336Y-133452066D01*
X114650000Y-133616281D01*
X114650000Y-133783719D01*
X114617336Y-133947934D01*
X114553261Y-134102625D01*
X114553260Y-134102626D01*
X114460238Y-134241844D01*
X114341844Y-134360238D01*
X114271762Y-134407065D01*
X114202625Y-134453261D01*
X114047934Y-134517336D01*
X113883719Y-134550000D01*
X113716281Y-134550000D01*
X113552066Y-134517336D01*
X113397375Y-134453261D01*
X113328238Y-134407065D01*
X113258156Y-134360238D01*
X113139762Y-134241844D01*
X113046740Y-134102626D01*
X113046739Y-134102625D01*
X112982664Y-133947934D01*
X112950000Y-133783719D01*
X112950000Y-133616281D01*
X112982664Y-133452066D01*
X113046739Y-133297375D01*
X113139761Y-133158158D01*
X113139762Y-133158156D01*
X113258156Y-133039762D01*
X113397374Y-132946740D01*
X113397375Y-132946739D01*
X113552066Y-132882664D01*
X113716281Y-132850000D01*
X113883719Y-132850000D01*
X114047934Y-132882664D01*
X114047934Y-132882664D01*
G37*
G36*
X122847934Y-109882664D02*
G01*
X123002625Y-109946739D01*
X123002626Y-109946740D01*
X123141844Y-110039762D01*
X123260238Y-110158156D01*
X123260239Y-110158158D01*
X123353261Y-110297375D01*
X123417336Y-110452066D01*
X123450000Y-110616281D01*
X123450000Y-110783719D01*
X123417336Y-110947934D01*
X123353261Y-111102625D01*
X123353260Y-111102626D01*
X123260238Y-111241844D01*
X123141844Y-111360238D01*
X123071762Y-111407065D01*
X123002625Y-111453261D01*
X122847934Y-111517336D01*
X122683719Y-111550000D01*
X122516281Y-111550000D01*
X122352066Y-111517336D01*
X122197375Y-111453261D01*
X122128238Y-111407065D01*
X122058156Y-111360238D01*
X121939762Y-111241844D01*
X121846740Y-111102626D01*
X121846739Y-111102625D01*
X121782664Y-110947934D01*
X121750000Y-110783719D01*
X121750000Y-110616281D01*
X121782664Y-110452066D01*
X121846739Y-110297375D01*
X121939761Y-110158158D01*
X121939762Y-110158156D01*
X122058156Y-110039762D01*
X122197374Y-109946740D01*
X122197375Y-109946739D01*
X122352066Y-109882664D01*
X122516281Y-109850000D01*
X122683719Y-109850000D01*
X122847934Y-109882664D01*
X122847934Y-109882664D01*
G37*
G36*
X114047934Y-109882664D02*
G01*
X114202625Y-109946739D01*
X114202626Y-109946740D01*
X114341844Y-110039762D01*
X114460238Y-110158156D01*
X114460239Y-110158158D01*
X114553261Y-110297375D01*
X114617336Y-110452066D01*
X114650000Y-110616281D01*
X114650000Y-110783719D01*
X114617336Y-110947934D01*
X114553261Y-111102625D01*
X114553260Y-111102626D01*
X114460238Y-111241844D01*
X114341844Y-111360238D01*
X114271762Y-111407065D01*
X114202625Y-111453261D01*
X114047934Y-111517336D01*
X113883719Y-111550000D01*
X113716281Y-111550000D01*
X113552066Y-111517336D01*
X113397375Y-111453261D01*
X113328238Y-111407065D01*
X113258156Y-111360238D01*
X113139762Y-111241844D01*
X113046740Y-111102626D01*
X113046739Y-111102625D01*
X112982664Y-110947934D01*
X112950000Y-110783719D01*
X112950000Y-110616281D01*
X112982664Y-110452066D01*
X113046739Y-110297375D01*
X113139761Y-110158158D01*
X113139762Y-110158156D01*
X113258156Y-110039762D01*
X113397374Y-109946740D01*
X113397375Y-109946739D01*
X113552066Y-109882664D01*
X113716281Y-109850000D01*
X113883719Y-109850000D01*
X114047934Y-109882664D01*
X114047934Y-109882664D01*
G37*
M02*
