G04 #@! TF.GenerationSoftware,KiCad,Pcbnew,5.1.0-060a0da~80~ubuntu18.04.1*
G04 #@! TF.CreationDate,2019-03-24T22:45:50+01:00*
G04 #@! TF.ProjectId,mav_psu,6d61765f-7073-4752-9e6b-696361645f70,rev?*
G04 #@! TF.SameCoordinates,Original*
G04 #@! TF.FileFunction,Legend,Bot*
G04 #@! TF.FilePolarity,Positive*
%FSLAX46Y46*%
G04 Gerber Fmt 4.6, Leading zero omitted, Abs format (unit mm)*
G04 Created by KiCad (PCBNEW 5.1.0-060a0da~80~ubuntu18.04.1) date 2019-03-24 22:45:50*
%MOMM*%
%LPD*%
G04 APERTURE LIST*
%ADD10C,0.170000*%
%ADD11C,0.300000*%
%ADD12C,0.350000*%
%ADD13C,1.600000*%
G04 APERTURE END LIST*
D10*
X115723809Y-112361904D02*
X115761904Y-112400000D01*
X115838095Y-112438095D01*
X116028571Y-112438095D01*
X116104761Y-112400000D01*
X116142857Y-112361904D01*
X116180952Y-112285714D01*
X116180952Y-112209523D01*
X116142857Y-112095238D01*
X115685714Y-111638095D01*
X116180952Y-111638095D01*
X116942857Y-111638095D02*
X116485714Y-111638095D01*
X116714285Y-111638095D02*
X116714285Y-112438095D01*
X116638095Y-112323809D01*
X116561904Y-112247619D01*
X116485714Y-112209523D01*
X117171428Y-112438095D02*
X117438095Y-111638095D01*
X117704761Y-112438095D01*
X118580952Y-111638095D02*
X118580952Y-112171428D01*
X118580952Y-112095238D02*
X118619047Y-112133333D01*
X118695238Y-112171428D01*
X118809523Y-112171428D01*
X118885714Y-112133333D01*
X118923809Y-112057142D01*
X118923809Y-111638095D01*
X118923809Y-112057142D02*
X118961904Y-112133333D01*
X119038095Y-112171428D01*
X119152380Y-112171428D01*
X119228571Y-112133333D01*
X119266666Y-112057142D01*
X119266666Y-111638095D01*
X119990476Y-111638095D02*
X119990476Y-112057142D01*
X119952380Y-112133333D01*
X119876190Y-112171428D01*
X119723809Y-112171428D01*
X119647619Y-112133333D01*
X119990476Y-111676190D02*
X119914285Y-111638095D01*
X119723809Y-111638095D01*
X119647619Y-111676190D01*
X119609523Y-111752380D01*
X119609523Y-111828571D01*
X119647619Y-111904761D01*
X119723809Y-111942857D01*
X119914285Y-111942857D01*
X119990476Y-111980952D01*
X120295238Y-111638095D02*
X120714285Y-112171428D01*
X120295238Y-112171428D02*
X120714285Y-111638095D01*
D11*
X121450000Y-113157142D02*
X121378571Y-113014285D01*
X121378571Y-112800000D01*
X121450000Y-112585714D01*
X121592857Y-112442857D01*
X121735714Y-112371428D01*
X122021428Y-112300000D01*
X122235714Y-112300000D01*
X122521428Y-112371428D01*
X122664285Y-112442857D01*
X122807142Y-112585714D01*
X122878571Y-112800000D01*
X122878571Y-112942857D01*
X122807142Y-113157142D01*
X122735714Y-113228571D01*
X122235714Y-113228571D01*
X122235714Y-112942857D01*
X122878571Y-113871428D02*
X121378571Y-113871428D01*
X122878571Y-114728571D01*
X121378571Y-114728571D01*
X122878571Y-115442857D02*
X121378571Y-115442857D01*
X121378571Y-115800000D01*
X121450000Y-116014285D01*
X121592857Y-116157142D01*
X121735714Y-116228571D01*
X122021428Y-116300000D01*
X122235714Y-116300000D01*
X122521428Y-116228571D01*
X122664285Y-116157142D01*
X122807142Y-116014285D01*
X122878571Y-115800000D01*
X122878571Y-115442857D01*
X118492857Y-120192857D02*
X118492857Y-120692857D01*
X119278571Y-120907142D02*
X119278571Y-120192857D01*
X117778571Y-120192857D01*
X117778571Y-120907142D01*
X119278571Y-121550000D02*
X118278571Y-121550000D01*
X118421428Y-121550000D02*
X118350000Y-121621428D01*
X118278571Y-121764285D01*
X118278571Y-121978571D01*
X118350000Y-122121428D01*
X118492857Y-122192857D01*
X119278571Y-122192857D01*
X118492857Y-122192857D02*
X118350000Y-122264285D01*
X118278571Y-122407142D01*
X118278571Y-122621428D01*
X118350000Y-122764285D01*
X118492857Y-122835714D01*
X119278571Y-122835714D01*
X119278571Y-123550000D02*
X118278571Y-123550000D01*
X117778571Y-123550000D02*
X117850000Y-123478571D01*
X117921428Y-123550000D01*
X117850000Y-123621428D01*
X117778571Y-123550000D01*
X117921428Y-123550000D01*
X119278571Y-124478571D02*
X119207142Y-124335714D01*
X119064285Y-124264285D01*
X117778571Y-124264285D01*
X118492857Y-126692857D02*
X118492857Y-126192857D01*
X119278571Y-126192857D02*
X117778571Y-126192857D01*
X117778571Y-126907142D01*
X119278571Y-127478571D02*
X118278571Y-127478571D01*
X118564285Y-127478571D02*
X118421428Y-127550000D01*
X118350000Y-127621428D01*
X118278571Y-127764285D01*
X118278571Y-127907142D01*
X119207142Y-128978571D02*
X119278571Y-128835714D01*
X119278571Y-128550000D01*
X119207142Y-128407142D01*
X119064285Y-128335714D01*
X118492857Y-128335714D01*
X118350000Y-128407142D01*
X118278571Y-128550000D01*
X118278571Y-128835714D01*
X118350000Y-128978571D01*
X118492857Y-129050000D01*
X118635714Y-129050000D01*
X118778571Y-128335714D01*
X119207142Y-129621428D02*
X119278571Y-129764285D01*
X119278571Y-130050000D01*
X119207142Y-130192857D01*
X119064285Y-130264285D01*
X118992857Y-130264285D01*
X118850000Y-130192857D01*
X118778571Y-130050000D01*
X118778571Y-129835714D01*
X118707142Y-129692857D01*
X118564285Y-129621428D01*
X118492857Y-129621428D01*
X118350000Y-129692857D01*
X118278571Y-129835714D01*
X118278571Y-130050000D01*
X118350000Y-130192857D01*
X119278571Y-130907142D02*
X117778571Y-130907142D01*
X118707142Y-131050000D02*
X119278571Y-131478571D01*
X118278571Y-131478571D02*
X118850000Y-130907142D01*
X113478571Y-112357142D02*
X114978571Y-112857142D01*
X113478571Y-113357142D01*
X114978571Y-113857142D02*
X113478571Y-113857142D01*
X114978571Y-114571428D02*
X113478571Y-114571428D01*
X114978571Y-115428571D01*
X113478571Y-115428571D01*
X113550000Y-129357142D02*
X113478571Y-129214285D01*
X113478571Y-129000000D01*
X113550000Y-128785714D01*
X113692857Y-128642857D01*
X113835714Y-128571428D01*
X114121428Y-128500000D01*
X114335714Y-128500000D01*
X114621428Y-128571428D01*
X114764285Y-128642857D01*
X114907142Y-128785714D01*
X114978571Y-129000000D01*
X114978571Y-129142857D01*
X114907142Y-129357142D01*
X114835714Y-129428571D01*
X114335714Y-129428571D01*
X114335714Y-129142857D01*
X114978571Y-130071428D02*
X113478571Y-130071428D01*
X114978571Y-130928571D01*
X113478571Y-130928571D01*
X114978571Y-131642857D02*
X113478571Y-131642857D01*
X113478571Y-132000000D01*
X113550000Y-132214285D01*
X113692857Y-132357142D01*
X113835714Y-132428571D01*
X114121428Y-132500000D01*
X114335714Y-132500000D01*
X114621428Y-132428571D01*
X114764285Y-132357142D01*
X114907142Y-132214285D01*
X114978571Y-132000000D01*
X114978571Y-131642857D01*
X121378571Y-124600000D02*
X121378571Y-123885714D01*
X122092857Y-123814285D01*
X122021428Y-123885714D01*
X121950000Y-124028571D01*
X121950000Y-124385714D01*
X122021428Y-124528571D01*
X122092857Y-124600000D01*
X122235714Y-124671428D01*
X122592857Y-124671428D01*
X122735714Y-124600000D01*
X122807142Y-124528571D01*
X122878571Y-124385714D01*
X122878571Y-124028571D01*
X122807142Y-123885714D01*
X122735714Y-123814285D01*
X122735714Y-125314285D02*
X122807142Y-125385714D01*
X122878571Y-125314285D01*
X122807142Y-125242857D01*
X122735714Y-125314285D01*
X122878571Y-125314285D01*
X121378571Y-125885714D02*
X121378571Y-126814285D01*
X121950000Y-126314285D01*
X121950000Y-126528571D01*
X122021428Y-126671428D01*
X122092857Y-126742857D01*
X122235714Y-126814285D01*
X122592857Y-126814285D01*
X122735714Y-126742857D01*
X122807142Y-126671428D01*
X122878571Y-126528571D01*
X122878571Y-126100000D01*
X122807142Y-125957142D01*
X122735714Y-125885714D01*
X121378571Y-127242857D02*
X122878571Y-127742857D01*
X121378571Y-128242857D01*
X121307142Y-129814285D02*
X123235714Y-128528571D01*
X121378571Y-130171428D02*
X121378571Y-131100000D01*
X121950000Y-130600000D01*
X121950000Y-130814285D01*
X122021428Y-130957142D01*
X122092857Y-131028571D01*
X122235714Y-131100000D01*
X122592857Y-131100000D01*
X122735714Y-131028571D01*
X122807142Y-130957142D01*
X122878571Y-130814285D01*
X122878571Y-130385714D01*
X122807142Y-130242857D01*
X122735714Y-130171428D01*
X122450000Y-131671428D02*
X122450000Y-132385714D01*
X122878571Y-131528571D02*
X121378571Y-132028571D01*
X122878571Y-132528571D01*
%LPC*%
D12*
X116850000Y-118300000D02*
G75*
G03X116850000Y-118300000I-150000J0D01*
G01*
X118450000Y-118300000D02*
G75*
G03X118450000Y-118300000I-150000J0D01*
G01*
X118450000Y-116700000D02*
G75*
G03X118450000Y-116700000I-150000J0D01*
G01*
X116850000Y-116700000D02*
G75*
G03X116850000Y-116700000I-150000J0D01*
G01*
D13*
X113800000Y-111200000D03*
X113800000Y-133700000D03*
X122600000Y-111200000D03*
X122600000Y-133700000D03*
M02*
