G04 #@! TF.GenerationSoftware,KiCad,Pcbnew,5.1.0-060a0da~80~ubuntu18.04.1*
G04 #@! TF.CreationDate,2019-03-24T22:45:50+01:00*
G04 #@! TF.ProjectId,mav_psu,6d61765f-7073-4752-9e6b-696361645f70,rev?*
G04 #@! TF.SameCoordinates,Original*
G04 #@! TF.FileFunction,Copper,L1,Top*
G04 #@! TF.FilePolarity,Positive*
%FSLAX46Y46*%
G04 Gerber Fmt 4.6, Leading zero omitted, Abs format (unit mm)*
G04 Created by KiCad (PCBNEW 5.1.0-060a0da~80~ubuntu18.04.1) date 2019-03-24 22:45:50*
%MOMM*%
%LPD*%
G04 APERTURE LIST*
%ADD10C,0.100000*%
%ADD11C,1.600000*%
%ADD12C,0.950000*%
%ADD13C,0.700000*%
%ADD14C,1.500000*%
%ADD15C,1.250000*%
%ADD16R,2.350000X2.350000*%
%ADD17R,0.600000X1.550000*%
%ADD18C,0.800000*%
%ADD19C,0.200000*%
%ADD20C,0.250000*%
G04 APERTURE END LIST*
D10*
G36*
X122239207Y-124601926D02*
G01*
X122278036Y-124607686D01*
X122316114Y-124617224D01*
X122353073Y-124630448D01*
X122388559Y-124647231D01*
X122422228Y-124667412D01*
X122453757Y-124690796D01*
X122482843Y-124717157D01*
X122509204Y-124746243D01*
X122532588Y-124777772D01*
X122552769Y-124811441D01*
X122569552Y-124846927D01*
X122582776Y-124883886D01*
X122592314Y-124921964D01*
X122598074Y-124960793D01*
X122600000Y-125000000D01*
X122600000Y-127200000D01*
X122598074Y-127239207D01*
X122592314Y-127278036D01*
X122582776Y-127316114D01*
X122569552Y-127353073D01*
X122552769Y-127388559D01*
X122532588Y-127422228D01*
X122509204Y-127453757D01*
X122482843Y-127482843D01*
X122453757Y-127509204D01*
X122422228Y-127532588D01*
X122388559Y-127552769D01*
X122353073Y-127569552D01*
X122316114Y-127582776D01*
X122278036Y-127592314D01*
X122239207Y-127598074D01*
X122200000Y-127600000D01*
X121400000Y-127600000D01*
X121360793Y-127598074D01*
X121321964Y-127592314D01*
X121283886Y-127582776D01*
X121246927Y-127569552D01*
X121211441Y-127552769D01*
X121177772Y-127532588D01*
X121146243Y-127509204D01*
X121117157Y-127482843D01*
X121090796Y-127453757D01*
X121067412Y-127422228D01*
X121047231Y-127388559D01*
X121030448Y-127353073D01*
X121017224Y-127316114D01*
X121007686Y-127278036D01*
X121001926Y-127239207D01*
X121000000Y-127200000D01*
X121000000Y-125000000D01*
X121001926Y-124960793D01*
X121007686Y-124921964D01*
X121017224Y-124883886D01*
X121030448Y-124846927D01*
X121047231Y-124811441D01*
X121067412Y-124777772D01*
X121090796Y-124746243D01*
X121117157Y-124717157D01*
X121146243Y-124690796D01*
X121177772Y-124667412D01*
X121211441Y-124647231D01*
X121246927Y-124630448D01*
X121283886Y-124617224D01*
X121321964Y-124607686D01*
X121360793Y-124601926D01*
X121400000Y-124600000D01*
X122200000Y-124600000D01*
X122239207Y-124601926D01*
X122239207Y-124601926D01*
G37*
D11*
X121800000Y-126100000D03*
D10*
G36*
X115439207Y-124601926D02*
G01*
X115478036Y-124607686D01*
X115516114Y-124617224D01*
X115553073Y-124630448D01*
X115588559Y-124647231D01*
X115622228Y-124667412D01*
X115653757Y-124690796D01*
X115682843Y-124717157D01*
X115709204Y-124746243D01*
X115732588Y-124777772D01*
X115752769Y-124811441D01*
X115769552Y-124846927D01*
X115782776Y-124883886D01*
X115792314Y-124921964D01*
X115798074Y-124960793D01*
X115800000Y-125000000D01*
X115800000Y-127200000D01*
X115798074Y-127239207D01*
X115792314Y-127278036D01*
X115782776Y-127316114D01*
X115769552Y-127353073D01*
X115752769Y-127388559D01*
X115732588Y-127422228D01*
X115709204Y-127453757D01*
X115682843Y-127482843D01*
X115653757Y-127509204D01*
X115622228Y-127532588D01*
X115588559Y-127552769D01*
X115553073Y-127569552D01*
X115516114Y-127582776D01*
X115478036Y-127592314D01*
X115439207Y-127598074D01*
X115400000Y-127600000D01*
X114600000Y-127600000D01*
X114560793Y-127598074D01*
X114521964Y-127592314D01*
X114483886Y-127582776D01*
X114446927Y-127569552D01*
X114411441Y-127552769D01*
X114377772Y-127532588D01*
X114346243Y-127509204D01*
X114317157Y-127482843D01*
X114290796Y-127453757D01*
X114267412Y-127422228D01*
X114247231Y-127388559D01*
X114230448Y-127353073D01*
X114217224Y-127316114D01*
X114207686Y-127278036D01*
X114201926Y-127239207D01*
X114200000Y-127200000D01*
X114200000Y-125000000D01*
X114201926Y-124960793D01*
X114207686Y-124921964D01*
X114217224Y-124883886D01*
X114230448Y-124846927D01*
X114247231Y-124811441D01*
X114267412Y-124777772D01*
X114290796Y-124746243D01*
X114317157Y-124717157D01*
X114346243Y-124690796D01*
X114377772Y-124667412D01*
X114411441Y-124647231D01*
X114446927Y-124630448D01*
X114483886Y-124617224D01*
X114521964Y-124607686D01*
X114560793Y-124601926D01*
X114600000Y-124600000D01*
X115400000Y-124600000D01*
X115439207Y-124601926D01*
X115439207Y-124601926D01*
G37*
D11*
X115000000Y-126100000D03*
D10*
G36*
X114460779Y-116626144D02*
G01*
X114483834Y-116629563D01*
X114506443Y-116635227D01*
X114528387Y-116643079D01*
X114549457Y-116653044D01*
X114569448Y-116665026D01*
X114588168Y-116678910D01*
X114605438Y-116694562D01*
X114621090Y-116711832D01*
X114634974Y-116730552D01*
X114646956Y-116750543D01*
X114656921Y-116771613D01*
X114664773Y-116793557D01*
X114670437Y-116816166D01*
X114673856Y-116839221D01*
X114675000Y-116862500D01*
X114675000Y-117337500D01*
X114673856Y-117360779D01*
X114670437Y-117383834D01*
X114664773Y-117406443D01*
X114656921Y-117428387D01*
X114646956Y-117449457D01*
X114634974Y-117469448D01*
X114621090Y-117488168D01*
X114605438Y-117505438D01*
X114588168Y-117521090D01*
X114569448Y-117534974D01*
X114549457Y-117546956D01*
X114528387Y-117556921D01*
X114506443Y-117564773D01*
X114483834Y-117570437D01*
X114460779Y-117573856D01*
X114437500Y-117575000D01*
X113562500Y-117575000D01*
X113539221Y-117573856D01*
X113516166Y-117570437D01*
X113493557Y-117564773D01*
X113471613Y-117556921D01*
X113450543Y-117546956D01*
X113430552Y-117534974D01*
X113411832Y-117521090D01*
X113394562Y-117505438D01*
X113378910Y-117488168D01*
X113365026Y-117469448D01*
X113353044Y-117449457D01*
X113343079Y-117428387D01*
X113335227Y-117406443D01*
X113329563Y-117383834D01*
X113326144Y-117360779D01*
X113325000Y-117337500D01*
X113325000Y-116862500D01*
X113326144Y-116839221D01*
X113329563Y-116816166D01*
X113335227Y-116793557D01*
X113343079Y-116771613D01*
X113353044Y-116750543D01*
X113365026Y-116730552D01*
X113378910Y-116711832D01*
X113394562Y-116694562D01*
X113411832Y-116678910D01*
X113430552Y-116665026D01*
X113450543Y-116653044D01*
X113471613Y-116643079D01*
X113493557Y-116635227D01*
X113516166Y-116629563D01*
X113539221Y-116626144D01*
X113562500Y-116625000D01*
X114437500Y-116625000D01*
X114460779Y-116626144D01*
X114460779Y-116626144D01*
G37*
D12*
X114000000Y-117100000D03*
D10*
G36*
X114460779Y-115026144D02*
G01*
X114483834Y-115029563D01*
X114506443Y-115035227D01*
X114528387Y-115043079D01*
X114549457Y-115053044D01*
X114569448Y-115065026D01*
X114588168Y-115078910D01*
X114605438Y-115094562D01*
X114621090Y-115111832D01*
X114634974Y-115130552D01*
X114646956Y-115150543D01*
X114656921Y-115171613D01*
X114664773Y-115193557D01*
X114670437Y-115216166D01*
X114673856Y-115239221D01*
X114675000Y-115262500D01*
X114675000Y-115737500D01*
X114673856Y-115760779D01*
X114670437Y-115783834D01*
X114664773Y-115806443D01*
X114656921Y-115828387D01*
X114646956Y-115849457D01*
X114634974Y-115869448D01*
X114621090Y-115888168D01*
X114605438Y-115905438D01*
X114588168Y-115921090D01*
X114569448Y-115934974D01*
X114549457Y-115946956D01*
X114528387Y-115956921D01*
X114506443Y-115964773D01*
X114483834Y-115970437D01*
X114460779Y-115973856D01*
X114437500Y-115975000D01*
X113562500Y-115975000D01*
X113539221Y-115973856D01*
X113516166Y-115970437D01*
X113493557Y-115964773D01*
X113471613Y-115956921D01*
X113450543Y-115946956D01*
X113430552Y-115934974D01*
X113411832Y-115921090D01*
X113394562Y-115905438D01*
X113378910Y-115888168D01*
X113365026Y-115869448D01*
X113353044Y-115849457D01*
X113343079Y-115828387D01*
X113335227Y-115806443D01*
X113329563Y-115783834D01*
X113326144Y-115760779D01*
X113325000Y-115737500D01*
X113325000Y-115262500D01*
X113326144Y-115239221D01*
X113329563Y-115216166D01*
X113335227Y-115193557D01*
X113343079Y-115171613D01*
X113353044Y-115150543D01*
X113365026Y-115130552D01*
X113378910Y-115111832D01*
X113394562Y-115094562D01*
X113411832Y-115078910D01*
X113430552Y-115065026D01*
X113450543Y-115053044D01*
X113471613Y-115043079D01*
X113493557Y-115035227D01*
X113516166Y-115029563D01*
X113539221Y-115026144D01*
X113562500Y-115025000D01*
X114437500Y-115025000D01*
X114460779Y-115026144D01*
X114460779Y-115026144D01*
G37*
D12*
X114000000Y-115500000D03*
D10*
G36*
X114460779Y-117926144D02*
G01*
X114483834Y-117929563D01*
X114506443Y-117935227D01*
X114528387Y-117943079D01*
X114549457Y-117953044D01*
X114569448Y-117965026D01*
X114588168Y-117978910D01*
X114605438Y-117994562D01*
X114621090Y-118011832D01*
X114634974Y-118030552D01*
X114646956Y-118050543D01*
X114656921Y-118071613D01*
X114664773Y-118093557D01*
X114670437Y-118116166D01*
X114673856Y-118139221D01*
X114675000Y-118162500D01*
X114675000Y-118637500D01*
X114673856Y-118660779D01*
X114670437Y-118683834D01*
X114664773Y-118706443D01*
X114656921Y-118728387D01*
X114646956Y-118749457D01*
X114634974Y-118769448D01*
X114621090Y-118788168D01*
X114605438Y-118805438D01*
X114588168Y-118821090D01*
X114569448Y-118834974D01*
X114549457Y-118846956D01*
X114528387Y-118856921D01*
X114506443Y-118864773D01*
X114483834Y-118870437D01*
X114460779Y-118873856D01*
X114437500Y-118875000D01*
X113562500Y-118875000D01*
X113539221Y-118873856D01*
X113516166Y-118870437D01*
X113493557Y-118864773D01*
X113471613Y-118856921D01*
X113450543Y-118846956D01*
X113430552Y-118834974D01*
X113411832Y-118821090D01*
X113394562Y-118805438D01*
X113378910Y-118788168D01*
X113365026Y-118769448D01*
X113353044Y-118749457D01*
X113343079Y-118728387D01*
X113335227Y-118706443D01*
X113329563Y-118683834D01*
X113326144Y-118660779D01*
X113325000Y-118637500D01*
X113325000Y-118162500D01*
X113326144Y-118139221D01*
X113329563Y-118116166D01*
X113335227Y-118093557D01*
X113343079Y-118071613D01*
X113353044Y-118050543D01*
X113365026Y-118030552D01*
X113378910Y-118011832D01*
X113394562Y-117994562D01*
X113411832Y-117978910D01*
X113430552Y-117965026D01*
X113450543Y-117953044D01*
X113471613Y-117943079D01*
X113493557Y-117935227D01*
X113516166Y-117929563D01*
X113539221Y-117926144D01*
X113562500Y-117925000D01*
X114437500Y-117925000D01*
X114460779Y-117926144D01*
X114460779Y-117926144D01*
G37*
D12*
X114000000Y-118400000D03*
D10*
G36*
X114460779Y-119526144D02*
G01*
X114483834Y-119529563D01*
X114506443Y-119535227D01*
X114528387Y-119543079D01*
X114549457Y-119553044D01*
X114569448Y-119565026D01*
X114588168Y-119578910D01*
X114605438Y-119594562D01*
X114621090Y-119611832D01*
X114634974Y-119630552D01*
X114646956Y-119650543D01*
X114656921Y-119671613D01*
X114664773Y-119693557D01*
X114670437Y-119716166D01*
X114673856Y-119739221D01*
X114675000Y-119762500D01*
X114675000Y-120237500D01*
X114673856Y-120260779D01*
X114670437Y-120283834D01*
X114664773Y-120306443D01*
X114656921Y-120328387D01*
X114646956Y-120349457D01*
X114634974Y-120369448D01*
X114621090Y-120388168D01*
X114605438Y-120405438D01*
X114588168Y-120421090D01*
X114569448Y-120434974D01*
X114549457Y-120446956D01*
X114528387Y-120456921D01*
X114506443Y-120464773D01*
X114483834Y-120470437D01*
X114460779Y-120473856D01*
X114437500Y-120475000D01*
X113562500Y-120475000D01*
X113539221Y-120473856D01*
X113516166Y-120470437D01*
X113493557Y-120464773D01*
X113471613Y-120456921D01*
X113450543Y-120446956D01*
X113430552Y-120434974D01*
X113411832Y-120421090D01*
X113394562Y-120405438D01*
X113378910Y-120388168D01*
X113365026Y-120369448D01*
X113353044Y-120349457D01*
X113343079Y-120328387D01*
X113335227Y-120306443D01*
X113329563Y-120283834D01*
X113326144Y-120260779D01*
X113325000Y-120237500D01*
X113325000Y-119762500D01*
X113326144Y-119739221D01*
X113329563Y-119716166D01*
X113335227Y-119693557D01*
X113343079Y-119671613D01*
X113353044Y-119650543D01*
X113365026Y-119630552D01*
X113378910Y-119611832D01*
X113394562Y-119594562D01*
X113411832Y-119578910D01*
X113430552Y-119565026D01*
X113450543Y-119553044D01*
X113471613Y-119543079D01*
X113493557Y-119535227D01*
X113516166Y-119529563D01*
X113539221Y-119526144D01*
X113562500Y-119525000D01*
X114437500Y-119525000D01*
X114460779Y-119526144D01*
X114460779Y-119526144D01*
G37*
D12*
X114000000Y-120000000D03*
D10*
G36*
X115842153Y-112675843D02*
G01*
X115859141Y-112678363D01*
X115875800Y-112682535D01*
X115891970Y-112688321D01*
X115907494Y-112695664D01*
X115922225Y-112704493D01*
X115936019Y-112714723D01*
X115948744Y-112726256D01*
X115960277Y-112738981D01*
X115970507Y-112752775D01*
X115979336Y-112767506D01*
X115986679Y-112783030D01*
X115992465Y-112799200D01*
X115996637Y-112815859D01*
X115999157Y-112832847D01*
X116000000Y-112850000D01*
X116000000Y-113350000D01*
X115999157Y-113367153D01*
X115996637Y-113384141D01*
X115992465Y-113400800D01*
X115986679Y-113416970D01*
X115979336Y-113432494D01*
X115970507Y-113447225D01*
X115960277Y-113461019D01*
X115948744Y-113473744D01*
X115936019Y-113485277D01*
X115922225Y-113495507D01*
X115907494Y-113504336D01*
X115891970Y-113511679D01*
X115875800Y-113517465D01*
X115859141Y-113521637D01*
X115842153Y-113524157D01*
X115825000Y-113525000D01*
X115475000Y-113525000D01*
X115457847Y-113524157D01*
X115440859Y-113521637D01*
X115424200Y-113517465D01*
X115408030Y-113511679D01*
X115392506Y-113504336D01*
X115377775Y-113495507D01*
X115363981Y-113485277D01*
X115351256Y-113473744D01*
X115339723Y-113461019D01*
X115329493Y-113447225D01*
X115320664Y-113432494D01*
X115313321Y-113416970D01*
X115307535Y-113400800D01*
X115303363Y-113384141D01*
X115300843Y-113367153D01*
X115300000Y-113350000D01*
X115300000Y-112850000D01*
X115300843Y-112832847D01*
X115303363Y-112815859D01*
X115307535Y-112799200D01*
X115313321Y-112783030D01*
X115320664Y-112767506D01*
X115329493Y-112752775D01*
X115339723Y-112738981D01*
X115351256Y-112726256D01*
X115363981Y-112714723D01*
X115377775Y-112704493D01*
X115392506Y-112695664D01*
X115408030Y-112688321D01*
X115424200Y-112682535D01*
X115440859Y-112678363D01*
X115457847Y-112675843D01*
X115475000Y-112675000D01*
X115825000Y-112675000D01*
X115842153Y-112675843D01*
X115842153Y-112675843D01*
G37*
D13*
X115650000Y-113100000D03*
D10*
G36*
X117142153Y-112675843D02*
G01*
X117159141Y-112678363D01*
X117175800Y-112682535D01*
X117191970Y-112688321D01*
X117207494Y-112695664D01*
X117222225Y-112704493D01*
X117236019Y-112714723D01*
X117248744Y-112726256D01*
X117260277Y-112738981D01*
X117270507Y-112752775D01*
X117279336Y-112767506D01*
X117286679Y-112783030D01*
X117292465Y-112799200D01*
X117296637Y-112815859D01*
X117299157Y-112832847D01*
X117300000Y-112850000D01*
X117300000Y-113350000D01*
X117299157Y-113367153D01*
X117296637Y-113384141D01*
X117292465Y-113400800D01*
X117286679Y-113416970D01*
X117279336Y-113432494D01*
X117270507Y-113447225D01*
X117260277Y-113461019D01*
X117248744Y-113473744D01*
X117236019Y-113485277D01*
X117222225Y-113495507D01*
X117207494Y-113504336D01*
X117191970Y-113511679D01*
X117175800Y-113517465D01*
X117159141Y-113521637D01*
X117142153Y-113524157D01*
X117125000Y-113525000D01*
X116775000Y-113525000D01*
X116757847Y-113524157D01*
X116740859Y-113521637D01*
X116724200Y-113517465D01*
X116708030Y-113511679D01*
X116692506Y-113504336D01*
X116677775Y-113495507D01*
X116663981Y-113485277D01*
X116651256Y-113473744D01*
X116639723Y-113461019D01*
X116629493Y-113447225D01*
X116620664Y-113432494D01*
X116613321Y-113416970D01*
X116607535Y-113400800D01*
X116603363Y-113384141D01*
X116600843Y-113367153D01*
X116600000Y-113350000D01*
X116600000Y-112850000D01*
X116600843Y-112832847D01*
X116603363Y-112815859D01*
X116607535Y-112799200D01*
X116613321Y-112783030D01*
X116620664Y-112767506D01*
X116629493Y-112752775D01*
X116639723Y-112738981D01*
X116651256Y-112726256D01*
X116663981Y-112714723D01*
X116677775Y-112704493D01*
X116692506Y-112695664D01*
X116708030Y-112688321D01*
X116724200Y-112682535D01*
X116740859Y-112678363D01*
X116757847Y-112675843D01*
X116775000Y-112675000D01*
X117125000Y-112675000D01*
X117142153Y-112675843D01*
X117142153Y-112675843D01*
G37*
D13*
X116950000Y-113100000D03*
D10*
G36*
X118242153Y-112675843D02*
G01*
X118259141Y-112678363D01*
X118275800Y-112682535D01*
X118291970Y-112688321D01*
X118307494Y-112695664D01*
X118322225Y-112704493D01*
X118336019Y-112714723D01*
X118348744Y-112726256D01*
X118360277Y-112738981D01*
X118370507Y-112752775D01*
X118379336Y-112767506D01*
X118386679Y-112783030D01*
X118392465Y-112799200D01*
X118396637Y-112815859D01*
X118399157Y-112832847D01*
X118400000Y-112850000D01*
X118400000Y-113350000D01*
X118399157Y-113367153D01*
X118396637Y-113384141D01*
X118392465Y-113400800D01*
X118386679Y-113416970D01*
X118379336Y-113432494D01*
X118370507Y-113447225D01*
X118360277Y-113461019D01*
X118348744Y-113473744D01*
X118336019Y-113485277D01*
X118322225Y-113495507D01*
X118307494Y-113504336D01*
X118291970Y-113511679D01*
X118275800Y-113517465D01*
X118259141Y-113521637D01*
X118242153Y-113524157D01*
X118225000Y-113525000D01*
X117875000Y-113525000D01*
X117857847Y-113524157D01*
X117840859Y-113521637D01*
X117824200Y-113517465D01*
X117808030Y-113511679D01*
X117792506Y-113504336D01*
X117777775Y-113495507D01*
X117763981Y-113485277D01*
X117751256Y-113473744D01*
X117739723Y-113461019D01*
X117729493Y-113447225D01*
X117720664Y-113432494D01*
X117713321Y-113416970D01*
X117707535Y-113400800D01*
X117703363Y-113384141D01*
X117700843Y-113367153D01*
X117700000Y-113350000D01*
X117700000Y-112850000D01*
X117700843Y-112832847D01*
X117703363Y-112815859D01*
X117707535Y-112799200D01*
X117713321Y-112783030D01*
X117720664Y-112767506D01*
X117729493Y-112752775D01*
X117739723Y-112738981D01*
X117751256Y-112726256D01*
X117763981Y-112714723D01*
X117777775Y-112704493D01*
X117792506Y-112695664D01*
X117808030Y-112688321D01*
X117824200Y-112682535D01*
X117840859Y-112678363D01*
X117857847Y-112675843D01*
X117875000Y-112675000D01*
X118225000Y-112675000D01*
X118242153Y-112675843D01*
X118242153Y-112675843D01*
G37*
D13*
X118050000Y-113100000D03*
D10*
G36*
X119542153Y-112675843D02*
G01*
X119559141Y-112678363D01*
X119575800Y-112682535D01*
X119591970Y-112688321D01*
X119607494Y-112695664D01*
X119622225Y-112704493D01*
X119636019Y-112714723D01*
X119648744Y-112726256D01*
X119660277Y-112738981D01*
X119670507Y-112752775D01*
X119679336Y-112767506D01*
X119686679Y-112783030D01*
X119692465Y-112799200D01*
X119696637Y-112815859D01*
X119699157Y-112832847D01*
X119700000Y-112850000D01*
X119700000Y-113350000D01*
X119699157Y-113367153D01*
X119696637Y-113384141D01*
X119692465Y-113400800D01*
X119686679Y-113416970D01*
X119679336Y-113432494D01*
X119670507Y-113447225D01*
X119660277Y-113461019D01*
X119648744Y-113473744D01*
X119636019Y-113485277D01*
X119622225Y-113495507D01*
X119607494Y-113504336D01*
X119591970Y-113511679D01*
X119575800Y-113517465D01*
X119559141Y-113521637D01*
X119542153Y-113524157D01*
X119525000Y-113525000D01*
X119175000Y-113525000D01*
X119157847Y-113524157D01*
X119140859Y-113521637D01*
X119124200Y-113517465D01*
X119108030Y-113511679D01*
X119092506Y-113504336D01*
X119077775Y-113495507D01*
X119063981Y-113485277D01*
X119051256Y-113473744D01*
X119039723Y-113461019D01*
X119029493Y-113447225D01*
X119020664Y-113432494D01*
X119013321Y-113416970D01*
X119007535Y-113400800D01*
X119003363Y-113384141D01*
X119000843Y-113367153D01*
X119000000Y-113350000D01*
X119000000Y-112850000D01*
X119000843Y-112832847D01*
X119003363Y-112815859D01*
X119007535Y-112799200D01*
X119013321Y-112783030D01*
X119020664Y-112767506D01*
X119029493Y-112752775D01*
X119039723Y-112738981D01*
X119051256Y-112726256D01*
X119063981Y-112714723D01*
X119077775Y-112704493D01*
X119092506Y-112695664D01*
X119108030Y-112688321D01*
X119124200Y-112682535D01*
X119140859Y-112678363D01*
X119157847Y-112675843D01*
X119175000Y-112675000D01*
X119525000Y-112675000D01*
X119542153Y-112675843D01*
X119542153Y-112675843D01*
G37*
D13*
X119350000Y-113100000D03*
D10*
G36*
X118242153Y-111475843D02*
G01*
X118259141Y-111478363D01*
X118275800Y-111482535D01*
X118291970Y-111488321D01*
X118307494Y-111495664D01*
X118322225Y-111504493D01*
X118336019Y-111514723D01*
X118348744Y-111526256D01*
X118360277Y-111538981D01*
X118370507Y-111552775D01*
X118379336Y-111567506D01*
X118386679Y-111583030D01*
X118392465Y-111599200D01*
X118396637Y-111615859D01*
X118399157Y-111632847D01*
X118400000Y-111650000D01*
X118400000Y-112150000D01*
X118399157Y-112167153D01*
X118396637Y-112184141D01*
X118392465Y-112200800D01*
X118386679Y-112216970D01*
X118379336Y-112232494D01*
X118370507Y-112247225D01*
X118360277Y-112261019D01*
X118348744Y-112273744D01*
X118336019Y-112285277D01*
X118322225Y-112295507D01*
X118307494Y-112304336D01*
X118291970Y-112311679D01*
X118275800Y-112317465D01*
X118259141Y-112321637D01*
X118242153Y-112324157D01*
X118225000Y-112325000D01*
X117875000Y-112325000D01*
X117857847Y-112324157D01*
X117840859Y-112321637D01*
X117824200Y-112317465D01*
X117808030Y-112311679D01*
X117792506Y-112304336D01*
X117777775Y-112295507D01*
X117763981Y-112285277D01*
X117751256Y-112273744D01*
X117739723Y-112261019D01*
X117729493Y-112247225D01*
X117720664Y-112232494D01*
X117713321Y-112216970D01*
X117707535Y-112200800D01*
X117703363Y-112184141D01*
X117700843Y-112167153D01*
X117700000Y-112150000D01*
X117700000Y-111650000D01*
X117700843Y-111632847D01*
X117703363Y-111615859D01*
X117707535Y-111599200D01*
X117713321Y-111583030D01*
X117720664Y-111567506D01*
X117729493Y-111552775D01*
X117739723Y-111538981D01*
X117751256Y-111526256D01*
X117763981Y-111514723D01*
X117777775Y-111504493D01*
X117792506Y-111495664D01*
X117808030Y-111488321D01*
X117824200Y-111482535D01*
X117840859Y-111478363D01*
X117857847Y-111475843D01*
X117875000Y-111475000D01*
X118225000Y-111475000D01*
X118242153Y-111475843D01*
X118242153Y-111475843D01*
G37*
D13*
X118050000Y-111900000D03*
D10*
G36*
X119542153Y-111475843D02*
G01*
X119559141Y-111478363D01*
X119575800Y-111482535D01*
X119591970Y-111488321D01*
X119607494Y-111495664D01*
X119622225Y-111504493D01*
X119636019Y-111514723D01*
X119648744Y-111526256D01*
X119660277Y-111538981D01*
X119670507Y-111552775D01*
X119679336Y-111567506D01*
X119686679Y-111583030D01*
X119692465Y-111599200D01*
X119696637Y-111615859D01*
X119699157Y-111632847D01*
X119700000Y-111650000D01*
X119700000Y-112150000D01*
X119699157Y-112167153D01*
X119696637Y-112184141D01*
X119692465Y-112200800D01*
X119686679Y-112216970D01*
X119679336Y-112232494D01*
X119670507Y-112247225D01*
X119660277Y-112261019D01*
X119648744Y-112273744D01*
X119636019Y-112285277D01*
X119622225Y-112295507D01*
X119607494Y-112304336D01*
X119591970Y-112311679D01*
X119575800Y-112317465D01*
X119559141Y-112321637D01*
X119542153Y-112324157D01*
X119525000Y-112325000D01*
X119175000Y-112325000D01*
X119157847Y-112324157D01*
X119140859Y-112321637D01*
X119124200Y-112317465D01*
X119108030Y-112311679D01*
X119092506Y-112304336D01*
X119077775Y-112295507D01*
X119063981Y-112285277D01*
X119051256Y-112273744D01*
X119039723Y-112261019D01*
X119029493Y-112247225D01*
X119020664Y-112232494D01*
X119013321Y-112216970D01*
X119007535Y-112200800D01*
X119003363Y-112184141D01*
X119000843Y-112167153D01*
X119000000Y-112150000D01*
X119000000Y-111650000D01*
X119000843Y-111632847D01*
X119003363Y-111615859D01*
X119007535Y-111599200D01*
X119013321Y-111583030D01*
X119020664Y-111567506D01*
X119029493Y-111552775D01*
X119039723Y-111538981D01*
X119051256Y-111526256D01*
X119063981Y-111514723D01*
X119077775Y-111504493D01*
X119092506Y-111495664D01*
X119108030Y-111488321D01*
X119124200Y-111482535D01*
X119140859Y-111478363D01*
X119157847Y-111475843D01*
X119175000Y-111475000D01*
X119525000Y-111475000D01*
X119542153Y-111475843D01*
X119542153Y-111475843D01*
G37*
D13*
X119350000Y-111900000D03*
D10*
G36*
X117142153Y-111475843D02*
G01*
X117159141Y-111478363D01*
X117175800Y-111482535D01*
X117191970Y-111488321D01*
X117207494Y-111495664D01*
X117222225Y-111504493D01*
X117236019Y-111514723D01*
X117248744Y-111526256D01*
X117260277Y-111538981D01*
X117270507Y-111552775D01*
X117279336Y-111567506D01*
X117286679Y-111583030D01*
X117292465Y-111599200D01*
X117296637Y-111615859D01*
X117299157Y-111632847D01*
X117300000Y-111650000D01*
X117300000Y-112150000D01*
X117299157Y-112167153D01*
X117296637Y-112184141D01*
X117292465Y-112200800D01*
X117286679Y-112216970D01*
X117279336Y-112232494D01*
X117270507Y-112247225D01*
X117260277Y-112261019D01*
X117248744Y-112273744D01*
X117236019Y-112285277D01*
X117222225Y-112295507D01*
X117207494Y-112304336D01*
X117191970Y-112311679D01*
X117175800Y-112317465D01*
X117159141Y-112321637D01*
X117142153Y-112324157D01*
X117125000Y-112325000D01*
X116775000Y-112325000D01*
X116757847Y-112324157D01*
X116740859Y-112321637D01*
X116724200Y-112317465D01*
X116708030Y-112311679D01*
X116692506Y-112304336D01*
X116677775Y-112295507D01*
X116663981Y-112285277D01*
X116651256Y-112273744D01*
X116639723Y-112261019D01*
X116629493Y-112247225D01*
X116620664Y-112232494D01*
X116613321Y-112216970D01*
X116607535Y-112200800D01*
X116603363Y-112184141D01*
X116600843Y-112167153D01*
X116600000Y-112150000D01*
X116600000Y-111650000D01*
X116600843Y-111632847D01*
X116603363Y-111615859D01*
X116607535Y-111599200D01*
X116613321Y-111583030D01*
X116620664Y-111567506D01*
X116629493Y-111552775D01*
X116639723Y-111538981D01*
X116651256Y-111526256D01*
X116663981Y-111514723D01*
X116677775Y-111504493D01*
X116692506Y-111495664D01*
X116708030Y-111488321D01*
X116724200Y-111482535D01*
X116740859Y-111478363D01*
X116757847Y-111475843D01*
X116775000Y-111475000D01*
X117125000Y-111475000D01*
X117142153Y-111475843D01*
X117142153Y-111475843D01*
G37*
D13*
X116950000Y-111900000D03*
D10*
G36*
X115842153Y-111475843D02*
G01*
X115859141Y-111478363D01*
X115875800Y-111482535D01*
X115891970Y-111488321D01*
X115907494Y-111495664D01*
X115922225Y-111504493D01*
X115936019Y-111514723D01*
X115948744Y-111526256D01*
X115960277Y-111538981D01*
X115970507Y-111552775D01*
X115979336Y-111567506D01*
X115986679Y-111583030D01*
X115992465Y-111599200D01*
X115996637Y-111615859D01*
X115999157Y-111632847D01*
X116000000Y-111650000D01*
X116000000Y-112150000D01*
X115999157Y-112167153D01*
X115996637Y-112184141D01*
X115992465Y-112200800D01*
X115986679Y-112216970D01*
X115979336Y-112232494D01*
X115970507Y-112247225D01*
X115960277Y-112261019D01*
X115948744Y-112273744D01*
X115936019Y-112285277D01*
X115922225Y-112295507D01*
X115907494Y-112304336D01*
X115891970Y-112311679D01*
X115875800Y-112317465D01*
X115859141Y-112321637D01*
X115842153Y-112324157D01*
X115825000Y-112325000D01*
X115475000Y-112325000D01*
X115457847Y-112324157D01*
X115440859Y-112321637D01*
X115424200Y-112317465D01*
X115408030Y-112311679D01*
X115392506Y-112304336D01*
X115377775Y-112295507D01*
X115363981Y-112285277D01*
X115351256Y-112273744D01*
X115339723Y-112261019D01*
X115329493Y-112247225D01*
X115320664Y-112232494D01*
X115313321Y-112216970D01*
X115307535Y-112200800D01*
X115303363Y-112184141D01*
X115300843Y-112167153D01*
X115300000Y-112150000D01*
X115300000Y-111650000D01*
X115300843Y-111632847D01*
X115303363Y-111615859D01*
X115307535Y-111599200D01*
X115313321Y-111583030D01*
X115320664Y-111567506D01*
X115329493Y-111552775D01*
X115339723Y-111538981D01*
X115351256Y-111526256D01*
X115363981Y-111514723D01*
X115377775Y-111504493D01*
X115392506Y-111495664D01*
X115408030Y-111488321D01*
X115424200Y-111482535D01*
X115440859Y-111478363D01*
X115457847Y-111475843D01*
X115475000Y-111475000D01*
X115825000Y-111475000D01*
X115842153Y-111475843D01*
X115842153Y-111475843D01*
G37*
D13*
X115650000Y-111900000D03*
D10*
G36*
X121942153Y-120575843D02*
G01*
X121959141Y-120578363D01*
X121975800Y-120582535D01*
X121991970Y-120588321D01*
X122007494Y-120595664D01*
X122022225Y-120604493D01*
X122036019Y-120614723D01*
X122048744Y-120626256D01*
X122060277Y-120638981D01*
X122070507Y-120652775D01*
X122079336Y-120667506D01*
X122086679Y-120683030D01*
X122092465Y-120699200D01*
X122096637Y-120715859D01*
X122099157Y-120732847D01*
X122100000Y-120750000D01*
X122100000Y-121250000D01*
X122099157Y-121267153D01*
X122096637Y-121284141D01*
X122092465Y-121300800D01*
X122086679Y-121316970D01*
X122079336Y-121332494D01*
X122070507Y-121347225D01*
X122060277Y-121361019D01*
X122048744Y-121373744D01*
X122036019Y-121385277D01*
X122022225Y-121395507D01*
X122007494Y-121404336D01*
X121991970Y-121411679D01*
X121975800Y-121417465D01*
X121959141Y-121421637D01*
X121942153Y-121424157D01*
X121925000Y-121425000D01*
X121575000Y-121425000D01*
X121557847Y-121424157D01*
X121540859Y-121421637D01*
X121524200Y-121417465D01*
X121508030Y-121411679D01*
X121492506Y-121404336D01*
X121477775Y-121395507D01*
X121463981Y-121385277D01*
X121451256Y-121373744D01*
X121439723Y-121361019D01*
X121429493Y-121347225D01*
X121420664Y-121332494D01*
X121413321Y-121316970D01*
X121407535Y-121300800D01*
X121403363Y-121284141D01*
X121400843Y-121267153D01*
X121400000Y-121250000D01*
X121400000Y-120750000D01*
X121400843Y-120732847D01*
X121403363Y-120715859D01*
X121407535Y-120699200D01*
X121413321Y-120683030D01*
X121420664Y-120667506D01*
X121429493Y-120652775D01*
X121439723Y-120638981D01*
X121451256Y-120626256D01*
X121463981Y-120614723D01*
X121477775Y-120604493D01*
X121492506Y-120595664D01*
X121508030Y-120588321D01*
X121524200Y-120582535D01*
X121540859Y-120578363D01*
X121557847Y-120575843D01*
X121575000Y-120575000D01*
X121925000Y-120575000D01*
X121942153Y-120575843D01*
X121942153Y-120575843D01*
G37*
D13*
X121750000Y-121000000D03*
D10*
G36*
X120642153Y-120575843D02*
G01*
X120659141Y-120578363D01*
X120675800Y-120582535D01*
X120691970Y-120588321D01*
X120707494Y-120595664D01*
X120722225Y-120604493D01*
X120736019Y-120614723D01*
X120748744Y-120626256D01*
X120760277Y-120638981D01*
X120770507Y-120652775D01*
X120779336Y-120667506D01*
X120786679Y-120683030D01*
X120792465Y-120699200D01*
X120796637Y-120715859D01*
X120799157Y-120732847D01*
X120800000Y-120750000D01*
X120800000Y-121250000D01*
X120799157Y-121267153D01*
X120796637Y-121284141D01*
X120792465Y-121300800D01*
X120786679Y-121316970D01*
X120779336Y-121332494D01*
X120770507Y-121347225D01*
X120760277Y-121361019D01*
X120748744Y-121373744D01*
X120736019Y-121385277D01*
X120722225Y-121395507D01*
X120707494Y-121404336D01*
X120691970Y-121411679D01*
X120675800Y-121417465D01*
X120659141Y-121421637D01*
X120642153Y-121424157D01*
X120625000Y-121425000D01*
X120275000Y-121425000D01*
X120257847Y-121424157D01*
X120240859Y-121421637D01*
X120224200Y-121417465D01*
X120208030Y-121411679D01*
X120192506Y-121404336D01*
X120177775Y-121395507D01*
X120163981Y-121385277D01*
X120151256Y-121373744D01*
X120139723Y-121361019D01*
X120129493Y-121347225D01*
X120120664Y-121332494D01*
X120113321Y-121316970D01*
X120107535Y-121300800D01*
X120103363Y-121284141D01*
X120100843Y-121267153D01*
X120100000Y-121250000D01*
X120100000Y-120750000D01*
X120100843Y-120732847D01*
X120103363Y-120715859D01*
X120107535Y-120699200D01*
X120113321Y-120683030D01*
X120120664Y-120667506D01*
X120129493Y-120652775D01*
X120139723Y-120638981D01*
X120151256Y-120626256D01*
X120163981Y-120614723D01*
X120177775Y-120604493D01*
X120192506Y-120595664D01*
X120208030Y-120588321D01*
X120224200Y-120582535D01*
X120240859Y-120578363D01*
X120257847Y-120575843D01*
X120275000Y-120575000D01*
X120625000Y-120575000D01*
X120642153Y-120575843D01*
X120642153Y-120575843D01*
G37*
D13*
X120450000Y-121000000D03*
D14*
X113800000Y-111200000D03*
D10*
G36*
X114211756Y-110901806D02*
G01*
X114248159Y-110907206D01*
X114283857Y-110916147D01*
X114318506Y-110928545D01*
X114351774Y-110944280D01*
X114383339Y-110963199D01*
X114412897Y-110985121D01*
X114440165Y-111009835D01*
X114464879Y-111037103D01*
X114486801Y-111066661D01*
X114505720Y-111098226D01*
X114521455Y-111131494D01*
X114533853Y-111166143D01*
X114542794Y-111201841D01*
X114548194Y-111238244D01*
X114550000Y-111275000D01*
X114550000Y-112525000D01*
X114548194Y-112561756D01*
X114542794Y-112598159D01*
X114533853Y-112633857D01*
X114521455Y-112668506D01*
X114505720Y-112701774D01*
X114486801Y-112733339D01*
X114464879Y-112762897D01*
X114440165Y-112790165D01*
X114412897Y-112814879D01*
X114383339Y-112836801D01*
X114351774Y-112855720D01*
X114318506Y-112871455D01*
X114283857Y-112883853D01*
X114248159Y-112892794D01*
X114211756Y-112898194D01*
X114175000Y-112900000D01*
X113425000Y-112900000D01*
X113388244Y-112898194D01*
X113351841Y-112892794D01*
X113316143Y-112883853D01*
X113281494Y-112871455D01*
X113248226Y-112855720D01*
X113216661Y-112836801D01*
X113187103Y-112814879D01*
X113159835Y-112790165D01*
X113135121Y-112762897D01*
X113113199Y-112733339D01*
X113094280Y-112701774D01*
X113078545Y-112668506D01*
X113066147Y-112633857D01*
X113057206Y-112598159D01*
X113051806Y-112561756D01*
X113050000Y-112525000D01*
X113050000Y-111275000D01*
X113051806Y-111238244D01*
X113057206Y-111201841D01*
X113066147Y-111166143D01*
X113078545Y-111131494D01*
X113094280Y-111098226D01*
X113113199Y-111066661D01*
X113135121Y-111037103D01*
X113159835Y-111009835D01*
X113187103Y-110985121D01*
X113216661Y-110963199D01*
X113248226Y-110944280D01*
X113281494Y-110928545D01*
X113316143Y-110916147D01*
X113351841Y-110907206D01*
X113388244Y-110901806D01*
X113425000Y-110900000D01*
X114175000Y-110900000D01*
X114211756Y-110901806D01*
X114211756Y-110901806D01*
G37*
D14*
X113800000Y-111900000D03*
X113800000Y-133700000D03*
D10*
G36*
X114211756Y-132001806D02*
G01*
X114248159Y-132007206D01*
X114283857Y-132016147D01*
X114318506Y-132028545D01*
X114351774Y-132044280D01*
X114383339Y-132063199D01*
X114412897Y-132085121D01*
X114440165Y-132109835D01*
X114464879Y-132137103D01*
X114486801Y-132166661D01*
X114505720Y-132198226D01*
X114521455Y-132231494D01*
X114533853Y-132266143D01*
X114542794Y-132301841D01*
X114548194Y-132338244D01*
X114550000Y-132375000D01*
X114550000Y-133625000D01*
X114548194Y-133661756D01*
X114542794Y-133698159D01*
X114533853Y-133733857D01*
X114521455Y-133768506D01*
X114505720Y-133801774D01*
X114486801Y-133833339D01*
X114464879Y-133862897D01*
X114440165Y-133890165D01*
X114412897Y-133914879D01*
X114383339Y-133936801D01*
X114351774Y-133955720D01*
X114318506Y-133971455D01*
X114283857Y-133983853D01*
X114248159Y-133992794D01*
X114211756Y-133998194D01*
X114175000Y-134000000D01*
X113425000Y-134000000D01*
X113388244Y-133998194D01*
X113351841Y-133992794D01*
X113316143Y-133983853D01*
X113281494Y-133971455D01*
X113248226Y-133955720D01*
X113216661Y-133936801D01*
X113187103Y-133914879D01*
X113159835Y-133890165D01*
X113135121Y-133862897D01*
X113113199Y-133833339D01*
X113094280Y-133801774D01*
X113078545Y-133768506D01*
X113066147Y-133733857D01*
X113057206Y-133698159D01*
X113051806Y-133661756D01*
X113050000Y-133625000D01*
X113050000Y-132375000D01*
X113051806Y-132338244D01*
X113057206Y-132301841D01*
X113066147Y-132266143D01*
X113078545Y-132231494D01*
X113094280Y-132198226D01*
X113113199Y-132166661D01*
X113135121Y-132137103D01*
X113159835Y-132109835D01*
X113187103Y-132085121D01*
X113216661Y-132063199D01*
X113248226Y-132044280D01*
X113281494Y-132028545D01*
X113316143Y-132016147D01*
X113351841Y-132007206D01*
X113388244Y-132001806D01*
X113425000Y-132000000D01*
X114175000Y-132000000D01*
X114211756Y-132001806D01*
X114211756Y-132001806D01*
G37*
D14*
X113800000Y-133000000D03*
X122600000Y-111200000D03*
D10*
G36*
X123011756Y-110901806D02*
G01*
X123048159Y-110907206D01*
X123083857Y-110916147D01*
X123118506Y-110928545D01*
X123151774Y-110944280D01*
X123183339Y-110963199D01*
X123212897Y-110985121D01*
X123240165Y-111009835D01*
X123264879Y-111037103D01*
X123286801Y-111066661D01*
X123305720Y-111098226D01*
X123321455Y-111131494D01*
X123333853Y-111166143D01*
X123342794Y-111201841D01*
X123348194Y-111238244D01*
X123350000Y-111275000D01*
X123350000Y-112525000D01*
X123348194Y-112561756D01*
X123342794Y-112598159D01*
X123333853Y-112633857D01*
X123321455Y-112668506D01*
X123305720Y-112701774D01*
X123286801Y-112733339D01*
X123264879Y-112762897D01*
X123240165Y-112790165D01*
X123212897Y-112814879D01*
X123183339Y-112836801D01*
X123151774Y-112855720D01*
X123118506Y-112871455D01*
X123083857Y-112883853D01*
X123048159Y-112892794D01*
X123011756Y-112898194D01*
X122975000Y-112900000D01*
X122225000Y-112900000D01*
X122188244Y-112898194D01*
X122151841Y-112892794D01*
X122116143Y-112883853D01*
X122081494Y-112871455D01*
X122048226Y-112855720D01*
X122016661Y-112836801D01*
X121987103Y-112814879D01*
X121959835Y-112790165D01*
X121935121Y-112762897D01*
X121913199Y-112733339D01*
X121894280Y-112701774D01*
X121878545Y-112668506D01*
X121866147Y-112633857D01*
X121857206Y-112598159D01*
X121851806Y-112561756D01*
X121850000Y-112525000D01*
X121850000Y-111275000D01*
X121851806Y-111238244D01*
X121857206Y-111201841D01*
X121866147Y-111166143D01*
X121878545Y-111131494D01*
X121894280Y-111098226D01*
X121913199Y-111066661D01*
X121935121Y-111037103D01*
X121959835Y-111009835D01*
X121987103Y-110985121D01*
X122016661Y-110963199D01*
X122048226Y-110944280D01*
X122081494Y-110928545D01*
X122116143Y-110916147D01*
X122151841Y-110907206D01*
X122188244Y-110901806D01*
X122225000Y-110900000D01*
X122975000Y-110900000D01*
X123011756Y-110901806D01*
X123011756Y-110901806D01*
G37*
D14*
X122600000Y-111900000D03*
X122600000Y-133700000D03*
D10*
G36*
X123011756Y-132001806D02*
G01*
X123048159Y-132007206D01*
X123083857Y-132016147D01*
X123118506Y-132028545D01*
X123151774Y-132044280D01*
X123183339Y-132063199D01*
X123212897Y-132085121D01*
X123240165Y-132109835D01*
X123264879Y-132137103D01*
X123286801Y-132166661D01*
X123305720Y-132198226D01*
X123321455Y-132231494D01*
X123333853Y-132266143D01*
X123342794Y-132301841D01*
X123348194Y-132338244D01*
X123350000Y-132375000D01*
X123350000Y-133625000D01*
X123348194Y-133661756D01*
X123342794Y-133698159D01*
X123333853Y-133733857D01*
X123321455Y-133768506D01*
X123305720Y-133801774D01*
X123286801Y-133833339D01*
X123264879Y-133862897D01*
X123240165Y-133890165D01*
X123212897Y-133914879D01*
X123183339Y-133936801D01*
X123151774Y-133955720D01*
X123118506Y-133971455D01*
X123083857Y-133983853D01*
X123048159Y-133992794D01*
X123011756Y-133998194D01*
X122975000Y-134000000D01*
X122225000Y-134000000D01*
X122188244Y-133998194D01*
X122151841Y-133992794D01*
X122116143Y-133983853D01*
X122081494Y-133971455D01*
X122048226Y-133955720D01*
X122016661Y-133936801D01*
X121987103Y-133914879D01*
X121959835Y-133890165D01*
X121935121Y-133862897D01*
X121913199Y-133833339D01*
X121894280Y-133801774D01*
X121878545Y-133768506D01*
X121866147Y-133733857D01*
X121857206Y-133698159D01*
X121851806Y-133661756D01*
X121850000Y-133625000D01*
X121850000Y-132375000D01*
X121851806Y-132338244D01*
X121857206Y-132301841D01*
X121866147Y-132266143D01*
X121878545Y-132231494D01*
X121894280Y-132198226D01*
X121913199Y-132166661D01*
X121935121Y-132137103D01*
X121959835Y-132109835D01*
X121987103Y-132085121D01*
X122016661Y-132063199D01*
X122048226Y-132044280D01*
X122081494Y-132028545D01*
X122116143Y-132016147D01*
X122151841Y-132007206D01*
X122188244Y-132001806D01*
X122225000Y-132000000D01*
X122975000Y-132000000D01*
X123011756Y-132001806D01*
X123011756Y-132001806D01*
G37*
D14*
X122600000Y-133000000D03*
D10*
G36*
X117099504Y-130876204D02*
G01*
X117123773Y-130879804D01*
X117147571Y-130885765D01*
X117170671Y-130894030D01*
X117192849Y-130904520D01*
X117213893Y-130917133D01*
X117233598Y-130931747D01*
X117251777Y-130948223D01*
X117268253Y-130966402D01*
X117282867Y-130986107D01*
X117295480Y-131007151D01*
X117305970Y-131029329D01*
X117314235Y-131052429D01*
X117320196Y-131076227D01*
X117323796Y-131100496D01*
X117325000Y-131125000D01*
X117325000Y-133275000D01*
X117323796Y-133299504D01*
X117320196Y-133323773D01*
X117314235Y-133347571D01*
X117305970Y-133370671D01*
X117295480Y-133392849D01*
X117282867Y-133413893D01*
X117268253Y-133433598D01*
X117251777Y-133451777D01*
X117233598Y-133468253D01*
X117213893Y-133482867D01*
X117192849Y-133495480D01*
X117170671Y-133505970D01*
X117147571Y-133514235D01*
X117123773Y-133520196D01*
X117099504Y-133523796D01*
X117075000Y-133525000D01*
X116325000Y-133525000D01*
X116300496Y-133523796D01*
X116276227Y-133520196D01*
X116252429Y-133514235D01*
X116229329Y-133505970D01*
X116207151Y-133495480D01*
X116186107Y-133482867D01*
X116166402Y-133468253D01*
X116148223Y-133451777D01*
X116131747Y-133433598D01*
X116117133Y-133413893D01*
X116104520Y-133392849D01*
X116094030Y-133370671D01*
X116085765Y-133347571D01*
X116079804Y-133323773D01*
X116076204Y-133299504D01*
X116075000Y-133275000D01*
X116075000Y-131125000D01*
X116076204Y-131100496D01*
X116079804Y-131076227D01*
X116085765Y-131052429D01*
X116094030Y-131029329D01*
X116104520Y-131007151D01*
X116117133Y-130986107D01*
X116131747Y-130966402D01*
X116148223Y-130948223D01*
X116166402Y-130931747D01*
X116186107Y-130917133D01*
X116207151Y-130904520D01*
X116229329Y-130894030D01*
X116252429Y-130885765D01*
X116276227Y-130879804D01*
X116300496Y-130876204D01*
X116325000Y-130875000D01*
X117075000Y-130875000D01*
X117099504Y-130876204D01*
X117099504Y-130876204D01*
G37*
D15*
X116700000Y-132200000D03*
D10*
G36*
X119899504Y-130876204D02*
G01*
X119923773Y-130879804D01*
X119947571Y-130885765D01*
X119970671Y-130894030D01*
X119992849Y-130904520D01*
X120013893Y-130917133D01*
X120033598Y-130931747D01*
X120051777Y-130948223D01*
X120068253Y-130966402D01*
X120082867Y-130986107D01*
X120095480Y-131007151D01*
X120105970Y-131029329D01*
X120114235Y-131052429D01*
X120120196Y-131076227D01*
X120123796Y-131100496D01*
X120125000Y-131125000D01*
X120125000Y-133275000D01*
X120123796Y-133299504D01*
X120120196Y-133323773D01*
X120114235Y-133347571D01*
X120105970Y-133370671D01*
X120095480Y-133392849D01*
X120082867Y-133413893D01*
X120068253Y-133433598D01*
X120051777Y-133451777D01*
X120033598Y-133468253D01*
X120013893Y-133482867D01*
X119992849Y-133495480D01*
X119970671Y-133505970D01*
X119947571Y-133514235D01*
X119923773Y-133520196D01*
X119899504Y-133523796D01*
X119875000Y-133525000D01*
X119125000Y-133525000D01*
X119100496Y-133523796D01*
X119076227Y-133520196D01*
X119052429Y-133514235D01*
X119029329Y-133505970D01*
X119007151Y-133495480D01*
X118986107Y-133482867D01*
X118966402Y-133468253D01*
X118948223Y-133451777D01*
X118931747Y-133433598D01*
X118917133Y-133413893D01*
X118904520Y-133392849D01*
X118894030Y-133370671D01*
X118885765Y-133347571D01*
X118879804Y-133323773D01*
X118876204Y-133299504D01*
X118875000Y-133275000D01*
X118875000Y-131125000D01*
X118876204Y-131100496D01*
X118879804Y-131076227D01*
X118885765Y-131052429D01*
X118894030Y-131029329D01*
X118904520Y-131007151D01*
X118917133Y-130986107D01*
X118931747Y-130966402D01*
X118948223Y-130948223D01*
X118966402Y-130931747D01*
X118986107Y-130917133D01*
X119007151Y-130904520D01*
X119029329Y-130894030D01*
X119052429Y-130885765D01*
X119076227Y-130879804D01*
X119100496Y-130876204D01*
X119125000Y-130875000D01*
X119875000Y-130875000D01*
X119899504Y-130876204D01*
X119899504Y-130876204D01*
G37*
D15*
X119500000Y-132200000D03*
D10*
G36*
X122899504Y-116076204D02*
G01*
X122923773Y-116079804D01*
X122947571Y-116085765D01*
X122970671Y-116094030D01*
X122992849Y-116104520D01*
X123013893Y-116117133D01*
X123033598Y-116131747D01*
X123051777Y-116148223D01*
X123068253Y-116166402D01*
X123082867Y-116186107D01*
X123095480Y-116207151D01*
X123105970Y-116229329D01*
X123114235Y-116252429D01*
X123120196Y-116276227D01*
X123123796Y-116300496D01*
X123125000Y-116325000D01*
X123125000Y-117075000D01*
X123123796Y-117099504D01*
X123120196Y-117123773D01*
X123114235Y-117147571D01*
X123105970Y-117170671D01*
X123095480Y-117192849D01*
X123082867Y-117213893D01*
X123068253Y-117233598D01*
X123051777Y-117251777D01*
X123033598Y-117268253D01*
X123013893Y-117282867D01*
X122992849Y-117295480D01*
X122970671Y-117305970D01*
X122947571Y-117314235D01*
X122923773Y-117320196D01*
X122899504Y-117323796D01*
X122875000Y-117325000D01*
X120725000Y-117325000D01*
X120700496Y-117323796D01*
X120676227Y-117320196D01*
X120652429Y-117314235D01*
X120629329Y-117305970D01*
X120607151Y-117295480D01*
X120586107Y-117282867D01*
X120566402Y-117268253D01*
X120548223Y-117251777D01*
X120531747Y-117233598D01*
X120517133Y-117213893D01*
X120504520Y-117192849D01*
X120494030Y-117170671D01*
X120485765Y-117147571D01*
X120479804Y-117123773D01*
X120476204Y-117099504D01*
X120475000Y-117075000D01*
X120475000Y-116325000D01*
X120476204Y-116300496D01*
X120479804Y-116276227D01*
X120485765Y-116252429D01*
X120494030Y-116229329D01*
X120504520Y-116207151D01*
X120517133Y-116186107D01*
X120531747Y-116166402D01*
X120548223Y-116148223D01*
X120566402Y-116131747D01*
X120586107Y-116117133D01*
X120607151Y-116104520D01*
X120629329Y-116094030D01*
X120652429Y-116085765D01*
X120676227Y-116079804D01*
X120700496Y-116076204D01*
X120725000Y-116075000D01*
X122875000Y-116075000D01*
X122899504Y-116076204D01*
X122899504Y-116076204D01*
G37*
D15*
X121800000Y-116700000D03*
D10*
G36*
X122899504Y-118876204D02*
G01*
X122923773Y-118879804D01*
X122947571Y-118885765D01*
X122970671Y-118894030D01*
X122992849Y-118904520D01*
X123013893Y-118917133D01*
X123033598Y-118931747D01*
X123051777Y-118948223D01*
X123068253Y-118966402D01*
X123082867Y-118986107D01*
X123095480Y-119007151D01*
X123105970Y-119029329D01*
X123114235Y-119052429D01*
X123120196Y-119076227D01*
X123123796Y-119100496D01*
X123125000Y-119125000D01*
X123125000Y-119875000D01*
X123123796Y-119899504D01*
X123120196Y-119923773D01*
X123114235Y-119947571D01*
X123105970Y-119970671D01*
X123095480Y-119992849D01*
X123082867Y-120013893D01*
X123068253Y-120033598D01*
X123051777Y-120051777D01*
X123033598Y-120068253D01*
X123013893Y-120082867D01*
X122992849Y-120095480D01*
X122970671Y-120105970D01*
X122947571Y-120114235D01*
X122923773Y-120120196D01*
X122899504Y-120123796D01*
X122875000Y-120125000D01*
X120725000Y-120125000D01*
X120700496Y-120123796D01*
X120676227Y-120120196D01*
X120652429Y-120114235D01*
X120629329Y-120105970D01*
X120607151Y-120095480D01*
X120586107Y-120082867D01*
X120566402Y-120068253D01*
X120548223Y-120051777D01*
X120531747Y-120033598D01*
X120517133Y-120013893D01*
X120504520Y-119992849D01*
X120494030Y-119970671D01*
X120485765Y-119947571D01*
X120479804Y-119923773D01*
X120476204Y-119899504D01*
X120475000Y-119875000D01*
X120475000Y-119125000D01*
X120476204Y-119100496D01*
X120479804Y-119076227D01*
X120485765Y-119052429D01*
X120494030Y-119029329D01*
X120504520Y-119007151D01*
X120517133Y-118986107D01*
X120531747Y-118966402D01*
X120548223Y-118948223D01*
X120566402Y-118931747D01*
X120586107Y-118917133D01*
X120607151Y-118904520D01*
X120629329Y-118894030D01*
X120652429Y-118885765D01*
X120676227Y-118879804D01*
X120700496Y-118876204D01*
X120725000Y-118875000D01*
X122875000Y-118875000D01*
X122899504Y-118876204D01*
X122899504Y-118876204D01*
G37*
D15*
X121800000Y-119500000D03*
D16*
X117500000Y-117500000D03*
D17*
X115595000Y-114800000D03*
X116865000Y-114800000D03*
X118135000Y-114800000D03*
X119405000Y-114800000D03*
X119405000Y-120200000D03*
X118135000Y-120200000D03*
X116865000Y-120200000D03*
X115595000Y-120200000D03*
D18*
X113800000Y-112500000D03*
X113700000Y-121100000D03*
X114700000Y-121100000D03*
X114200000Y-122000000D03*
X113800000Y-113500000D03*
X113800000Y-114500000D03*
X120200000Y-111900000D03*
X116700000Y-118300000D03*
X118300000Y-118300000D03*
X118300000Y-116700000D03*
X116700000Y-116700000D03*
X122700000Y-115300000D03*
X121700000Y-118100000D03*
X122700000Y-118100000D03*
X121700000Y-115300000D03*
X113700000Y-131200000D03*
X114700000Y-131200000D03*
X115300000Y-133000000D03*
X115300000Y-132000000D03*
X117400000Y-129300000D03*
X116200000Y-129400000D03*
X116200000Y-128300000D03*
X117400000Y-128000000D03*
X117900000Y-133000000D03*
X117900000Y-131500000D03*
X113700000Y-123300000D03*
X118500000Y-124000000D03*
X121300000Y-111900000D03*
X121700000Y-114300000D03*
X121700000Y-113300000D03*
X122700000Y-113300000D03*
X117400000Y-126700000D03*
X115700000Y-118500000D03*
X115700000Y-117400000D03*
X115700000Y-116300000D03*
X119200000Y-117500000D03*
X119200000Y-116200000D03*
X120600000Y-112900000D03*
X119600000Y-122600000D03*
X119600000Y-124000000D03*
X119600000Y-125300000D03*
X119600000Y-126700000D03*
X119600000Y-128000000D03*
X119600000Y-129300000D03*
X118500000Y-125300000D03*
X118500000Y-126700000D03*
X118500000Y-128000000D03*
X118500000Y-129300000D03*
X117400000Y-125300000D03*
X122700000Y-114300000D03*
X120305016Y-115200000D03*
X119900012Y-118800000D03*
D19*
X119350000Y-111900000D02*
X120200000Y-111900000D01*
X116950000Y-113100000D02*
X118050000Y-113100000D01*
X118135000Y-113185000D02*
X118050000Y-113100000D01*
X118135000Y-114800000D02*
X118135000Y-113185000D01*
X120305016Y-114634315D02*
X120305016Y-115200000D01*
D20*
X120465697Y-118800000D02*
X119900012Y-118800000D01*
X121900000Y-119500000D02*
X121165697Y-119500000D01*
X121165697Y-119500000D02*
X120465697Y-118800000D01*
D19*
X120305016Y-114055016D02*
X119350000Y-113100000D01*
X120305016Y-114305016D02*
X120305016Y-114055016D01*
X120305016Y-114305016D02*
X120305016Y-114634315D01*
X118700000Y-112550000D02*
X118050000Y-111900000D01*
X118700000Y-113620000D02*
X118700000Y-112550000D01*
X119405000Y-114800000D02*
X119405000Y-114325000D01*
X119405000Y-114325000D02*
X118700000Y-113620000D01*
D20*
X119405000Y-120605000D02*
X119405000Y-120200000D01*
X120550000Y-121000000D02*
X119800000Y-121000000D01*
X119800000Y-121000000D02*
X119405000Y-120605000D01*
X118135000Y-121735000D02*
X118135000Y-120200000D01*
X121850000Y-121000000D02*
X121099990Y-121750010D01*
X118150010Y-121750010D02*
X118135000Y-121735000D01*
X121099990Y-121750010D02*
X118150010Y-121750010D01*
D19*
X116300000Y-112550000D02*
X116950000Y-111900000D01*
X116300000Y-113800000D02*
X116300000Y-112550000D01*
X116865000Y-114800000D02*
X116865000Y-114365000D01*
X116865000Y-114365000D02*
X116300000Y-113800000D01*
G36*
X123000001Y-133300000D02*
G01*
X118900000Y-133300000D01*
X118900000Y-130900000D01*
X120300000Y-130900000D01*
X120319509Y-130898079D01*
X120338268Y-130892388D01*
X120355557Y-130883147D01*
X120370711Y-130870711D01*
X120383147Y-130855557D01*
X120392388Y-130838268D01*
X120398079Y-130819509D01*
X120400000Y-130800000D01*
X120400000Y-122175010D01*
X121079123Y-122175010D01*
X121099990Y-122177065D01*
X121120857Y-122175010D01*
X121120864Y-122175010D01*
X121183304Y-122168860D01*
X121263417Y-122144558D01*
X121337250Y-122105094D01*
X121401964Y-122051984D01*
X121415273Y-122035767D01*
X121724589Y-121726451D01*
X121925000Y-121726451D01*
X122017951Y-121717296D01*
X122107330Y-121690183D01*
X122189702Y-121646155D01*
X122261902Y-121586902D01*
X122321155Y-121514702D01*
X122365183Y-121432330D01*
X122392296Y-121342951D01*
X122401451Y-121250000D01*
X122401451Y-120750000D01*
X122392296Y-120657049D01*
X122365183Y-120567670D01*
X122321155Y-120485298D01*
X122261902Y-120413098D01*
X122189702Y-120353845D01*
X122107330Y-120309817D01*
X122017951Y-120282704D01*
X121925000Y-120273549D01*
X121575000Y-120273549D01*
X121482049Y-120282704D01*
X121392670Y-120309817D01*
X121310298Y-120353845D01*
X121238098Y-120413098D01*
X121178845Y-120485298D01*
X121134817Y-120567670D01*
X121107704Y-120657049D01*
X121100000Y-120735268D01*
X121092296Y-120657049D01*
X121065183Y-120567670D01*
X121021155Y-120485298D01*
X120961902Y-120413098D01*
X120889702Y-120353845D01*
X120807330Y-120309817D01*
X120717951Y-120282704D01*
X120625000Y-120273549D01*
X120400000Y-120273549D01*
X120400000Y-118800000D01*
X123000000Y-118800000D01*
X123000001Y-133300000D01*
X123000001Y-133300000D01*
G37*
X123000001Y-133300000D02*
X118900000Y-133300000D01*
X118900000Y-130900000D01*
X120300000Y-130900000D01*
X120319509Y-130898079D01*
X120338268Y-130892388D01*
X120355557Y-130883147D01*
X120370711Y-130870711D01*
X120383147Y-130855557D01*
X120392388Y-130838268D01*
X120398079Y-130819509D01*
X120400000Y-130800000D01*
X120400000Y-122175010D01*
X121079123Y-122175010D01*
X121099990Y-122177065D01*
X121120857Y-122175010D01*
X121120864Y-122175010D01*
X121183304Y-122168860D01*
X121263417Y-122144558D01*
X121337250Y-122105094D01*
X121401964Y-122051984D01*
X121415273Y-122035767D01*
X121724589Y-121726451D01*
X121925000Y-121726451D01*
X122017951Y-121717296D01*
X122107330Y-121690183D01*
X122189702Y-121646155D01*
X122261902Y-121586902D01*
X122321155Y-121514702D01*
X122365183Y-121432330D01*
X122392296Y-121342951D01*
X122401451Y-121250000D01*
X122401451Y-120750000D01*
X122392296Y-120657049D01*
X122365183Y-120567670D01*
X122321155Y-120485298D01*
X122261902Y-120413098D01*
X122189702Y-120353845D01*
X122107330Y-120309817D01*
X122017951Y-120282704D01*
X121925000Y-120273549D01*
X121575000Y-120273549D01*
X121482049Y-120282704D01*
X121392670Y-120309817D01*
X121310298Y-120353845D01*
X121238098Y-120413098D01*
X121178845Y-120485298D01*
X121134817Y-120567670D01*
X121107704Y-120657049D01*
X121100000Y-120735268D01*
X121092296Y-120657049D01*
X121065183Y-120567670D01*
X121021155Y-120485298D01*
X120961902Y-120413098D01*
X120889702Y-120353845D01*
X120807330Y-120309817D01*
X120717951Y-120282704D01*
X120625000Y-120273549D01*
X120400000Y-120273549D01*
X120400000Y-118800000D01*
X123000000Y-118800000D01*
X123000001Y-133300000D01*
G36*
X118500000Y-122258578D02*
G01*
X116529289Y-124229289D01*
X116516853Y-124244443D01*
X116507612Y-124261732D01*
X116501921Y-124280491D01*
X116500000Y-124300000D01*
X116500000Y-127600000D01*
X114300000Y-127600000D01*
X114300000Y-123662003D01*
X114320332Y-123631574D01*
X114373099Y-123504182D01*
X114400000Y-123368944D01*
X114400000Y-123231056D01*
X114373099Y-123095818D01*
X114320332Y-122968426D01*
X114301372Y-122940050D01*
X114441422Y-122800000D01*
X114600000Y-122800000D01*
X114658527Y-122794236D01*
X114714805Y-122777164D01*
X114766671Y-122749441D01*
X114812132Y-122712132D01*
X116312132Y-121212132D01*
X116349441Y-121166671D01*
X116377164Y-121114805D01*
X116394236Y-121058527D01*
X116400000Y-121000000D01*
X116400000Y-119400000D01*
X118500000Y-119400000D01*
X118500000Y-122258578D01*
X118500000Y-122258578D01*
G37*
X118500000Y-122258578D02*
X116529289Y-124229289D01*
X116516853Y-124244443D01*
X116507612Y-124261732D01*
X116501921Y-124280491D01*
X116500000Y-124300000D01*
X116500000Y-127600000D01*
X114300000Y-127600000D01*
X114300000Y-123662003D01*
X114320332Y-123631574D01*
X114373099Y-123504182D01*
X114400000Y-123368944D01*
X114400000Y-123231056D01*
X114373099Y-123095818D01*
X114320332Y-122968426D01*
X114301372Y-122940050D01*
X114441422Y-122800000D01*
X114600000Y-122800000D01*
X114658527Y-122794236D01*
X114714805Y-122777164D01*
X114766671Y-122749441D01*
X114812132Y-122712132D01*
X116312132Y-121212132D01*
X116349441Y-121166671D01*
X116377164Y-121114805D01*
X116394236Y-121058527D01*
X116400000Y-121000000D01*
X116400000Y-119400000D01*
X118500000Y-119400000D01*
X118500000Y-122258578D01*
G36*
X116298549Y-111650000D02*
G01*
X116298549Y-111985766D01*
X116031047Y-112253268D01*
X116015790Y-112265789D01*
X116003268Y-112281047D01*
X116003265Y-112281050D01*
X115965803Y-112326698D01*
X115928661Y-112396186D01*
X115905788Y-112471587D01*
X115898065Y-112550000D01*
X115900001Y-112569656D01*
X115900000Y-113780353D01*
X115898065Y-113800000D01*
X115900000Y-113819646D01*
X115905788Y-113878413D01*
X115928660Y-113953813D01*
X115965803Y-114023302D01*
X116015789Y-114084211D01*
X116031052Y-114096737D01*
X116263549Y-114329234D01*
X116263549Y-115575000D01*
X116269341Y-115633810D01*
X116286496Y-115690360D01*
X116314353Y-115742477D01*
X116351842Y-115788158D01*
X116397523Y-115825647D01*
X116449640Y-115853504D01*
X116506190Y-115870659D01*
X116565000Y-115876451D01*
X117165000Y-115876451D01*
X117223810Y-115870659D01*
X117280360Y-115853504D01*
X117332477Y-115825647D01*
X117378158Y-115788158D01*
X117415647Y-115742477D01*
X117443504Y-115690360D01*
X117460659Y-115633810D01*
X117466451Y-115575000D01*
X117466451Y-114025000D01*
X117460659Y-113966190D01*
X117443504Y-113909640D01*
X117415647Y-113857523D01*
X117378158Y-113811842D01*
X117334240Y-113775800D01*
X117389702Y-113746155D01*
X117461902Y-113686902D01*
X117500000Y-113640479D01*
X117538098Y-113686902D01*
X117610298Y-113746155D01*
X117665760Y-113775800D01*
X117621842Y-113811842D01*
X117584353Y-113857523D01*
X117556496Y-113909640D01*
X117539341Y-113966190D01*
X117533549Y-114025000D01*
X117533549Y-115575000D01*
X117539341Y-115633810D01*
X117556496Y-115690360D01*
X117584353Y-115742477D01*
X117621842Y-115788158D01*
X117667523Y-115825647D01*
X117719640Y-115853504D01*
X117776190Y-115870659D01*
X117835000Y-115876451D01*
X118435000Y-115876451D01*
X118493810Y-115870659D01*
X118550360Y-115853504D01*
X118602477Y-115825647D01*
X118648158Y-115788158D01*
X118685647Y-115742477D01*
X118713504Y-115690360D01*
X118730659Y-115633810D01*
X118736451Y-115575000D01*
X118736451Y-114222136D01*
X118803549Y-114289234D01*
X118803549Y-115575000D01*
X118809341Y-115633810D01*
X118826496Y-115690360D01*
X118854353Y-115742477D01*
X118891842Y-115788158D01*
X118937523Y-115825647D01*
X118989640Y-115853504D01*
X119046190Y-115870659D01*
X119105000Y-115876451D01*
X119705000Y-115876451D01*
X119763810Y-115870659D01*
X119820360Y-115853504D01*
X119872477Y-115825647D01*
X119918158Y-115788158D01*
X119920684Y-115785080D01*
X119973442Y-115820332D01*
X120100834Y-115873099D01*
X120236072Y-115900000D01*
X120373960Y-115900000D01*
X120509198Y-115873099D01*
X120636590Y-115820332D01*
X120751240Y-115743726D01*
X120848742Y-115646224D01*
X120925348Y-115531574D01*
X120978115Y-115404182D01*
X121005016Y-115268944D01*
X121005016Y-115131056D01*
X120978115Y-114995818D01*
X120925348Y-114868426D01*
X120848742Y-114753776D01*
X120751240Y-114656274D01*
X120705016Y-114625388D01*
X120705016Y-114074663D01*
X120706951Y-114055016D01*
X120703828Y-114023302D01*
X120699228Y-113976602D01*
X120676356Y-113901202D01*
X120639213Y-113831713D01*
X120589227Y-113770805D01*
X120573964Y-113758279D01*
X120001451Y-113185766D01*
X120001451Y-112850000D01*
X119992296Y-112757049D01*
X119965183Y-112667670D01*
X119921155Y-112585298D01*
X119867126Y-112519463D01*
X119868426Y-112520332D01*
X119995818Y-112573099D01*
X120131056Y-112600000D01*
X120268944Y-112600000D01*
X120404182Y-112573099D01*
X120531574Y-112520332D01*
X120646224Y-112443726D01*
X120743726Y-112346224D01*
X120820332Y-112231574D01*
X120873099Y-112104182D01*
X120900000Y-111968944D01*
X120900000Y-111831056D01*
X120873099Y-111695818D01*
X120833410Y-111600000D01*
X123000000Y-111600000D01*
X123000000Y-118400000D01*
X120611151Y-118400000D01*
X120549011Y-118381150D01*
X120486571Y-118375000D01*
X120486564Y-118375000D01*
X120465697Y-118372945D01*
X120457111Y-118373791D01*
X120443738Y-118353776D01*
X120346236Y-118256274D01*
X120231586Y-118179668D01*
X120104194Y-118126901D01*
X119968956Y-118100000D01*
X119831068Y-118100000D01*
X119695830Y-118126901D01*
X119568438Y-118179668D01*
X119453788Y-118256274D01*
X119356286Y-118353776D01*
X119279680Y-118468426D01*
X119226913Y-118595818D01*
X119200012Y-118731056D01*
X119200012Y-118800000D01*
X113400000Y-118800000D01*
X113400000Y-116248697D01*
X113457356Y-116266095D01*
X113562500Y-116276451D01*
X114437500Y-116276451D01*
X114542644Y-116266095D01*
X114643748Y-116235426D01*
X114736925Y-116185621D01*
X114818596Y-116118596D01*
X114885621Y-116036925D01*
X114935426Y-115943748D01*
X114966095Y-115842644D01*
X114976451Y-115737500D01*
X114976451Y-115262500D01*
X114966095Y-115157356D01*
X114935426Y-115056252D01*
X114900000Y-114989976D01*
X114900000Y-111600000D01*
X116303474Y-111600000D01*
X116298549Y-111650000D01*
X116298549Y-111650000D01*
G37*
X116298549Y-111650000D02*
X116298549Y-111985766D01*
X116031047Y-112253268D01*
X116015790Y-112265789D01*
X116003268Y-112281047D01*
X116003265Y-112281050D01*
X115965803Y-112326698D01*
X115928661Y-112396186D01*
X115905788Y-112471587D01*
X115898065Y-112550000D01*
X115900001Y-112569656D01*
X115900000Y-113780353D01*
X115898065Y-113800000D01*
X115900000Y-113819646D01*
X115905788Y-113878413D01*
X115928660Y-113953813D01*
X115965803Y-114023302D01*
X116015789Y-114084211D01*
X116031052Y-114096737D01*
X116263549Y-114329234D01*
X116263549Y-115575000D01*
X116269341Y-115633810D01*
X116286496Y-115690360D01*
X116314353Y-115742477D01*
X116351842Y-115788158D01*
X116397523Y-115825647D01*
X116449640Y-115853504D01*
X116506190Y-115870659D01*
X116565000Y-115876451D01*
X117165000Y-115876451D01*
X117223810Y-115870659D01*
X117280360Y-115853504D01*
X117332477Y-115825647D01*
X117378158Y-115788158D01*
X117415647Y-115742477D01*
X117443504Y-115690360D01*
X117460659Y-115633810D01*
X117466451Y-115575000D01*
X117466451Y-114025000D01*
X117460659Y-113966190D01*
X117443504Y-113909640D01*
X117415647Y-113857523D01*
X117378158Y-113811842D01*
X117334240Y-113775800D01*
X117389702Y-113746155D01*
X117461902Y-113686902D01*
X117500000Y-113640479D01*
X117538098Y-113686902D01*
X117610298Y-113746155D01*
X117665760Y-113775800D01*
X117621842Y-113811842D01*
X117584353Y-113857523D01*
X117556496Y-113909640D01*
X117539341Y-113966190D01*
X117533549Y-114025000D01*
X117533549Y-115575000D01*
X117539341Y-115633810D01*
X117556496Y-115690360D01*
X117584353Y-115742477D01*
X117621842Y-115788158D01*
X117667523Y-115825647D01*
X117719640Y-115853504D01*
X117776190Y-115870659D01*
X117835000Y-115876451D01*
X118435000Y-115876451D01*
X118493810Y-115870659D01*
X118550360Y-115853504D01*
X118602477Y-115825647D01*
X118648158Y-115788158D01*
X118685647Y-115742477D01*
X118713504Y-115690360D01*
X118730659Y-115633810D01*
X118736451Y-115575000D01*
X118736451Y-114222136D01*
X118803549Y-114289234D01*
X118803549Y-115575000D01*
X118809341Y-115633810D01*
X118826496Y-115690360D01*
X118854353Y-115742477D01*
X118891842Y-115788158D01*
X118937523Y-115825647D01*
X118989640Y-115853504D01*
X119046190Y-115870659D01*
X119105000Y-115876451D01*
X119705000Y-115876451D01*
X119763810Y-115870659D01*
X119820360Y-115853504D01*
X119872477Y-115825647D01*
X119918158Y-115788158D01*
X119920684Y-115785080D01*
X119973442Y-115820332D01*
X120100834Y-115873099D01*
X120236072Y-115900000D01*
X120373960Y-115900000D01*
X120509198Y-115873099D01*
X120636590Y-115820332D01*
X120751240Y-115743726D01*
X120848742Y-115646224D01*
X120925348Y-115531574D01*
X120978115Y-115404182D01*
X121005016Y-115268944D01*
X121005016Y-115131056D01*
X120978115Y-114995818D01*
X120925348Y-114868426D01*
X120848742Y-114753776D01*
X120751240Y-114656274D01*
X120705016Y-114625388D01*
X120705016Y-114074663D01*
X120706951Y-114055016D01*
X120703828Y-114023302D01*
X120699228Y-113976602D01*
X120676356Y-113901202D01*
X120639213Y-113831713D01*
X120589227Y-113770805D01*
X120573964Y-113758279D01*
X120001451Y-113185766D01*
X120001451Y-112850000D01*
X119992296Y-112757049D01*
X119965183Y-112667670D01*
X119921155Y-112585298D01*
X119867126Y-112519463D01*
X119868426Y-112520332D01*
X119995818Y-112573099D01*
X120131056Y-112600000D01*
X120268944Y-112600000D01*
X120404182Y-112573099D01*
X120531574Y-112520332D01*
X120646224Y-112443726D01*
X120743726Y-112346224D01*
X120820332Y-112231574D01*
X120873099Y-112104182D01*
X120900000Y-111968944D01*
X120900000Y-111831056D01*
X120873099Y-111695818D01*
X120833410Y-111600000D01*
X123000000Y-111600000D01*
X123000000Y-118400000D01*
X120611151Y-118400000D01*
X120549011Y-118381150D01*
X120486571Y-118375000D01*
X120486564Y-118375000D01*
X120465697Y-118372945D01*
X120457111Y-118373791D01*
X120443738Y-118353776D01*
X120346236Y-118256274D01*
X120231586Y-118179668D01*
X120104194Y-118126901D01*
X119968956Y-118100000D01*
X119831068Y-118100000D01*
X119695830Y-118126901D01*
X119568438Y-118179668D01*
X119453788Y-118256274D01*
X119356286Y-118353776D01*
X119279680Y-118468426D01*
X119226913Y-118595818D01*
X119200012Y-118731056D01*
X119200012Y-118800000D01*
X113400000Y-118800000D01*
X113400000Y-116248697D01*
X113457356Y-116266095D01*
X113562500Y-116276451D01*
X114437500Y-116276451D01*
X114542644Y-116266095D01*
X114643748Y-116235426D01*
X114736925Y-116185621D01*
X114818596Y-116118596D01*
X114885621Y-116036925D01*
X114935426Y-115943748D01*
X114966095Y-115842644D01*
X114976451Y-115737500D01*
X114976451Y-115262500D01*
X114966095Y-115157356D01*
X114935426Y-115056252D01*
X114900000Y-114989976D01*
X114900000Y-111600000D01*
X116303474Y-111600000D01*
X116298549Y-111650000D01*
G36*
X120000000Y-130500000D02*
G01*
X118800000Y-130500000D01*
X118741473Y-130505764D01*
X118685195Y-130522836D01*
X118633329Y-130550559D01*
X118587868Y-130587868D01*
X118550559Y-130633329D01*
X118522836Y-130685195D01*
X118505764Y-130741473D01*
X118500000Y-130800000D01*
X118500000Y-133300000D01*
X113400000Y-133300000D01*
X113400000Y-122800000D01*
X113918345Y-122800000D01*
X113905764Y-122841473D01*
X113900000Y-122900000D01*
X113900000Y-124985268D01*
X113898549Y-125000000D01*
X113898549Y-127200000D01*
X113900000Y-127214732D01*
X113900000Y-127700000D01*
X113905764Y-127758527D01*
X113922836Y-127814805D01*
X113950559Y-127866671D01*
X113987868Y-127912132D01*
X114033329Y-127949441D01*
X114085195Y-127977164D01*
X114141473Y-127994236D01*
X114200000Y-128000000D01*
X116600000Y-128000000D01*
X116658527Y-127994236D01*
X116714805Y-127977164D01*
X116766671Y-127949441D01*
X116812132Y-127912132D01*
X116849441Y-127866671D01*
X116877164Y-127814805D01*
X116894236Y-127758527D01*
X116900000Y-127700000D01*
X116900000Y-124424264D01*
X118812132Y-122512132D01*
X118849441Y-122466671D01*
X118877164Y-122414805D01*
X118894236Y-122358527D01*
X118900000Y-122300000D01*
X118900000Y-122175010D01*
X120000000Y-122175010D01*
X120000000Y-130500000D01*
X120000000Y-130500000D01*
G37*
X120000000Y-130500000D02*
X118800000Y-130500000D01*
X118741473Y-130505764D01*
X118685195Y-130522836D01*
X118633329Y-130550559D01*
X118587868Y-130587868D01*
X118550559Y-130633329D01*
X118522836Y-130685195D01*
X118505764Y-130741473D01*
X118500000Y-130800000D01*
X118500000Y-133300000D01*
X113400000Y-133300000D01*
X113400000Y-122800000D01*
X113918345Y-122800000D01*
X113905764Y-122841473D01*
X113900000Y-122900000D01*
X113900000Y-124985268D01*
X113898549Y-125000000D01*
X113898549Y-127200000D01*
X113900000Y-127214732D01*
X113900000Y-127700000D01*
X113905764Y-127758527D01*
X113922836Y-127814805D01*
X113950559Y-127866671D01*
X113987868Y-127912132D01*
X114033329Y-127949441D01*
X114085195Y-127977164D01*
X114141473Y-127994236D01*
X114200000Y-128000000D01*
X116600000Y-128000000D01*
X116658527Y-127994236D01*
X116714805Y-127977164D01*
X116766671Y-127949441D01*
X116812132Y-127912132D01*
X116849441Y-127866671D01*
X116877164Y-127814805D01*
X116894236Y-127758527D01*
X116900000Y-127700000D01*
X116900000Y-124424264D01*
X118812132Y-122512132D01*
X118849441Y-122466671D01*
X118877164Y-122414805D01*
X118894236Y-122358527D01*
X118900000Y-122300000D01*
X118900000Y-122175010D01*
X120000000Y-122175010D01*
X120000000Y-130500000D01*
G36*
X116000000Y-120958578D02*
G01*
X114558578Y-122400000D01*
X113400000Y-122400000D01*
X113400000Y-119400000D01*
X116000000Y-119400000D01*
X116000000Y-120958578D01*
X116000000Y-120958578D01*
G37*
X116000000Y-120958578D02*
X114558578Y-122400000D01*
X113400000Y-122400000D01*
X113400000Y-119400000D01*
X116000000Y-119400000D01*
X116000000Y-120958578D01*
G36*
X114500000Y-115800000D02*
G01*
X113400000Y-115800000D01*
X113400000Y-111600000D01*
X114500000Y-111600000D01*
X114500000Y-115800000D01*
X114500000Y-115800000D01*
G37*
X114500000Y-115800000D02*
X113400000Y-115800000D01*
X113400000Y-111600000D01*
X114500000Y-111600000D01*
X114500000Y-115800000D01*
M02*
