G04 #@! TF.GenerationSoftware,KiCad,Pcbnew,5.1.0-060a0da~80~ubuntu18.04.1*
G04 #@! TF.CreationDate,2019-03-24T22:45:50+01:00*
G04 #@! TF.ProjectId,mav_psu,6d61765f-7073-4752-9e6b-696361645f70,rev?*
G04 #@! TF.SameCoordinates,Original*
G04 #@! TF.FileFunction,Soldermask,Bot*
G04 #@! TF.FilePolarity,Negative*
%FSLAX46Y46*%
G04 Gerber Fmt 4.6, Leading zero omitted, Abs format (unit mm)*
G04 Created by KiCad (PCBNEW 5.1.0-060a0da~80~ubuntu18.04.1) date 2019-03-24 22:45:50*
%MOMM*%
%LPD*%
G04 APERTURE LIST*
%ADD10C,0.350000*%
%ADD11C,0.100000*%
G04 APERTURE END LIST*
D10*
X116850000Y-118300000D02*
G75*
G03X116850000Y-118300000I-150000J0D01*
G01*
X118450000Y-118300000D02*
G75*
G03X118450000Y-118300000I-150000J0D01*
G01*
X118450000Y-116700000D02*
G75*
G03X118450000Y-116700000I-150000J0D01*
G01*
X116850000Y-116700000D02*
G75*
G03X116850000Y-116700000I-150000J0D01*
G01*
D11*
G36*
X122833351Y-132930743D02*
G01*
X122978942Y-132991049D01*
X123109970Y-133078599D01*
X123221401Y-133190030D01*
X123308951Y-133321058D01*
X123369257Y-133466649D01*
X123400000Y-133621207D01*
X123400000Y-133778793D01*
X123369257Y-133933351D01*
X123308951Y-134078942D01*
X123221401Y-134209970D01*
X123109970Y-134321401D01*
X122978942Y-134408951D01*
X122833351Y-134469257D01*
X122678793Y-134500000D01*
X122521207Y-134500000D01*
X122366649Y-134469257D01*
X122221058Y-134408951D01*
X122090030Y-134321401D01*
X121978599Y-134209970D01*
X121891049Y-134078942D01*
X121830743Y-133933351D01*
X121800000Y-133778793D01*
X121800000Y-133621207D01*
X121830743Y-133466649D01*
X121891049Y-133321058D01*
X121978599Y-133190030D01*
X122090030Y-133078599D01*
X122221058Y-132991049D01*
X122366649Y-132930743D01*
X122521207Y-132900000D01*
X122678793Y-132900000D01*
X122833351Y-132930743D01*
X122833351Y-132930743D01*
G37*
G36*
X114033351Y-132930743D02*
G01*
X114178942Y-132991049D01*
X114309970Y-133078599D01*
X114421401Y-133190030D01*
X114508951Y-133321058D01*
X114569257Y-133466649D01*
X114600000Y-133621207D01*
X114600000Y-133778793D01*
X114569257Y-133933351D01*
X114508951Y-134078942D01*
X114421401Y-134209970D01*
X114309970Y-134321401D01*
X114178942Y-134408951D01*
X114033351Y-134469257D01*
X113878793Y-134500000D01*
X113721207Y-134500000D01*
X113566649Y-134469257D01*
X113421058Y-134408951D01*
X113290030Y-134321401D01*
X113178599Y-134209970D01*
X113091049Y-134078942D01*
X113030743Y-133933351D01*
X113000000Y-133778793D01*
X113000000Y-133621207D01*
X113030743Y-133466649D01*
X113091049Y-133321058D01*
X113178599Y-133190030D01*
X113290030Y-133078599D01*
X113421058Y-132991049D01*
X113566649Y-132930743D01*
X113721207Y-132900000D01*
X113878793Y-132900000D01*
X114033351Y-132930743D01*
X114033351Y-132930743D01*
G37*
G36*
X122833351Y-110430743D02*
G01*
X122978942Y-110491049D01*
X123109970Y-110578599D01*
X123221401Y-110690030D01*
X123308951Y-110821058D01*
X123369257Y-110966649D01*
X123400000Y-111121207D01*
X123400000Y-111278793D01*
X123369257Y-111433351D01*
X123308951Y-111578942D01*
X123221401Y-111709970D01*
X123109970Y-111821401D01*
X122978942Y-111908951D01*
X122833351Y-111969257D01*
X122678793Y-112000000D01*
X122521207Y-112000000D01*
X122366649Y-111969257D01*
X122221058Y-111908951D01*
X122090030Y-111821401D01*
X121978599Y-111709970D01*
X121891049Y-111578942D01*
X121830743Y-111433351D01*
X121800000Y-111278793D01*
X121800000Y-111121207D01*
X121830743Y-110966649D01*
X121891049Y-110821058D01*
X121978599Y-110690030D01*
X122090030Y-110578599D01*
X122221058Y-110491049D01*
X122366649Y-110430743D01*
X122521207Y-110400000D01*
X122678793Y-110400000D01*
X122833351Y-110430743D01*
X122833351Y-110430743D01*
G37*
G36*
X114033351Y-110430743D02*
G01*
X114178942Y-110491049D01*
X114309970Y-110578599D01*
X114421401Y-110690030D01*
X114508951Y-110821058D01*
X114569257Y-110966649D01*
X114600000Y-111121207D01*
X114600000Y-111278793D01*
X114569257Y-111433351D01*
X114508951Y-111578942D01*
X114421401Y-111709970D01*
X114309970Y-111821401D01*
X114178942Y-111908951D01*
X114033351Y-111969257D01*
X113878793Y-112000000D01*
X113721207Y-112000000D01*
X113566649Y-111969257D01*
X113421058Y-111908951D01*
X113290030Y-111821401D01*
X113178599Y-111709970D01*
X113091049Y-111578942D01*
X113030743Y-111433351D01*
X113000000Y-111278793D01*
X113000000Y-111121207D01*
X113030743Y-110966649D01*
X113091049Y-110821058D01*
X113178599Y-110690030D01*
X113290030Y-110578599D01*
X113421058Y-110491049D01*
X113566649Y-110430743D01*
X113721207Y-110400000D01*
X113878793Y-110400000D01*
X114033351Y-110430743D01*
X114033351Y-110430743D01*
G37*
M02*
